<?xml version="1.0" encoding="utf-8"?>
<!-- Generator: Adobe Illustrator 18.1.1, SVG Export Plug-In . SVG Version: 6.00 Build 0)  -->
<svg version="1.1" id="Layer_1" xmlns="http://www.w3.org/2000/svg" xmlns:xlink="http://www.w3.org/1999/xlink" x="0" y="0"
	 viewBox="0 0 841.9 1190.6" enable-background="new 0 0 841.9 1190.6" xml:space="preserve">
<g>
	<g>
		<path fill="#EDCEA0" d="M-26,980.5c-51.3,0-102.7,0-154,0.1c-3.4,0-4.1-0.6-4.1-4.1c0.1-253.3,0.1-506.6,0-759.9
			c0-3.9,1.1-4.2,4.5-4.2c401.1,0.1,802.2,0.1,1203.3,0c3.3,0,4.5,0.4,4.5,4.2c-0.1,253.3-0.1,506.6,0,759.9c0,3.5-0.8,4.1-4.1,4.1
			c-57.7-0.1-115.3-0.1-173-0.1c-3.3-1.6-3.6-5-4.6-7.9c-10.4-30.6-30.1-53-59.1-67.1c-11.3-5.5-23.3-8.9-35.9-10.1
			c-11.1-1.1-11.7-2.1-8.1-12.7c6.8-20.1,10-40.8,8.5-62c-2.7-37.5-15.7-70.9-40.5-99.5c-24.4-28.2-55-45.9-91.2-53.9
			c-20.2-4.5-40.6-5-61-1.6c-7.8,1.3-9.4-0.9-6.7-8.5c12.2-34.6-0.7-71.9-31.7-91.7c-0.6-0.4-1.1-0.7-1.7-1.1
			c-5.4-3.4-5.9-4.7-3.4-10.6c5-11.8,7.8-24,7.4-36.9c-0.7-19.6-7.1-37.3-19.6-52.4c-18.5-22.4-42.8-32.9-71.7-31.8
			c-18.7,0.7-35.5,7.6-49.9,19.5c-20.7,17.1-31,39.5-31.8,66.2c-0.2,6.7-2,8.3-8.7,7.3c-29.5-4.8-58.3-2.1-85.7,9.7
			c-52.7,22.7-84.5,62.7-95.4,119.1c-2.2,11.5-2.7,23.1-2.2,34.8c0.3,7.5-1.3,8.9-8.8,7.1c-14.3-3.4-28.8-5.2-43.5-4.8
			c-41.1,1.1-77.6,14.3-109.2,40.8c-32.7,27.4-52.9,62.3-59.9,104.3c-8.3,50.1,3.2,95.5,33.9,136C-27.7,975-25,977-26,980.5z"/>
		<path fill="#D8B28D" d="M-26,980.5c-13.2-15.9-23.7-33.3-30.9-52.7c-5.5-15.1-8.8-30.6-10.3-46.6c-2.2-22.5,0.5-44.4,6.8-66
			c6.7-23.2,18.1-43.9,33.6-62.4c20.4-24.5,45.8-42,75.6-52.9c14.2-5.2,29-8.1,44.2-9.6c19.6-1.9,38.8,0,57.9,4.4
			c5.8,1.3,5.6,1.4,5.3-4.5c-1.1-25.6,3.2-50.3,13.5-73.9c9.4-21.6,23.2-40,40.8-55.5c17.8-15.7,38.4-26.8,61.4-33.3
			c16.6-4.7,33.6-6.7,50.8-5.9c6.9,0.3,13.9,1.4,20.7,2.5c3.6,0.6,4.9-0.4,4.8-4c-0.3-20,5.8-38.1,17.6-54
			c14.6-19.6,34.3-31,58.5-34.6c23.8-3.6,45.3,2.3,64.6,16.3c20.2,14.6,31.5,34.6,35.3,59.1c2.7,17.5-0.3,34.1-7.8,50
			c-1.1,2.4-0.6,3.4,1.6,4.7c21.1,11.8,34.1,29.7,39.3,53.3c3.4,15,2,29.7-3.4,44.1c-0.6,1.6-2.3,3.4-0.8,5c1.2,1.4,3.1,0.1,4.7-0.1
			c49.1-7.5,93.4,3.8,132.6,34.5c31.9,25,51.5,57.9,60.1,97.3c6.2,28.3,4.6,56.5-4.1,84.2c-0.9,2.9-1.8,5.7-2.9,8.5
			c-1.1,2.8-0.9,3.9,2.7,4.3c9.4,1,18.8,2.2,27.8,5.3c39.3,13.7,64.8,40.5,76.2,80.7c0.2,0.6,0.5,1.2,0.7,1.9
			c-206.3,0-412.7,0-619,0c-1.3-1-2.7-0.7-4,0C143.3,980.5,58.7,980.5-26,980.5z"/>
		<path fill="#DFC5B3" d="M228,980.5c1.3-0.7,2.7-2.7,4,0C230.7,980.5,229.3,980.5,228,980.5z"/>
		<path fill="#BB8A72" d="M364.8,559.6c32,0,64,0,95.9,0c11,0,15.2,4.2,15.2,15c0,30.8,0,61.6,0,92.4c0,11.3-4.1,15.5-15.3,15.5
			c-24.2,0-48.3,0-72.5,0c-3.8,0-5.7,0.2-3.6,4.9c2.3,5.3,3.7,11,5.7,16.5c0.9,2.6,1.1,5.8,5,5.9c0.9,0,1.4,0.8,1.4,1.7
			c0,1.2-0.8,1.8-1.9,1.9c-1,0.1-2,0.1-3,0.1c-17.7,0-35.3,0-53,0c-1.7,0-4.1,0.8-4.6-1.7c-0.4-2.5,2-2.1,3.5-2.3
			c1.9-0.3,2.2-1.8,2.7-3.2c2.4-6.7,4.7-13.5,7.1-20.3c1.5-4.1-1.3-3.5-3.6-3.5c-25.2,0-50.3,0-75.5,0c-11.6,0-15.6-4-15.6-15.6
			c0-30.8,0-61.6,0-92.4c0-10.6,4.3-14.9,14.9-14.9C300.2,559.5,332.5,559.6,364.8,559.6z"/>
		<path fill="#BB8A72" d="M352,871.5c-7.8,0-15.6,0.2-23.5-0.1c-3.7-0.1-6.3,1-8.7,3.7c-3.3,3.7-6.9,7.2-11.5,9.5
			c-1.4,0.7-2.9,1.4-4.2,0.4c-1.7-1.3,0.1-2.7,0.6-3.9c1.8-4.5,4-8.9-1.8-12.4c-1.8-1.1-1.9-3.7-1.9-6c0-10.1-0.1-20.3,0-30.4
			c0.1-6,2.9-8.7,9-8.7c22.3-0.1,44.6-0.1,66.9,0c6.3,0,9,2.8,9,9.3c0.1,9.8,0.1,19.6,0,29.4c0,6.6-2.8,9.2-9.5,9.3
			C368.3,871.6,360.1,871.5,352,871.5z"/>
		<path fill="#BB8A72" d="M439,825.6c6.5,0,13,0.3,19.5-0.1c4-0.2,5.8,1.4,6.3,5.1c0.2,1.5,0.8,2.9,1,4.4c0.6,4.4,1.9,7.8,7.5,6.7
			c1.5-0.3,3.2,0.2,3.4,2.1c0.2,2.3-1.6,2.8-3.3,2.7c-3.2-0.2-4.2,1.1-4.5,4.3c-1.5,14.9-3.2,29.7-4.8,44.5
			c-0.6,5.6-1.4,11.2-2,16.8c-0.3,2.5-1.7,3.4-4,3.4c-12.7,0-25.3,0-38,0c-2.7,0-3.8-1.3-4.1-3.9c-1.6-15.5-3.3-31-5-46.5
			c-0.4-3.5-0.6-7-1.1-10.4c-0.6-4.2-0.3-9.4-7.2-8.3c-1.2,0.2-2.2-0.8-2.3-2.1c-0.1-1.7,1.1-2.8,2.4-2.5c8.6,1.6,9.4-4.4,10.2-10.2
			c0.7-4.6,2.7-6.5,7.6-6.1C426.6,825.9,432.8,825.5,439,825.6z"/>
		<path fill="#BB8B72" d="M234.1,830.6c-0.5,14.5-5,27.3-15.3,37.8c-3,3.1-5.8,3.5-9.5,0.7c-9.3-7-18.9-13.5-28.3-20.4
			c-2.4-1.8-4.2-1.6-6.7-0.1c-14.4,8.6-34.1,2.2-40.7-13.5c-1.4-3.5-3.4-5.5-6.8-6.6c-1.4-0.4-2.8-1-4.1-1.8
			c-3.4-1.9-3.7-5.2-0.2-6.2c7-2.1,10.1-7.4,13.8-13c12.7-19.1,40.2-16.8,50.1,4c1.5,3.1,3.2,4.1,6.4,4c11-0.1,22,0.1,33-0.1
			c4.9-0.1,7.4,1.3,7.6,6.6C233.4,824.9,234.1,827.7,234.1,830.6z"/>
		<path fill="#BB8B72" d="M347.5,961.5c-14.3,0-28.6,0-42.9,0c-5.7,0-6-0.6-3.1-5.5c0.8-1.4,0.6-2.9,0.6-4.4c0-7.3,0-14.6,0-22
			c0-1.6-0.4-3.6,1.4-4.5c2.2-1.2,2.8,1.1,3.9,2.1c7.2,7.1,19.7,7.3,28.2,0.1c2.3-2,3.9-1.9,6.5-0.9c14.3,5.4,28.7,10.5,43.1,15.7
			c1.6,0.6,3.1,1.1,4.6,1.8c7,3.3,8.8,7.2,7.2,14.7c-0.7,3.3-3.2,2.9-5.5,2.9C376.8,961.6,362.1,961.5,347.5,961.5z"/>
		<path fill="#BB8B72" d="M287,776.5c0,14.3-0.1,28.6,0.1,43c0.1,4.4-1.2,6.3-5.9,6.2c-8.8-0.2-9.5-0.5-13.1-10.5
			c-4.2-11.7-8.3-23.5-12.4-35.3c-0.3-0.8-0.4-1.6-0.8-2.4c-3.1-5.8-4.7-10.7,0.8-17c5.4-6.2,3-17.2-2.7-23.5
			c-1.3-1.4-3.5-2.6-2.3-5c1-2,3.2-1.4,5-1.4c7.2,0,14.3,0,21.5,0c1.8,0,3.5,0.2,5.2-1.2c3.1-2.5,4.5-1.8,4.8,2.2
			c0.1,1.2,0,2.3,0,3.5C287,748.9,287,762.7,287,776.5z"/>
		<path fill="#BB8B72" d="M215.4,943.2c-2.1-0.5-3.7,0.7-5,1.8c-3.8,3.2-5.7,1.3-7.7-2.1c-3.7-6.1-5.9-12.6-6.7-19.7
			c-0.4-3.6,0.8-5.5,4.8-4.4c1.8,0.5,4.3,1.7,4.9-1.3c0.6-2.7-2-3.2-3.9-3.6c-5.2-1-5.3-3.9-3.6-8c2.6-6,5.9-11.5,10.2-16.5
			c2.2-2.6,4.2-3,6.6-0.4c0.7,0.7,1.4,1.4,2.2,2.1c1.2,1,2.5,2,4,0.7c1.3-1.2,0.1-2.5-0.4-3.6c-2.6-6.1-2.6-6.1,3.7-8.4
			c6.2-2.3,12.7-2.6,19.2-2.3c2.7,0.1,3.5,1.4,3.1,3.9c-0.2,1.3-0.6,2.6-0.7,3.9c-0.1,1.1-0.2,2.5,1.3,2.9c1.1,0.3,1.9-0.5,2.4-1.4
			c1.4-2,1.9-5.5,4.4-5.6c3.1-0.2,5.9,2.1,8.5,3.8c4.2,2.8,7.6,6.4,10.6,10.4c1.7,2.3,2.5,4.4-1,5.9c-1,0.5-1.9,1.3-2.8,2.1
			c-1.2,1.1-1.8,2.4-1,4c1.1,2.1,2.5,0.9,3.8,0.4c6.6-2.2,6.5-2.2,7.9,4.7c1.3,6.4,0.6,12.6-0.8,18.8c-0.7,3.2-2.2,4.8-5.6,3.3
			c-1.1-0.5-2.3-0.6-3.4-0.8c-1.2-0.3-2.3-0.1-3,1.1c-0.8,1.5,0.1,2.4,1.1,3.4c6,5.4,6.1,5.6,0.3,11.5c-4.2,4.3-9.3,7.5-14.8,9.9
			c-4.1,1.8-3.8-1.6-4.5-3.9c-1.2-4.3-3.2-5.4-6.1-3.6c-1.8,1.1-1.7,2.8-1.5,4.4c0.6,4.9-1.8,6.1-6.2,5.8
			c-7.8-0.6-14.9-3.2-21.4-7.5c-2.8-1.8-3.7-4.1-1.4-7.1C214,946.6,215.5,945.4,215.4,943.2z"/>
		<path fill="#BB8A72" d="M455,727.8c0,10.6,0,21.3,0,31.9c0,7.1-2.6,9.8-9.5,9.8c-11,0-22,0-32.9,0c-6.7,0-9.5-2.7-9.5-9.3
			c0-21.8,0-43.6,0-65.4c0-6.6,2.8-9.3,9.5-9.3c11,0,22,0,32.9,0c6.9,0,9.5,2.7,9.5,9.8C455,706.2,455,717,455,727.8z"/>
		<path fill="#BB8B72" d="M491.4,769.5c-8.8,0-17.6-0.1-26.5,0.1c-3.9,0.1-5.4-0.7-4.3-5.1c1.6-6.3,4.9-10.4,11.4-11.7
			c1.1-0.2,2.3-0.5,3.4-0.8c7.5-1.9,7.7-2.5,2.6-7.8c-6.7-7-6.6-18.4,0.2-25.3c6.7-6.7,17.9-7,24.9-0.6c7.1,6.5,7.7,17.9,1.3,25.3
			c-4.8,5.6-4.6,6.6,2.8,8.3c7.6,1.7,13.8,4.3,15,13.4c0.5,3.8-0.9,4.3-3.9,4.3C509.4,769.5,500.4,769.5,491.4,769.5z"/>
		<path fill="#BB8B72" d="M114,890.3c-0.1,18.2-15.3,33.3-33.6,33.2C62.1,923.5,47,908.3,47,890c0-18.5,15.3-33.6,33.9-33.5
			C99,856.7,114.1,872,114,890.3z"/>
		<path fill="#BB8B72" d="M584.9,946.9c0.1,2.1-1.3,2.8-3,3.5c-18.3,7.2-36.6,14.3-54.9,21.5c-2.5,1-4.5,0.9-5.9-1.9
			c-1.6-3.4-5.3-3.2-8.1-4.4c-4.2-1.7-5.2-3.8-3.8-8.4c2.1-6.7,2.5-14,0-20.7c-1.7-4.4-0.3-6.4,3.6-8c3.4-1.4,7.4-1.8,9.4-5.9
			c0.9-1.9,3.3-1,5-0.3c18.1,7.1,36.3,14.2,54.4,21.3C583.3,944.2,584.9,944.8,584.9,946.9z"/>
		<path fill="#BB8B72" d="M698,932c0,22.1-18.3,40.5-40.2,40.5c-22.5,0-40.8-18.2-40.8-40.5c0-22.3,18.3-40.5,40.8-40.5
			C679.7,891.5,698,910,698,932z"/>
		<path fill="#BB8B72" d="M65.8,971.5c-3.1-0.6-4.8-3.4-6.7-5.5c-2.1-2.4-3.7-3.6-6.4-0.7c-2.1,2.3-3.9,0.8-5.4-0.9
			c-5.7-6.3-11.3-12.6-16.9-19c-1.1-1.2-1.8-2.6-0.3-3.9c1.5-1.3,2.8-0.5,3.9,0.7c3.8,4.2,7.5,8.5,11.2,12.7
			c1.4,1.6,2.9,3.2,4.4,4.7c0.6,0.6,1.4,0.9,2.2,0.3c0.9-0.7,0.4-1.5-0.1-2.2c-2-2.6-4.1-5.2-6.2-7.8c-1.8-2.2-1.7-4.3,0.5-6.1
			c2.1-1.8,4-1,5.6,0.8c1.5,1.6,3.3,2.9,4.4,4.7c2.3,3.8,4.1,4.5,7.9,1.2c6.6-5.8,13.9-10.9,20.8-16.3c1.3-1,2.8-2.4,4.3-0.6
			c1.7,2,0.1,3.3-1.4,4.5c-7,5.4-14,10.7-20.8,16.3c-1.3,1.1-5.2,1.8-2.4,5.2c2.4,2.8,4,0.6,5.8-0.7c9.4-7.1,18.8-14.2,28.3-21.4
			c0.8-0.6,1.6-1.3,2.4-1.8c2.2-1.4,4.1-1.1,5.8,0.9c1.8,2.1,1.2,4.1-0.8,5.6c-7.7,6-15.5,12-23.3,18c-4.1,3.1-8.2,6.3-12.3,9.4
			C69.1,970.6,67.7,971.4,65.8,971.5z"/>
		<path fill="#BB8B72" d="M385,757.7c0,20.4-16.8,36.9-37.4,36.8c-20.1-0.1-36.6-16.9-36.6-37.2c0-20.4,16.9-36.9,37.4-36.8
			C368.5,720.6,385,737.4,385,757.7z"/>
		<path fill="#BB8B72" d="M171,917.2c0,5.2,0.1,10.3,0,15.5c-0.3,10.2-8.3,18-18.2,17.9c-9.8-0.1-17.5-7.9-17.7-17.9
			c-0.1-10.3-0.1-20.6,0-30.9c0.1-10.3,8-18.1,18-18.1c10,0,17.8,7.9,18,18.2C171.1,906.9,171,912,171,917.2z"/>
		<path fill="#BB8B72" d="M453,800c0,4,0,8,0,12c0,1.4-0.3,2.7-1.8,3.2c-1.3,0.4-2.3-0.2-2.8-1.4c-1.1-2.8-2.4-0.7-3.4-0.1
			c-5.3,3.5-10.9,3.7-16.7,1.7c-7.2-2.5-14.3-5.4-21.7-7.5c-5.4-1.5-5.5-5.2-5.6-9.6c-0.1-4.2,0.8-6.8,5.3-8.1
			c7.5-2.2,14.8-5.1,22.2-7.6c5.6-1.9,11.1-1.7,16.3,1.6c0.9,0.6,1.8,2.2,3.4,0.9c4.9-3.8,4.7,0.3,4.8,3.3
			C453.1,792.4,453,796.2,453,800C453,800,453,800,453,800z"/>
		<path fill="#BB8B72" d="M492.6,779.6c6.5,0,13-0.1,19.5,0c6.1,0.1,8.8,2.8,8.9,8.9c0.1,6.7,0,13.3,0,20c0,1.7,0.2,3.6-1,4.8
			c-4.2,4.3-2.7,8.7-0.6,13.2c0.5,1.1,1.9,2.4,0.5,3.5c-1.3,1.1-2.8,0.4-4.2-0.3c-4.4-2.2-7.9-5.5-11.2-9.1c-2-2.3-4.4-3.2-7.5-3.1
			c-8,0.2-16,0.1-24,0c-6.3-0.1-9-2.8-9.1-9.2c-0.1-6.5-0.1-13,0-19.5c0.1-6.6,2.8-9.2,9.6-9.3C479.9,779.5,486.2,779.6,492.6,779.6
			z"/>
		<path fill="#BB8B72" d="M351.1,814.5c-3.7,0-7.3,0-11,0c-1.4,0-2.9-0.2-2.8-2c0-1.8,1.6-1.9,2.9-1.9c1,0,2,0,3,0
			c5.5-0.1,7.1-2.4,5.7-7.8c-0.5-2-1.8-2-3.4-2.2c-8.1-0.6-15.7-3.1-22.3-7.9c-2.7-2-4.6-1.9-6.7,0.7c-1.2,1.6-2.8,2.9-4.3,4.2
			c-1.1,1-2.4,1.2-3.5,0c-0.9-1-0.8-2.2,0.1-3.2c2.5-2.6,5-5.4,7.8-7.7c2.1-1.7,4.2-0.1,5.8,1.3c6,5.1,12.9,7.7,20.7,9
			c19.4,3.2,40.8-12.4,43.8-32.1c1.9-12.5-0.8-23.4-8.9-33c-2.6-3-2.9-5.3,0.6-7.5c2.3-1.4,3.9-6.5,6.9-3.9c3.4,3-1.5,4.9-3.2,6.8
			c-2.2,2.5-0.3,4,0.8,5.6c9.5,14.7,10.6,29.9,2.3,45.4c-6,11.1-15.6,18-27.8,21.1c-4.2,1.1-6.3,5.6-4.5,9.5c1,2.3,3.2,1.2,4.8,1.6
			c2.6,0.7,7.3-2,7.3,2.2c0,3.4-4.7,1.3-7.2,1.7C355.8,814.8,353.5,814.5,351.1,814.5C351.1,814.5,351.1,814.5,351.1,814.5z"/>
		<path fill="#BB8B72" d="M297.3,902.9c1.6-1.1,2.3-1.3,2.6-1.8c4.9-7.3,12.1-7.9,20.1-7.7c13.8,0.5,27.6,0,41.4,0.2
			c4.7,0.1,6.8-1.7,6.6-6.4c-0.2-3.3,0-6.7,0-10c0-1.3,0.5-2.3,2-2.3c1.5,0,1.9,1.2,1.9,2.4c0,4.7,0.4,9.4-0.2,14
			c-0.6,4.7-4.2,6.4-8.8,6.4c-15.8-0.1-31.6,0.1-47.4-0.1c-4.4-0.1-7.7,1.1-10.4,4.5c-2.8,3.4-6.3,5.9-10.1,7.9
			c-1.2,0.7-2.6,1.1-3.8,0.3c-1.6-1.1-0.1-2.3,0.2-3.5c0.6-1.7,1.1-3.5,1.8-5.1c0.9-2.2,0.5-3.7-1.8-4.8c-3.2-1.5-4.4-4.3-4.4-7.7
			c0-10.3-0.1-20.6,0-31c0.1-5.6,3.7-8.9,8.8-8.5c1.4,0.1,2.8,0.1,2.9,2c0.1,1.5-1.1,2-2.3,2c-4.5,0-5.5,2.7-5.4,6.5
			c0.1,9.2,0,18.3,0,27.5c0,2.2,0,4.7,2.4,5.5C298,894.5,298.6,897.7,297.3,902.9z"/>
		<path fill="#BB8B72" d="M719,934.5c0-11,0-22,0-33c0-1.5,1-3.9-1.2-4.2c-1.9-0.2-2.1,2.2-2.7,3.7c-2,5.1-4,10.2-5.6,15.5
			c-2.8,9.3-1.5,17.7,4.2,25.6c0.8,1.1,3,2.6,0.9,4.2c-2.3,1.8-3.2-0.9-4.1-2.2c-6.1-8.3-8.1-17.4-4.9-27.4
			c2.1-6.7,4.6-13.2,6.9-19.8c1-2.8,3-4.6,6-4.2c2.8,0.4,4.1,2.5,4,5.4c0,1.8,0.5,3.6,0.5,5.4c0,21.2,0,42.3,0,63.5
			c0,1.2,0,2.3-0.1,3.5c-0.1,1.2-0.4,2.4-2,2.4c-1.5,0-1.8-1.3-1.9-2.5c-0.1-1.2-0.1-2.3-0.1-3.5C719,956.2,719,945.3,719,934.5z"/>
		<path fill="#BB8B72" d="M571.6,872.5c-0.2,0-0.3,0-0.5,0c-10.3-0.1-9.7,1.5-12.1-9.4c-1-4.7-4.3-8.2-5.4-12.8
			c-1.9-8.9,1.2-17,9-21.9c7.2-4.5,15.8-3.7,22.7,2.1c6.2,5.2,8.7,15.2,5.1,22.8c-2.5,5.3-5.3,10.3-6.9,16c-0.7,2.4-2.4,3.4-4.9,3.3
			C576.3,872.5,573.9,872.5,571.6,872.5z"/>
		<path fill="#BB8B72" d="M152.8,974.5c-3.3,0-6.7,0.3-10-0.1c-2.6-0.3-7.3,1.8-7.2-2.5c0.1-4.1,4.8-1.8,7.5-2.4c1-0.2,2-0.2,3,0
			c4.1,0.6,4.9-1.4,5.1-5.2c0.3-5.2-0.9-7.9-6.4-9.7c-9-2.8-13.8-10-15.6-19.1c-0.2-0.8-0.1-1.7-0.1-2.5c0.1-1.6,0.3-3.3,2.3-3.2
			c1.9,0.1,1.6,1.8,1.6,3.1c0,4.7,1.6,8.9,4.5,12.4c5.3,6.3,13.9,8.7,21.7,6.2c8.3-2.7,13.2-9.2,13.8-18.2c0.1-1.7-0.6-4.4,2.1-4.2
			c2.5,0.2,1.8,2.8,1.8,4.5c0,8.8-6.9,18-15.7,21.2c-4.5,1.6-7.3,9.3-4.9,13.3c0.8,1.4,2.2,1.2,3.5,1.3c2.7,0.1,5.3,0,8,0.1
			c1.4,0,2.7,0.6,2.8,2.2c0.1,2-1.3,2.6-2.9,2.6C162.8,974.5,157.8,974.5,152.8,974.5C152.8,974.5,152.8,974.5,152.8,974.5z"/>
		<path fill="#BB8B72" d="M515.7,880.6c5.6,0.1,10.4,5,10.3,10.7c-0.1,5.6-5.1,10.4-10.7,10.3c-5.6-0.1-10.4-5.1-10.3-10.7
			C505.1,885.2,510.1,880.5,515.7,880.6z"/>
		<path fill="#BB8B72" d="M607,948.6c0,6.3,0,12.6,0,19c0,1.4,0.1,3.4-2,3.4c-2.1,0-1.9-2-1.9-3.4c0-11-0.1-22,0-32.9
			c0-2.8-0.3-5-2.9-6.8c-2.7-1.8-4-4.9-4-8.2c-0.1-6-0.1-12,0-18c0-1.4-0.1-3.4,1.9-3.4c2.1,0,2,1.9,2,3.4c0.1,5.3,0.2,10.7,0,16
			c-0.2,3.8,1.1,6.6,4.2,8.4c2.4,1.4,3,3.2,2.9,5.8C606.9,937.3,607,943,607,948.6z"/>
		<path fill="#BC8C72" d="M538.8,863.9c-0.6,3.6-2.4,3.1-4.3,1.9c-4.7-2.9-9.3-5.6-15-6.3c-8.9-1.2-16.8,0.9-23.9,6.1
			c-1.9,1.4-3.6,3-5.5,0.5c-2.1-2.8,0.8-3.7,2.4-4.9c13-9.8,30.2-10.4,42.8-1.4C537,860.9,538.6,862.1,538.8,863.9z"/>
		<path fill="#BC8C73" d="M515.2,862.5c6.6-0.4,11.9,2.7,17,6.2c1.8,1.2,2.4,2.9,1.1,4.7c-1.4,1.8-2.8,0.7-4.3-0.3
			c-9.2-6.6-18.4-6.6-27.8-0.4c-1.7,1.1-4,3.1-5.7,0.8c-1.6-2.3,0.7-4,2.5-5.2C503.2,864.7,508.7,862.2,515.2,862.5z"/>
		<path fill="#BC8C73" d="M515.5,871.5c4.3-0.3,8,1.9,11.5,4.6c1.1,0.9,2.5,2.1,1.4,3.8c-1.1,1.6-2.8,1.8-4.4,0.6
			c-6.6-4.6-13-4.2-19.2,0.7c-1.5,1.2-2.9,0.6-3.9-0.6c-1.2-1.4,0-2.5,0.9-3.4C505.6,873.7,509.8,871.3,515.5,871.5z"/>
		<path fill="#BB8B72" d="M572.2,878.4c-3.1,0-6.3,0.1-9.4,0c-1.2,0-2.4-0.6-2.2-2.1c0.1-1.2,1.1-1.6,2.1-1.6
			c6.4-0.1,12.9-0.1,19.3,0c1.2,0,2.4,0.4,2.4,1.9c0,1.5-1.2,1.9-2.4,1.9C578.8,878.5,575.5,878.5,572.2,878.4
			C572.2,878.5,572.2,878.5,572.2,878.4z"/>
		<path fill="#BB8B72" d="M572.5,884.5c-3,0-5.9,0-8.9,0c-1.3,0-2.9-0.1-3-1.8c-0.1-1.8,1.4-2,2.8-2.1c6.1,0,12.2-0.1,18.3,0
			c1.3,0,2.9,0.3,2.8,2.1c-0.1,1.7-1.7,1.8-3,1.8C578.4,884.6,575.5,884.5,572.5,884.5z"/>
		<path fill="#BB8B72" d="M607,908.6c0,2.6,0,5.3,0,7.9c0,1.4-0.2,2.8-2,2.8c-1.5,0-1.9-1.2-1.9-2.4c0-5.5,0-10.9,0.1-16.4
			c0-1.2,0.5-2.4,2-2.3c1.5,0.1,1.8,1.3,1.8,2.5C607,903.3,606.9,905.9,607,908.6C607,908.6,607,908.6,607,908.6z"/>
		<path fill="#BB8B72" d="M610.1,908.5c0-2.6,0-5.3,0-7.9c0-1.2,0.4-2.4,1.8-2.5c1.5-0.1,2,1.1,2,2.3c0.1,5.5,0.1,10.9,0.1,16.4
			c0,1.2-0.3,2.4-1.9,2.4c-1.9,0-2-1.4-2-2.8C610,913.8,610,911.2,610.1,908.5C610,908.5,610,908.5,610.1,908.5z"/>
		<path fill="#C09176" d="M451.8,941.8c-0.1,1.4-0.5,2.3-1.7,2.3c-1.3,0-2.3-0.8-2.3-2.1c0-1.1,0.9-1.8,2-1.8
			C450.8,940.2,451.5,941,451.8,941.8z"/>
		<path fill="#C19378" d="M502.8,958.8c-0.1,1.3-0.6,2.2-1.7,2.3c-1.3,0-2.3-0.8-2.3-2.1c0-1.1,0.9-1.8,2-1.8
			C501.8,957.2,502.5,958,502.8,958.8z"/>
		<path fill="#BF9076" d="M454.2,951.1c-1.3-0.1-1.9-0.8-2-1.9c-0.1-1.3,0.6-2.3,2-2.1c1.1,0.1,1.6,1,1.6,2.1
			C455.8,950.2,455.1,950.9,454.2,951.1z"/>
		<path fill="#BF9076" d="M409.9,960c1.4,0.3,2,1.1,1.9,2.1c-0.1,1.3-0.8,2.2-2.2,1.9c-1-0.2-1.5-1.1-1.4-2.2
			C408.4,960.6,409.2,960.2,409.9,960z"/>
		<path fill="#C09076" d="M489.5,970.5c0,1.1-0.7,1.7-1.8,1.8c-1.1,0.1-2-0.4-2.2-1.4c-0.3-1.4,0.7-2.1,2-2.1
			C488.5,968.7,489.3,969.3,489.5,970.5z"/>
		<path fill="#BF9076" d="M480.5,973.6c-0.2,1.2-0.9,1.8-2,1.8c-1.3,0-2.2-0.7-2-2.1c0.2-1.1,1.1-1.6,2.2-1.5
			C479.8,971.9,480.4,972.5,480.5,973.6z"/>
		<path fill="#BF8F75" d="M418.8,947c-0.2,1.1-0.8,1.8-1.9,1.8c-1.3,0.1-1.7-0.8-1.7-1.9c0.1-1,0.6-1.9,1.8-1.9
			C418.2,945,418.6,945.9,418.8,947z"/>
		<path fill="#BE8F75" d="M460.5,956.4c0,1.1-0.7,1.8-1.8,1.9c-1.2,0.1-1.8-0.7-2-1.7c-0.2-1.2,0.6-1.8,1.7-1.8
			C459.6,954.7,460.3,955.3,460.5,956.4z"/>
		<path fill="#BE8E74" d="M432.1,931.3c-1-0.1-1.7-0.7-1.6-1.9c0.1-0.9,0.8-1.5,1.7-1.5c1.3,0,1.7,0.8,1.6,1.9
			C433.8,930.7,433.3,931.3,432.1,931.3z"/>
		<path fill="#BD8D74" d="M440.6,930.3c-0.2,1.5-1,2.1-2.1,1.9c-0.9-0.1-1.4-0.8-1.3-1.8c0-0.9,0.5-1.6,1.5-1.6
			C439.8,928.8,440.3,929.6,440.6,930.3z"/>
		<path fill="#BE8E74" d="M444.7,937.3c-1.1-0.1-1.6-0.7-1.6-1.7c0-1.2,0.5-1.9,1.8-1.8c0.9,0.1,1.5,0.7,1.6,1.6
			C446.5,936.7,445.7,937.2,444.7,937.3z"/>
		<path fill="#BE8E74" d="M422.7,939.4c0.1,1.1-0.3,1.7-1.3,1.9c-1.1,0.2-2-0.1-2.2-1.4c-0.1-0.9,0.4-1.6,1.3-1.9
			C421.8,937.8,422.4,938.5,422.7,939.4z"/>
		<path fill="#BE8E74" d="M507.7,952.4c-0.3,1.2-1,1.9-2.1,1.7c-0.9-0.2-1.4-0.9-1.3-1.8c0.1-1.3,1-1.6,2.1-1.4
			C507.3,950.9,507.8,951.5,507.7,952.4z"/>
		<path fill="#BE8E74" d="M463.4,965.3c-1-0.1-1.9-0.6-1.9-1.8c0-1,0.6-1.5,1.5-1.7c1.2-0.2,1.8,0.5,1.8,1.7
			C464.9,964.5,464.4,965.1,463.4,965.3z"/>
		<path fill="#BE8E74" d="M494.7,967.3c-1.1-0.1-1.6-0.7-1.6-1.7c0-1.2,0.5-1.9,1.8-1.8c0.9,0.1,1.5,0.7,1.6,1.6
			C496.5,966.7,495.7,967.2,494.7,967.3z"/>
		<path fill="#BF8F75" d="M408.7,969.5c0.1,1.1-0.3,1.7-1.3,1.9c-1.1,0.2-2-0.1-2.2-1.4c-0.1-0.9,0.4-1.6,1.3-1.9
			C407.8,967.8,408.4,968.5,408.7,969.5z"/>
		<path fill="#BD8C73" d="M427.7,933.6c0.1,1-0.4,1.6-1.3,1.7c-1,0.1-1.9-0.4-2-1.6c-0.1-0.9,0.5-1.6,1.3-1.7
			C426.9,931.8,427.5,932.5,427.7,933.6z"/>
		<path fill="#BD8D73" d="M414.8,954.4c-0.2,1.1-0.8,1.8-1.9,1.7c-0.8-0.1-1.5-0.7-1.4-1.7c0.1-1.1,0.9-1.7,2-1.6
			C414.3,952.8,414.8,953.5,414.8,954.4z"/>
		<path fill="#C19277" d="M469.9,971.9c-1.4,0-2.2-0.7-2.2-1.7c-0.1-1.1,0.8-1.9,1.8-1.9c0.9,0,1.5,0.6,1.7,1.5
			C471.6,971,470.6,971.4,469.9,971.9z"/>
		<path fill="#D8B28D" d="M364.5,668.5c-33.8,0-67.7-0.1-101.5,0.1c-4.9,0-6.1-1.5-6.1-6.2c0.2-28,0.2-56,0-84c0-4.5,1.1-6,5.8-6
			c67.8,0.1,135.6,0.1,203.5,0c4.7,0,5.9,1.5,5.8,6c-0.2,28-0.2,56,0,84c0,4.7-1.2,6.3-6.1,6.2C432.2,668.5,398.3,668.5,364.5,668.5
			z"/>
		<path fill="#BF9077" d="M465.4,678.4c-67.2,0-134.5,0-201.7,0c0-0.2,0-0.3,0-0.5c67.2,0,134.5,0,201.7,0
			C465.4,678,465.4,678.2,465.4,678.4z"/>
		<path fill="#BF9077" d="M465.3,564.4c-67.2,0-134.5,0-201.7,0c0-0.2,0-0.3,0-0.5c67.2,0,134.5,0,201.7,0
			C465.4,564,465.3,564.2,465.3,564.4z"/>
		<path fill="#C29579" d="M306,828.6c1.4-1.3,3.1-1,4.7-1c21.9,0,43.7,0,65.6,0c1.6,0,3.3-0.3,4.7,1l0,0
			C356,828.5,331,828.5,306,828.6L306,828.6z"/>
		<path fill="#C29479" d="M381,866.5c-0.7,0.3-1.5,0.9-2.2,0.9c-18.1,0.1-36.1,0-54.2-0.9C343.4,866.5,362.2,866.5,381,866.5
			L381,866.5z"/>
		<path fill="#C4987B" d="M381,866.5c0-12.7,0-25.3,0-38l0,0c1.2,1.2,1,2.8,1,4.2c0,9.8,0,19.7,0,29.5
			C382,863.8,382.2,865.3,381,866.5L381,866.5z"/>
		<path fill="#C4987B" d="M306,828.5c0,12.1,0,24.2,0,36.3c-0.3,0-0.7,0-1,0c0-6.7-0.2-13.4,0.1-20.1
			C305.3,839.3,303.9,833.8,306,828.5L306,828.5z"/>
		<path fill="#C4977A" d="M320.6,868.2c-1.1,2.7-2.3,3.7-4.3,4.9C316.8,870.7,318.2,869.8,320.6,868.2z"/>
		<path fill="#C89C7E" d="M313.6,875.8c-1.1,1.6-2.1,2.6-3.2,1.7c-0.9-0.8,0.1-1.3,1-1.4C312,876,312.4,876,313.6,875.8z"/>
		<path fill="#D8B28D" d="M439.1,841.5c-6.7,0-13.3-0.1-20,0c-3,0-4.2-0.6-3.4-4c1.9-7.9,1.7-8,9.7-8c10,0,20,0,30,0
			c3.9,0,8.7,7.3,7.1,10.8c-0.7,1.6-2.3,1.2-3.5,1.2C452.4,841.6,445.7,841.5,439.1,841.5z"/>
		<path fill="#D8B28D" d="M439.2,873.6c6,0,12,0.1,18,0c3.2-0.1,4.3,1.5,3.6,4.3c-2,8.6,0.7,7.6-8.6,7.7c-9.6,0.1-19.3,0-28.9,0
			c-5,0-6.3-1.9-6.2-8.7c0-4.6,3.4-3.2,5.7-3.3C428.3,873.4,433.8,873.5,439.2,873.6z"/>
		<path fill="#D8B28D" d="M209.4,820.6c5.2,0,10.3,0.1,15.5-0.1c2.9-0.1,4.3,1.1,4.6,3.9c1.6,15.4-2.5,28.9-13,40.3
			c-1.4,1.6-2.8,1.4-4.4,0.3c-9.2-6.5-18.4-13.1-27.6-19.6c-2.2-1.5-2.5-3.1-0.8-5.4c3.6-4.6,5.1-10,5.3-15.8c0.1-2.9,1.3-3.8,4-3.7
			C198.4,820.6,203.9,820.6,209.4,820.6z"/>
		<path fill="#D8B28D" d="M172.5,844.2c-12.6,8.9-29.7,2.7-35.8-12.3c-4.5-10.9,1.9-25.9,12.7-30.7c11.5-5.1,25.2-1.5,31.5,9
			c2.8,4.6,2.4,5.3-2.8,5.3c-4.3,0-8.7,0.3-13-0.1c-4.9-0.5-6.5,2.1-7,6.3c-1,8.8,2.8,16.2,10.9,20.7
			C169.9,843,171,843.5,172.5,844.2z"/>
		<path fill="#D2AA87" d="M130.8,823.6c-0.7,0.3-1.1,0.7-1.4,0.6c-0.3-0.1-0.5-0.6-0.7-0.9c0.3-0.2,0.6-0.5,0.8-0.4
			C129.8,822.9,130.2,823.2,130.8,823.6z"/>
		<path fill="#D8B28D" d="M345.5,956.5c-6,0-12-0.1-18,0c-2.7,0.1-4.2-0.7-5.3-3.3c-2.2-5.6-6.5-9.1-12.2-10.9
			c-3.5-1.1-5.5-6.1-3.9-9.1c0.9-1.7,2-0.6,2.9-0.2c10,5.6,19.4,4.3,28.4-2.4c1.6-1.2,10.1,1.2,10.7,2.9c0.5,1.5-0.9,2-1.6,2.8
			c-0.8,1.1-2.9,1.8-1.4,3.6c1.8,2.1,2.8-0.4,4.1-1c0.4-0.2,0.8-0.5,1.3-0.8c1.8-1.3,3.8-4.1,5.9-2c2.4,2.4-1.6,3.1-2.5,4.8
			c-0.5,1-1.9,1.6-0.9,3c1.2,1.5,2.2,0.7,3.3-0.2c1.5-1.3,3.1-2.5,4.7-3.8c0.9-0.7,1.9-1.9,3-0.9c1.3,1.2-0.3,1.9-0.9,2.8
			c-0.1,0.1-0.3,0.2-0.3,0.4c-0.8,1.7-4.8,2.4-2.3,4.9c2.2,2.2,3.5-1.4,5.2-2.2c2-0.9,3.1-3.6,5.8-3.4c2.1,0.2,3.4,0.6,1.5,3
			c-2.1,2.6-3.7,5.5-4.3,8.9c-0.5,2.7-2.4,3.2-4.8,3.2C357.8,956.5,351.7,956.5,345.5,956.5z"/>
		<path fill="#D8B28D" d="M265.1,793.9c-1.7-2.2-1-3.8,0.6-5.4c1.2-1.2,2.3-2.4,3.5-3.6c0.8-0.8,1.8-1.7,0.7-2.9
			c-1.4-1.5-2.3-0.4-3.3,0.5c-0.1,0.1-0.2,0.3-0.4,0.3c-1.6,0.7-2.3,4.4-4.5,2.1c-1.8-1.9-0.4-4.4,1.5-6.1c0.7-0.7,1.4-1.4,2.1-2.1
			c0.9-0.9,1.6-1.8,0.4-2.9c-1.2-1.2-2-0.2-3,0.4c-1.3,0.9-2.5,4.1-4.1,1.8c-1.7-2.5-4.7-5.8-2.4-9c7.5-10.5,7.7-20.9,0.5-31.5
			c7.2-2.4,9.1-1.6,11.6,4.7c1.9,4.7,5,8.3,9.7,10.2c2.9,1.2,4,2.7,4,5.9c-0.2,11.8-0.2,23.7,0,35.5c0,3.4-1,5.3-4.5,5.8
			c-2.5,0.4-4.6,1.9-6.7,3.3c-1,0.7-2.2,2.1-3.4,0.5c-0.9-1.1-0.6-2.6,0.2-3.8c1.2-1.6,2.8-2.9,3.9-4.6c0.8-1.2,3-2.4,1.1-4.2
			c-2-1.9-2.8,0.6-3.9,1.5C267.5,791.4,266.4,792.6,265.1,793.9z"/>
		<path fill="#D8B28D" d="M277.1,920.2c-0.1,1.1-0.2,2.5-0.4,3.8c-1.1,6.2-1.2,6.4-7.5,5c-5.9-1.3-4.7,4.4-6.9,6.7
			c-2.2,2.3,0.3,3.7,2.1,5c4.5,3.2,4.6,4,0.3,7.6c-1.4,1.2-2.9,2.3-4.4,3.3c-4.9,3.5-5.5,3.3-7.5-2.4c-0.9-2.5-2.1-3.6-4.8-2.5
			c-1.5,0.6-3.2,1.1-4.8,1.3c-3.8,0.4-5.6,2.3-5.1,6.3c0.4,3.7-1.1,4.5-4.7,3.7c-4.4-1-8.6-2.1-12.8-4.1c-3.5-1.7-4.7-3.3-1.8-6.5
			c1.7-1.9,2.1-3.8,0.6-6.3c-2.1-3.3-4.3-4.5-7.6-1.7c-3.6,3.1-5.7,1.9-7.4-2.1c-1.3-3.2-2.9-6.3-3.4-9.9c-0.4-3.1,0.3-4.6,3.6-3.5
			c4.4,1.5,5.1-0.4,5.7-4.5c0.7-5.2-0.2-8.1-5.7-9c-2.7-0.4-2.6-2.5-1.6-4.7c1.7-3.8,3.8-7.4,6.4-10.7c1.6-2.1,2.9-2.8,5.2-0.8
			c1.9,1.7,4.1,3.6,7.1,2.7c5.6-1.6,6.3-3.3,3.7-8.8c-1.3-2.8-1.1-4.3,2.2-4.9c3.6-0.7,7.1-1.7,10.8-1.8c2.8-0.1,4.1,1,3.2,3.9
			c-0.9,3-0.8,5.6,2.8,6.9c3.8,1.3,7.3,1.8,9-2.9c1.7-4.4,4.1-3.2,6.8-1.2c1.3,1,2.7,2,4,3c5.1,4.1,5.3,5.5,0.9,10.3
			c-3.3,3.7-0.6,6.9,0.7,10.1c1.3,2.9,4,2,6,0.9c3.5-1.8,4.5,0.2,4.9,3C277,917.1,276.9,918.6,277.1,920.2z"/>
		<path fill="#D8B28D" d="M407,726.7c0-8.7,0.1-17.3-0.1-26c-0.1-3.8,0.9-5.4,5-5.3c11.5,0.3,23,0.2,34.5,0c3.5,0,4.6,1.2,4.6,4.7
			c-0.1,18-0.1,36,0,54c0,3.1-0.9,4.5-4.2,4.5c-11.8-0.1-23.7-0.1-35.5,0c-3.3,0-4.4-1.2-4.3-4.4C407.1,745,407,735.9,407,726.7z"/>
		<path fill="#D8B28D" d="M505,731.7c-0.1,7.5-6.8,14-14.2,13.8c-7.5-0.2-14-7-13.7-14.3c0.3-7.3,6.7-13.6,14-13.6
			C498.5,717.6,505.1,724.3,505,731.7z"/>
		<path fill="#D8B28D" d="M79,890.6c0,8,0,16,0,23.9c0,5.3-0.7,5.7-5.9,4.2c-0.5-0.1-1-0.3-1.4-0.4c-9.6-3.1-9.7-3.3-7.4-12.8
			c2.7-11.2,2.4-22.4-0.3-33.5c-1.5-6.1-1.1-7,4.9-9.2c11.6-4.1,10.2-2.7,10.2,6.8C79,876.6,79,883.6,79,890.6z"/>
		<path fill="#D8B28D" d="M83,889.9c0-8.2,0-16.3,0-24.5c0-5.1,0.5-5.4,5.6-3.9c1.3,0.4,2.5,0.8,3.8,1.3c5.8,2.3,6,2.8,4.1,8.8
			c-3.8,12-3.1,23.9,0.9,35.7c2.1,6.2,1.7,7.1-4.4,9.7c-9.6,4.1-10,3.8-10-6.6C83,903.5,83,896.7,83,889.9z"/>
		<path fill="#D8B28D" d="M110.1,891.2c0.2,5.1-1.8,10.5-4.9,15.5c-1.7,2.6-3.5,3.1-4.7-0.4c-3.9-11.1-4.1-22.4-0.9-33.7
			c1-3.5,2.5-2.9,4.3-0.7C108.3,877.2,110.1,883.4,110.1,891.2z"/>
		<path fill="#D8B28D" d="M59.4,909.9c-10.3-8.6-11.3-29.3-2.2-38.1c1.8-1.8,2.8-1.9,3.7,0.7C64.1,882,63.5,899.9,59.4,909.9z"/>
		<path fill="#D8B28D" d="M569.7,950.6c-13.9,5.5-27.8,10.9-41.7,16.4c-2,0.8-3.5,0.4-4.5-1.6c-2.1-4.2-4.2-8.4-6.3-12.5
			c-1.2-2.4-0.5-3.3,2.1-3.3c16.8,0,33.6,0,50.4,0C569.7,949.9,569.7,950.2,569.7,950.6z"/>
		<path fill="#D8B28D" d="M569.6,944.5c-16.8,0-33.6,0-50.4,0c-2.7,0-3.3-1-2.1-3.3c0.2-0.3,0.3-0.6,0.5-0.9
			c6.8-14.7,6.7-14.6,21.9-8.5c10,4,20.1,7.8,30.2,11.7C569.7,943.8,569.7,944.2,569.6,944.5z"/>
		<path fill="#D5AD8A" d="M513.8,957c2.1,1.5,2.5,3.1,3,5.4C513.1,961.6,512.6,960,513.8,957z"/>
		<path fill="#D5AD8A" d="M514.2,936.9c-1.5-1.9-1.6-3.3,0.1-4.4c0.7-0.4,1.8-0.9,2,0C516.7,934.2,515.7,935.5,514.2,936.9z"/>
		<path fill="#D8B28D" d="M621,932.1c0-19.7,17-36.6,36.7-36.5c19.6,0.2,36.2,16.9,36.2,36.5c0,19.7-17,36.6-36.7,36.5
			C637.7,968.4,621,951.6,621,932.1z"/>
		<path fill="#D0A786" d="M70,964.6c-4.1,5-4.1,5-10.5-4.2C63.4,963.4,66.1,966,70,964.6L70,964.6z"/>
		<path fill="#CFA584" d="M91,948.5c3.1-4.3,7.8-6.4,12.1-9.2C99.5,943,95.7,946.3,91,948.5L91,948.5z"/>
		<path fill="#CFA685" d="M54,953.6c-1.9-1.3-3.6-2.7-5.1-6.1C51.7,949.6,53.5,951,54,953.6L54,953.6z"/>
		<path fill="#D0A786" d="M75,960.6c-1.2,1.9-2.6,3.6-5,4c0,0,0,0,0,0C71.2,962.6,72.6,960.9,75,960.6L75,960.6z"/>
		<path fill="#D0A785" d="M79,957.5c0.9-1.6,2.1-2.8,4-3l0,0C82.1,956.2,81,957.4,79,957.5L79,957.5z"/>
		<path fill="#D0A785" d="M87,951.5c0.9-1.6,2.1-2.8,4-3c0,0,0.1,0.1,0.1,0.1C90.1,950.2,88.9,951.4,87,951.5L87,951.5z"/>
		<path fill="#D0A786" d="M75,960.5c0.9-1.6,2.1-2.8,4-3c0,0,0,0,0,0C78.1,959.2,77,960.4,75,960.5C75,960.6,75,960.5,75,960.5z"/>
		<path fill="#D0A785" d="M87,951.6c-0.9,1.6-2.1,2.8-4,3c0,0,0,0,0,0C83.9,952.9,85.1,951.7,87,951.6C87,951.5,87,951.6,87,951.6z"
			/>
		<path fill="#CEA483" d="M54,953.5c1,0.5,1.8,1.2,2.4,2.5C54.5,956,54.2,954.8,54,953.5C54,953.6,54,953.5,54,953.5z"/>
		<path fill="#D8B28D" d="M348.2,724.6c17.6,0.1,32.8,15.5,32.8,33c-0.1,17.8-15.6,33.1-33.4,32.9c-17.5-0.2-32.8-15.9-32.5-33.3
			C315.3,739.5,330.6,724.5,348.2,724.6z"/>
		<path fill="#D8B28D" d="M163,891.8c3.1,3.1,4,6,4,9.2c0,3.5-0.2,7,0.1,10.5c0.4,4.1-1.4,5.2-5.2,5.1c-2.1-0.1-6.1-1.2-6,1.2
			c0.1,3.1,4,1.1,6.2,1.6c0.6,0.2,1.3,0,2,0.1c1.1,0.1,2.6-0.1,2.5,1.6c-0.1,1.3-1.4,1.3-2.4,1.3c-3,0.1-6,0-9,0.1
			c-1.1,0-2.7-0.1-2.6,1.5c0.1,1.5,1.6,1.4,2.7,1.4c1.5,0.1,3,0,4.5,0c7.7,0,7.7,0,7.2,7.9c-0.4,6.9-5.3,12.3-12.1,13.1
			c-7,0.8-13.2-3.1-15.2-9.4c-1.1-3.3-0.2-4.7,3.3-4.6c2.2,0.1,4.3,0.1,6.5,0c1.2-0.1,3.1,0.4,3-1.6c-0.1-1.5-1.7-1.3-2.8-1.3
			c-2.5-0.1-5,0-7.5-0.1c-1.1,0-2.6,0.1-2.7-1.5c-0.1-1.3,1.2-1.3,2.2-1.5c1-0.2,2.1-0.3,1.9-1.7c-0.1-1-1.1-1.2-1.9-1.2
			c-2.2-0.2-2.6-1.6-2.6-3.5c0-6.7-0.1-13.3,0.1-20c0.1-2.8,0.9-5.5,4-8.1c0,3.9,0,7,0,10.1c0,0.8,0.2,1.8,1.2,1.9
			c1.4,0.2,1.6-1,1.6-1.9c0.1-3.3,0.2-6.7,0-10c-0.1-2.8,1.5-4.1,3.9-4.2c3-0.1,2,2.5,2.1,4.1c0.2,2.7-0.1,5.3,0.1,8
			c0.1,1.5-0.9,4,1.6,3.9c1.9,0,1.3-2.3,1.3-3.7c0.1-3,0-6,0.1-9c0-1.2-0.5-3,1.5-3.1c1.7,0,3.3,0.7,3.4,2.9c0.1,3.5,0,7,0.1,10.5
			c0,1.1-0.1,2.6,1.6,2.5c1.3-0.1,1.3-1.4,1.3-2.3C163,898.7,163,895.8,163,891.8z"/>
		<path fill="#D8B28D" d="M406.2,801.5c9.8,1.1,19.7-1.9,29.4,1.7c2,0.7,3.6,0.1,4.7-1.6c0.9-1.4,0.8-2.9-0.2-4.2
			c-1.3-1.6-2.8-1.9-4.9-1.2c-9.2,3.1-18.8,0.8-28.1,1.4c-0.7,0-1.5-0.3-1.4-1c0-0.5,0.6-1.3,1.1-1.5c9.3-3,18.2-7.7,27.9-9.2
			c5.2-0.8,10.1,2,12.3,6.9c2.1,4.6,2.4,9.9-0.9,14.2c-3.4,4.3-7.9,6.7-13.6,4.9c-8.8-2.8-17.6-5.8-26.4-8.8
			C406,802.5,406.1,802,406.2,801.5z"/>
		<path fill="#D8B28D" d="M511,821.5c-4.1-6-9.4-8.8-16.9-8.1c-6.6,0.6-13.3,0-20,0.2c-4.1,0.1-6.2-1.5-6.2-5.8
			c0.1-6.2,0.1-12.3,0-18.5c-0.1-4,1.7-5.8,5.7-5.7c12.5,0.1,25,0.1,37.5,0c4.3,0,6,2,5.8,6.1c-0.1,4.3,0,8.7,0,13
			c0,4.3,0.6,8.6-3,12.1c-1.5,1.5-1,3.8-0.9,5.8C513.1,822.3,512.2,822.3,511,821.5z"/>
		<path fill="#C89D7F" d="M511,821.5c0.7-0.3,1.4-0.6,2-1c0.6,0.6,1.2,1.5,0.4,2.1C512.4,823.2,511.7,822.3,511,821.5z"/>
		<path fill="#D8B28D" d="M571.7,868.3c-5.2,1.3-7.7-0.7-8.7-5.9c-0.8-3.9-2.1-7.9-4.2-11.1c-3.5-5.3-0.7-14.3,4.8-18.7
			c5.2-4,13-4,18.1,0.1c6,4.8,7.6,12,4.5,18.7c-1.6,3.3-3.2,6.6-4.2,10.1C580.3,866.9,577.7,870.1,571.7,868.3z"/>
		<path fill="#BC8B72" d="M364.7,598.4c-0.5,1.9-1.8,2.7-2.9,3.6c-16.1,12.5-32.2,25-48.4,37.5c-1.3,1-3.1,3-4.6,0.7
			c-1.3-1.9,0.9-3,2.1-3.9c16.4-12.7,32.7-25.4,49.2-38.1c1-0.8,2.1-1.8,3.6-1.1C364.1,597.4,364.4,598.1,364.7,598.4z"/>
		<path fill="#BC8B72" d="M366.8,648.2c-0.3-0.3-1-0.6-1.2-1.1c-0.6-1.4,0.4-2.2,1.3-2.9c4.3-3.4,8.7-6.7,13.1-10
			c10.6-8,21.2-16,31.8-24c0.5-0.4,1-0.9,1.6-1.2c1.3-0.7,2.7-2,3.9-0.2c1,1.5-0.4,2.5-1.4,3.3c-2.9,2.3-5.8,4.5-8.7,6.7
			c-12.1,9.1-24.1,18.2-36.2,27.3C369.8,647,368.7,648,366.8,648.2z"/>
		<path fill="#BC8B72" d="M418.7,617.4c-0.4,1.7-1.5,2.5-2.6,3.3c-10.4,7.7-20.7,15.4-31.2,23.1c-1.2,0.9-2.9,2.5-4.2,0.4
			c-1.1-1.7,0.7-2.8,1.8-3.6c10.6-8,21.3-15.9,31.9-23.7c0.9-0.7,2-1.5,3.2-0.8C418.1,616.5,418.4,617.1,418.7,617.4z"/>
		<path fill="#BC8B72" d="M147.2,811.6c3.6,0.1,6.9,3.6,6.7,7.2c-0.1,3.6-3.6,6.9-7.2,6.7c-3.6-0.1-6.9-3.6-6.7-7.2
			C140.2,814.7,143.6,811.5,147.2,811.6z"/>
		<path fill="#BC8B72" d="M238.3,940.5c-10.2,0.1-19.2-8.8-19.2-19c0-10,8.7-18.9,18.7-19c10.2-0.1,19.2,8.8,19.2,19
			C257,931.5,248.3,940.4,238.3,940.5z"/>
		<path fill="#BB8B72" d="M657.4,912.6c10.8-0.1,19.7,8.8,19.6,19.6c0,10.6-8.8,19.3-19.4,19.4c-10.8,0.1-19.7-8.8-19.6-19.6
			C638,921.4,646.8,912.6,657.4,912.6z"/>
		<path fill="#BC8B72" d="M479.4,795.7c1.8,0.3,3.2,1.3,3.3,3.2c0.1,2.1-1.3,3.5-3.4,3.4c-1.8-0.1-3.1-1.4-3.1-3.3
			C476.3,797.1,477.6,796.1,479.4,795.7z"/>
		<path fill="#BC8B72" d="M495.8,798.9c-0.2,1.9-1.2,3.2-3,3.4c-2.1,0.2-3.5-1.2-3.5-3.3c0-1.8,1.3-3.1,3.2-3.2
			C494.3,795.8,495.4,797.1,495.8,798.9z"/>
		<path fill="#BC8B72" d="M505.4,795.7c1.8,0.3,3.2,1.3,3.3,3.1c0.1,2.1-1.3,3.5-3.4,3.4c-1.8-0.1-3.1-1.4-3.1-3.3
			C502.3,797.2,503.6,796.1,505.4,795.7z"/>
		<path fill="#D8B28D" d="M238.1,936.6c-8.8,0-15.1-6.2-15.1-14.9c0-8.8,6.2-15.1,14.9-15.1c8.8,0,15.1,6.2,15.1,14.9
			C253,930.2,246.9,936.5,238.1,936.6z"/>
		<path fill="#D8B28D" d="M657.5,916.6c8.3,0,15.6,7.4,15.5,15.7c-0.1,8.1-7.3,15.2-15.5,15.2c-8.3,0-15.6-7.4-15.5-15.7
			C642.2,923.7,649.4,916.6,657.5,916.6z"/>
	</g>
</g>
</svg>
