<?xml version="1.0" encoding="utf-8"?>
<!-- Generator: Adobe Illustrator 18.1.1, SVG Export Plug-In . SVG Version: 6.00 Build 0)  -->
<svg version="1.1" id="Layer_1" xmlns="http://www.w3.org/2000/svg" xmlns:xlink="http://www.w3.org/1999/xlink" x="0px" y="0px"
	 viewBox="-60 0 1188.3 753" enable-background="new -60 0 1188.3 753" xml:space="preserve">
<g>
	<g>
		<path fill="#EFD0A2" d="M154.4,753.8c-50.4,0-100.8,0-151.2,0.1c-3.3,0-4-0.6-4-4c0.1-248.7,0.1-497.4,0-746.1
			c0-3.8,1.1-4.1,4.4-4.1c393.8,0.1,787.6,0.1,1181.5,0c3.3,0,4.4,0.3,4.4,4.2c-0.1,248.7-0.1,497.4,0,746.1c0,3.4-0.8,4-4.1,4
			c-56.6-0.1-113.2-0.1-169.8-0.1c-3.3-1.6-3.5-4.9-4.5-7.8c-10.2-30.2-29.7-52.3-58.4-66.1c-11.1-5.3-22.9-8.6-35.3-9.8
			c-10.4-1-11-2.1-7.6-11.9c6.9-19.9,9.9-40.4,8.5-61.3c-2.5-36.6-15.3-69.3-39.4-97.4c-25.3-29.4-57.3-47.2-95.2-54.4
			c-17.1-3.3-34.4-3.6-51.7-0.9c-11.3,1.7-12.1,0.8-8.8-9.9c10.7-34.6-2.2-69.4-32.8-88.7c-6.4-4.1-6.5-4.7-3.7-11.9
			c12.7-31.9,8.2-61.5-13.5-87.8c-18-21.9-42.2-31.5-70.3-30.1c-39.7,2-73.2,33.9-78.4,73.5c-0.5,3.9-0.7,7.8-0.9,11.7
			c-0.2,5.4-2.3,7.1-7.6,6.3c-10.2-1.5-20.4-2.7-30.8-2.3c-39.1,1.6-73.2,15.3-101.8,42.3c-26.2,24.8-41.4,55.1-46.9,90.6
			c-1.5,9.9-1.7,19.9-1.4,29.8c0.2,7.3-1.3,8.7-8.7,6.9c-13.4-3.2-27-4.9-40.8-4.7c-40.7,0.5-77,13.4-108.4,39.4
			c-33.3,27.7-53.6,63.1-60.1,106c-7.2,47.8,4.2,91.1,33.1,129.9C152.2,747.8,155.3,749.9,154.4,753.8z"/>
		<path fill="#D9B38F" d="M154.4,753.8c-18.7-22.5-31.6-47.9-37.5-76.7c-3.4-16.5-4.4-33.1-3-50.1c2.8-35,15.3-66,36.9-93.4
			c19.2-24.4,43.5-42.2,72.4-53.6c23.1-9.1,47.2-12.9,72-11.8c11.1,0.5,22.1,2,32.8,4.9c5.6,1.5,5.5,1.4,5.2-4.4
			c-1.2-24.9,2.9-48.8,12.9-71.7c13.2-30.5,34.3-54.3,62.6-71.5c20.2-12.3,42.2-19.5,66-21.6c14.5-1.3,28.7-0.7,42.8,1.9
			c3.6,0.7,4.2-1,4.2-4c-0.3-17.5,4.5-33.6,14-48.2c14.3-22.1,34.8-34.9,60.8-38.8c23.7-3.6,45.1,2.4,64.2,16.5
			c19.5,14.4,30.4,34,33.9,58c2.5,16.9-0.3,32.8-7.5,48.1c-1.3,2.8-0.7,3.8,1.8,5.3c27.8,16.6,40.9,41.3,39.8,73.5
			c-0.3,7.8-2.2,15.5-5.1,22.9c-1.5,3.6-1.7,4.8,3.1,4c39.1-6.5,76.3-0.2,110.6,19.7c41.7,24.2,68,60.4,79,107.3
			c7.2,30.8,5.1,61.3-5.5,91.1c-2,5.6-1.9,5.9,3.8,6.5c14.9,1.7,29.2,5.3,42.6,12.3c29.3,15.5,48.4,39.2,57.4,71.1
			c0.3,0.9,0.6,1.8,1,2.8c-202.6,0-405.2,0-607.8,0c-1.3-0.9-2.6-0.6-3.9,0C320.7,753.8,237.6,753.8,154.4,753.8z"/>
		<path fill="#DFC5B4" d="M403.8,753.8c1.3-0.7,2.6-2.6,3.9,0C406.5,753.8,405.1,753.8,403.8,753.8z"/>
		<path fill="#BC8B72" d="M647.3,401.2c0,15.4,0,30.8,0,46.1c0,9.3-4.5,13.8-13.9,13.8c-24.1,0-48.1,0-72.2,0
			c-5.3,0-5.4,0.2-3.6,5.1c1.9,5.2,3.6,10.5,5.5,15.7c0.9,2.5,1.1,5.6,4.9,5.9c0.8,0.1,1.4,0.8,1.3,1.8c-0.1,0.9-0.8,1.4-1.6,1.6
			c-0.8,0.2-1.6,0.2-2.4,0.2c-17.5,0-35,0-52.5,0c-0.7,0-1.3,0-2-0.1c-1.2-0.1-2.4-0.5-2.3-2c0-1.2,1-1.8,2-1.7
			c3.1,0.1,3.6-2.2,4.3-4.4c2-5.7,3.8-11.5,6.1-17.1c1.6-4,1.1-5.3-3.6-5.3c-24.7,0.2-49.4,0.1-74.1,0.1c-10.4,0-14.7-4.2-14.7-14.6
			c0-30.6,0-61.2,0-91.8c0-10,4.4-14.4,14.4-14.4c63.5,0,127,0,190.5,0c9.7,0,14.1,4.4,14.1,14.1
			C647.3,370.1,647.3,385.6,647.3,401.2z"/>
		<path fill="#BC8B72" d="M517.2,599.6c10.5,0,20.9,0,31.4,0c7.9,0,10.3,2.3,10.4,10.1c0,9,0,18,0,27c0,7.6-2.4,10.1-9.9,10.1
			c-14.5,0-29.1,0.2-43.6-0.1c-5.5-0.1-9.8,1-13.2,5.5c-2.4,3.2-5.8,5.2-9.2,7.3c-1.5,0.9-3,1.8-4.5,0.4c-1.3-1.2,0.1-2.4,0.5-3.5
			c1.8-4.4,4.1-8.7-1.7-12.2c-1.8-1.1-1.9-3.6-1.9-5.8c0-10-0.1-19.9,0-29.9c0.1-5.9,2.8-8.6,8.8-8.6
			C495.3,599.5,506.3,599.6,517.2,599.6z"/>
		<path fill="#BC8B72" d="M610.6,689.9c-5.6,0-11.1-0.1-16.7,0c-3.5,0.1-5.3-0.8-5.7-4.8c-1.7-18-3.8-35.9-5.8-53.9
			c-0.2-1.6-0.8-3.2-0.7-4.8c0.1-3.4-1.5-4.6-4.8-4.4c-1.8,0.2-4,0-3.9-2.5c0.1-2.5,2.4-2.6,4.1-2.3c5.2,0.9,6.5-1.9,7.6-6.3
			c2.9-11.4,0.1-9.3,11.8-9.4c11.4-0.1,22.9,0.1,34.3-0.1c3.2-0.1,4.8,1,5.3,4.2c0.3,1.8,1.1,3.5,1.3,5.2c0.5,4.5,2.2,7.4,7.4,6.5
			c1.5-0.3,3.1,0.3,3.2,2.2c0.1,2.2-1.6,2.7-3.4,2.6c-3.2-0.3-4.1,1.2-4.4,4.2c-1.4,14.7-3.1,29.5-4.7,44.2
			c-0.6,5.3-1.4,10.7-1.9,16c-0.3,2.8-2,3.4-4.4,3.4C623,689.9,616.8,689.9,610.6,689.9z"/>
		<path fill="#BC8B72" d="M409.8,606.9c-0.6,13.8-4.9,26.2-14.7,36.4c-2.9,3.1-5.5,4.1-9.6,1c-9.2-7.1-18.9-13.4-28.3-20.2
			c-1.9-1.4-3.2-1.5-5.2-0.4c-16.6,9.3-33.9,3.4-41.6-14.3c-1.6-3.7-5.1-4.3-8.1-5.7c-1.9-0.9-4.3-1.2-4.4-3.9
			c-0.1-2.8,2.3-3.3,4.3-4c4.6-1.5,7.3-4.3,9.6-8.8c5.2-10.1,14-15.9,25.7-15.7c11.8,0.2,20.1,6.4,25.2,16.6c1.7,3.3,3.5,4.1,6.7,4
			c10.6-0.1,21.3,0.1,31.9-0.1c4.8-0.1,7.4,1.1,7.6,6.4C409.2,601,409.8,603.9,409.8,606.9z"/>
		<path fill="#BC8B72" d="M521.3,735.1c-14.1,0-28.1,0-42.2,0c-5.7,0-6.1-0.6-3.2-5.4c0.8-1.4,0.6-2.8,0.6-4.3c0-7.4,0-14.7,0-22.1
			c0-1.6-0.3-3.5,1.7-4.2c1.9-0.7,2.4,1.2,3.4,2.2c7.2,7.2,19.2,7.5,27.6,0.2c2.5-2.1,4.1-1.9,6.9-0.9c13.4,5.1,27,9.9,40.5,14.7
			c1.8,0.7,3.7,1.3,5.5,2.1c7.7,3.4,7.6,3.7,7.7,12.2c0.1,4.5-1.8,5.5-5.9,5.5C549.7,735,535.5,735.1,521.3,735.1z"/>
		<path fill="#BC8B72" d="M461.8,553.5c0,13.7,0.1,27.5-0.1,41.2c0,2.5,1.3,5.9-2.8,6.8c-5.8,1.3-10.8-0.1-12.7-3.5
			c-3.5-6.4-5.4-13.3-7.8-20.1c-3.7-10.5-6.8-21.1-11.6-31.2c-0.9-1.9-0.3-2.8,0.9-4.2c8-8.8,7.9-19.5-0.2-28.6
			c-1-1.1-2.3-2.1-1.7-3.8c0.7-2,2.6-1.7,4.2-1.7c7,0,14.1,0,21.1,0c2.4,0,4.5-0.1,6.7-1.9c2.9-2.4,3.9,0.3,3.9,2.9
			c0.1,6.2,0,12.4,0,18.6C461.8,536.5,461.8,545,461.8,553.5z"/>
		<path fill="#BC8B72" d="M391.4,716.9c-2.3,0-4.1,1.2-5.6,2.5c-2.6,2.1-4.4,1.2-6-1.2c-4-6.1-6.5-12.8-7.3-20.1
			c-0.4-3.9,0.5-6.2,5.1-4.7c1.6,0.5,3.8,1.4,4.4-1.2c0.6-2.4-1.5-2.9-3.2-3.5c-6.1-2.3-6.3-2.7-3.7-8.8c2.3-5.5,5.5-10.3,9.2-15
			c2.4-3,4.5-3.1,7.2-0.6c0.9,0.9,1.9,1.8,3,2.5c0.8,0.6,1.9,0.7,2.7,0c1-0.8,0.5-1.7,0.2-2.7c-0.7-2.1-3.4-4.3-2.2-6.2
			c1.7-2.6,5.2-3.2,8.2-4c5.1-1.4,10.3-1.5,15.5-1.4c3.2,0,4,1.5,3.3,4.3c-0.3,1.1-0.5,2.2-0.6,3.4c-0.1,1.1-0.2,2.4,1.3,2.8
			c1.1,0.3,1.8-0.5,2.4-1.3c0.1-0.1,0.2-0.3,0.3-0.4c4.8-6.1,4.8-6.2,11.5-1.9c4.6,2.9,8.3,6.8,11.5,11.2c1.6,2.2,1.8,4.1-1.2,5.4
			c-1,0.4-1.9,1.3-2.8,2c-1.4,1.2-1.9,2.7-0.8,4.3c1.1,1.6,2.3,0.5,3.4,0.1c6.7-2.2,6.4-2.2,7.8,5c1.3,6.3,0.6,12.3-1,18.4
			c-0.8,3.1-2.1,4.2-5.1,2.9c-1-0.4-2.2-0.7-3.3-0.9c-1.4-0.3-2.7,0-3.3,1.5c-0.5,1.2,0.1,2.2,1,3c0.1,0.1,0.2,0.2,0.4,0.3
			c5.6,5.2,5.7,5.5,0.1,11.2c-4.2,4.2-9.4,7-14.6,9.7c-2.6,1.3-3.5-0.4-3.8-2.7c-0.3-1.9-0.3-4.1-2.2-5.2c-2.5-1.5-5.4,0.9-5.6,4.4
			c-0.3,5.9-0.8,6.4-6.6,6c-7.5-0.5-14.2-3.4-20.5-7.3c-2.8-1.7-3.7-4.1-1.2-6.9C390.3,720.5,391.8,719.3,391.4,716.9z"/>
		<path fill="#BC8B72" d="M662.6,546.6c-8.5,0-17,0-25.5,0c-5.5,0-5.7-0.4-4.5-5.6c1.3-6.1,5-9.7,11.1-10.9c1.3-0.3,2.6-0.4,3.8-0.8
			c6.4-1.8,6.7-2.9,2.2-7.4c-6.8-6.8-7-17.9-0.4-24.8c6.4-6.7,17.4-7.2,24.4-1.2c7.1,6.1,8,17.4,1.9,24.8c-4.9,6-4.3,7.4,3.8,9.1
			c9.2,1.9,11.8,4.6,13.4,12.5c0.7,3.7-0.7,4.3-3.7,4.3C680.2,546.5,671.4,546.6,662.6,546.6z"/>
		<path fill="#BC8B72" d="M575.7,505.4c0-10.6,0-21.2,0-31.9c0-6.7,2.6-9.3,9.1-9.4c10.9-0.1,21.9-0.1,32.8,0c6.5,0,9.1,2.7,9.1,9.3
			c0,21.2,0,42.5,0,63.7c0,6.7-2.6,9.3-9.1,9.4c-10.9,0.1-21.9,0.1-32.8,0c-6.5,0-9.1-2.7-9.1-9.3
			C575.6,526.6,575.7,516,575.7,505.4z"/>
		<path fill="#BC8B72" d="M291.9,665c0,17.9-14.9,32.8-32.8,32.8c-18,0-32.9-14.8-32.9-32.7c-0.1-18.2,14.9-33.1,33.1-33.1
			C277.1,632,291.9,647,291.9,665z"/>
		<path fill="#BC8B72" d="M696.1,695.9c4.2,1.7,9,3.7,13.9,5.6c13.5,5.3,27,10.6,40.6,15.8c1.7,0.6,3.6,1,3.7,3.3
			c0.1,2.6-1.9,3.1-3.7,3.8c-17.5,6.8-34.9,13.7-52.4,20.6c-2.7,1.1-5,1.5-6.6-1.7c-1.6-3.2-5.2-3-8-4.2c-3.8-1.6-5.1-3.5-3.6-7.9
			c2.3-6.8,2.3-14,0-20.8c-1.5-4.4-0.1-6.3,3.7-7.8c3.4-1.4,7.4-1.7,9.1-5.9C693.2,695.8,694.4,695.9,696.1,695.9z"/>
		<path fill="#BC8B72" d="M865.3,706.3c0,21.6-18.2,39.6-39.7,39.6c-21.9-0.1-39.9-18-39.8-39.9c0-21.7,18.2-39.6,40.2-39.6
			C847.4,666.4,865.3,684.6,865.3,706.3z"/>
		<path fill="#BC8B72" d="M211.5,714.8c1.9,0.7,3.1,2.5,4.4,4.1c3.9,4.4,7.7,8.9,11.6,13.2c0.8,0.9,1.8,2.5,3.2,1.4
			c1.6-1.3-0.2-2.4-0.8-3.3c-1.7-2.4-3.6-4.6-5.5-6.9c-1.7-2.1-1.3-4,0.6-5.6c2-1.7,3.9-1.2,5.6,0.7c1.2,1.3,2.5,2.6,3.7,3.9
			c4.7,5.3,4.7,5.3,10.4,0.7c6.1-4.9,12.3-9.7,18.5-14.5c1.4-1.1,3-2.7,4.5-0.5c1.5,2.1-0.4,3.2-1.8,4.3
			c-7.2,5.6-14.4,11.3-21.6,16.9c-1.3,1-2.9,1.8-1.1,3.8c1.6,1.8,2.8,2,4.9,0.4c9.5-7.5,19.2-14.7,28.8-22c0.5-0.4,1-0.9,1.5-1.2
			c2.3-1.6,4.5-2,6.5,0.4c1.9,2.4,0.8,4.3-1.2,5.9c-7.5,5.8-15,11.6-22.5,17.3c-4,3.1-8.1,6.1-12,9.3c-3.1,2.4-5.8,2.7-8.5-0.6
			c-1-1.3-2.4-2.3-3.4-3.6c-1.4-1.9-2.9-2.7-4.7-0.7c-2.5,2.7-4.5,1.7-6.5-0.6c-5.4-6.1-10.8-12.2-16.3-18.3c-0.9-1-1.6-2.1-0.7-3.5
			C209.6,715,210.3,714.6,211.5,714.8z"/>
		<path fill="#BC8B72" d="M521.9,498.5c20,0.1,36.2,16.6,36.1,36.8c-0.1,19.7-16.6,35.9-36.5,35.9c-20,0-36.2-16.6-36.1-36.8
			C485.4,514.6,501.9,498.4,521.9,498.5z"/>
		<path fill="#BC8B72" d="M347.9,691.4c0,5.1,0.1,10.1,0,15.2c-0.2,10.1-8.1,17.8-17.9,17.7c-9.6-0.1-17.3-7.7-17.4-17.7
			c-0.1-10.1-0.1-20.3,0-30.4c0.1-10.1,8.1-17.8,17.9-17.7c9.6,0.1,17.2,7.8,17.4,17.7C347.9,681.3,347.9,686.3,347.9,691.4z"/>
		<path fill="#BC8B72" d="M624.7,576.3c0,3.9,0,7.8,0,11.8c0,1.3-0.2,2.7-1.6,3.3c-1.5,0.6-2.5-0.1-3.1-1.5c-1-2.4-2.1-0.6-3-0.1
			c-6.4,3.7-12.8,3.7-19.7,0.7c-6.1-2.6-12.5-4.8-18.9-6.6c-5.4-1.5-4.6-5.5-4.7-9.4c-0.2-3.6,0.3-6.2,4.5-7.4
			c7.2-2.1,14.2-4.8,21.2-7.4c5.2-2,10.2-1.9,15.2,0.3c2.3,1,4.1,3.2,7.2,0.7c1.7-1.4,2.8,1.3,2.9,3.2
			C624.8,568.1,624.7,572.2,624.7,576.3z"/>
		<path fill="#BC8B72" d="M663.6,556.4c6.2,0,12.4,0,18.6,0c6.6,0.1,9.2,2.6,9.3,9.1c0.1,5.9-0.1,11.8,0,17.6
			c0.1,3.4-0.4,6.3-2.8,9.1c-2.7,3.2,0.1,6.4,0.9,9.6c0.3,1.3,2.1,2.6,0.6,3.9c-1.5,1.3-3,0.4-4.5-0.5c-3.7-2.2-7.1-4.7-9.8-8
			c-2.4-3-5.4-3.8-9-3.7c-7.3,0.2-14.7,0.1-22,0.1c-6.6,0-9.3-2.6-9.3-9.1c-0.1-6.4-0.1-12.7,0-19.1c0.1-6.3,2.7-9,8.9-9.1
			C650.8,556.3,657.2,556.4,663.6,556.4z"/>
		<path fill="#BC8B72" d="M525.1,590.7c-3.8,0-7.5,0-11.3,0c-1.2,0-2.4-0.4-2.4-1.8c0-1.5,1.2-1.8,2.4-1.9c1-0.1,2-0.1,2.9-0.1
			c6-0.1,6.7-1,6-6.9c-0.2-2-1.1-2.8-3.1-2.9c-8.5-0.7-16.3-3.3-23.2-8.4c-2.2-1.6-3.4-0.9-5,0.7c-1.6,1.6-3.3,3.2-5,4.6
			c-0.9,0.7-2,1.2-3.1,0.2c-1.2-1.2-0.8-2.4,0.2-3.5c2.2-2.2,4.3-4.5,6.6-6.5c2.5-2.2,4.8-1,7,0.8c5.6,4.8,12.2,7.3,19.5,8.5
			c20,3.2,40.5-11.9,43.5-32c1.8-11.7-0.7-22.2-8.3-31c-3.3-3.8-2.9-6.2,0.9-8.9c1.2-0.8,2.1-2.1,3.2-3c0.9-0.8,2-1.1,3.1-0.2
			c1.1,1,1,2.4,0.1,3c-7,4.9-2.3,9.4,0.1,14.3c12.6,24.8-1.1,54.4-28.2,60.3c-5.3,1.2-4.2,4.4-4.3,7.6c-0.2,4.3,3,3.1,5.4,3.5
			c2.3,0.4,6.5-1.5,6.5,1.9c0,3.3-4.2,1.6-6.6,1.9C529.7,591,527.4,590.8,525.1,590.7C525.1,590.7,525.1,590.7,525.1,590.7z"/>
		<path fill="#BC8B72" d="M474.5,676.1c4.1-6.1,9.5-8.3,17-8c14.4,0.6,28.8,0.2,43.2,0.2c5.7,0,6.5-0.9,6.6-6.5c0-3.1,0-6.2,0-9.3
			c0-1.2,0.2-2.4,1.8-2.5c1.8-0.1,2.1,1.2,2.1,2.6c0,4.3,0.2,8.5-0.1,12.8c-0.3,4.6-3.5,6.9-9,6.9c-15.7,0-31.4,0.1-47.1-0.1
			c-3.6,0-6.3,0.8-8.6,3.5c-2.9,3.6-6.7,6.2-10.7,8.5c-1.2,0.7-2.5,1.1-3.7,0.2c-1.5-1.1-0.3-2.4,0.2-3.5c1.7-4,4.2-8-2-10.8
			c-2.3-1.1-2.5-4-2.5-6.6c0-10-0.1-20,0-29.9c0.1-5.7,3.8-9.1,9-8.5c1.2,0.1,2.4,0.2,2.5,1.7c0.1,1.5-0.8,2.2-2.1,2.1
			c-5.2-0.1-5.6,3.2-5.6,7.2c0.1,8.5,0.1,17,0,25.5c0,3.2,0.4,5.7,4,6.9c3.2,1,3,3.9,2.8,6.6C472.6,676.9,472.6,676.9,474.5,676.1z"
			/>
		<path fill="#BC8B72" d="M885.9,708.6c0-11,0-21.9,0-32.9c0-1.3,0.8-3.4-1.2-3.8c-1.5-0.3-1.9,1.5-2.4,2.7
			c-2.9,7.1-5.8,14.3-7,21.9c-1.3,7.4,1.4,13.8,5.6,19.8c0.8,1.2,2.7,2.7,0.4,4.1c-1.8,1.1-2.6-0.8-3.4-1.9
			c-6.1-8.2-8.3-17.3-5.2-27.3c2.1-6.5,4.5-13,6.8-19.4c0.9-2.5,2.6-4.4,5.4-4.1c2.9,0.3,4.6,2.1,4.6,5.3c-0.1,1.9,0.4,3.9,0.4,5.8
			c0,20.4,0,40.9,0,61.3c0,1.3,0,2.6-0.1,3.9c-0.1,1.2-0.4,2.4-1.9,2.3c-1.5-0.1-1.7-1.3-1.8-2.5c-0.1-1.1-0.1-2.3-0.1-3.4
			C885.9,729.8,885.9,719.2,885.9,708.6z"/>
		<path fill="#BC8B72" d="M330,747.8c-4.6,0-9.2,0-13.7,0c-1.7,0-3.5-0.3-3.4-2.6c0.1-1.9,1.6-2.2,3.2-2.3c2.1,0,4.3,0.1,6.4-0.1
			c2.1-0.2,5.1,1.4,5.8-2.6c1.1-6.4,0.1-9.7-3.9-10.9c-9.1-2.8-14.7-8.7-17.1-17.8c-0.3-1.2-0.5-2.6-0.5-3.9c0-1.7,0-3.7,2.3-3.6
			c2.1,0.1,1.5,2.2,1.6,3.5c1.2,15,16.2,23.3,29.4,16.2c6.4-3.5,9.6-9.1,10-16.4c0.1-1.6-0.6-4.3,2.1-4.1c2.4,0.2,1.7,2.8,1.7,4.4
			c-0.1,8.6-6.8,17.7-15.5,20.8c-4.4,1.6-7.1,9.2-4.8,13.1c0.7,1.2,1.9,1.2,3,1.2c2.6,0,5.2,0,7.9,0.1c1.6,0,3.1,0.4,3.2,2.3
			c0.1,2.2-1.6,2.6-3.4,2.6C339.4,747.9,334.7,747.8,330,747.8z"/>
		<path fill="#BC8B72" d="M741.2,647.7c-0.2,0-0.3,0-0.5,0c-10.2-0.1-9.5,1.4-11.8-9.2c-1-4.6-4.3-8-5.3-12.6
			c-1.9-8.8,1.2-16.7,8.9-21.5c7.1-4.4,15.6-3.6,22.3,2.1c6.1,5.2,8.5,14.9,5,22.4c-2.4,5.2-5.2,10.2-6.8,15.7
			c-0.7,2.4-2.4,3.3-4.9,3.2C745.8,647.6,743.5,647.7,741.2,647.7z"/>
		<path fill="#BC8B72" d="M686,655.6c5.5,0,10.3,4.7,10.4,10.2c0,5.5-4.7,10.3-10.2,10.4c-5.5,0-10.3-4.7-10.4-10.2
			C675.8,660.4,680.5,655.6,686,655.6z"/>
		<path fill="#BC8B72" d="M772,723.6c0-3.4,0-6.9,0-10.3c0-4.8,0.7-9.6-4.3-13c-1.9-1.2-2.6-4.1-2.5-6.7c0-5.7,0-11.4,0-17.2
			c0-1.5-0.3-3.7,2.1-3.6c1.9,0.1,1.8,2.1,1.8,3.5c0,5.4,0.2,10.8,0,16.2c-0.1,3.1,0.9,5.6,3.5,7.1c3.1,1.7,3.5,4.2,3.5,7.3
			c-0.1,11.1,0,22.2-0.1,33.3c0,1.6,0.5,4.2-2.2,4c-2.1-0.1-1.7-2.5-1.7-4C772,734.7,772,729.2,772,723.6z"/>
		<path fill="#BC8C73" d="M686.9,629c6.5-0.4,12.9,2.9,19.1,6.5c1.1,0.6,2,1.7,2.6,2.8c0.6,1.1,0,2.3-0.7,3.2
			c-0.8,1-1.8,0.2-2.6-0.2c-1.1-0.6-2.2-1.4-3.3-2.1c-11.5-7.1-24.3-6.6-35.3,1.4c-1.7,1.3-3.5,3.3-5.4,0.8
			c-1.9-2.5,0.6-3.7,2.2-4.9C670.2,631.4,677.6,628.9,686.9,629z"/>
		<path fill="#BC8C73" d="M685.5,637.9c6.8-0.4,12,2.6,17,6c1.7,1.2,2.4,2.9,1,4.6c-1.4,1.8-2.8,0.7-4.2-0.3c-9-6.4-18-6.7-27.2-0.4
			c-1.7,1.2-4,3.1-5.6,0.8c-1.7-2.5,0.9-4.3,2.8-5.4C674.4,640.3,679.5,637.2,685.5,637.9z"/>
		<path fill="#BD8C73" d="M699.1,653.8c-0.4,2.1-2.2,3.2-3.8,2c-7-4.8-13.5-4.8-20.1,0.6c-1.1,0.9-2.2,0.3-3-0.6
			c-0.7-0.7-1.1-1.7-0.3-2.6c3.6-4.1,8-6.5,13.6-6.5c5.4,0,9.7,2.1,13.3,6C699,653,699,653.3,699.1,653.8z"/>
		<path fill="#BC8B72" d="M741.7,653.5c-3.1,0-6.2,0.1-9.3,0c-1.2,0-2.3-0.6-2.1-2.1c0.1-1.1,1.1-1.6,2.1-1.6c6.3-0.1,12.7-0.1,19,0
			c1.2,0,2.4,0.4,2.4,1.9c0,1.5-1.2,1.9-2.4,1.9C748.2,653.6,745,653.5,741.7,653.5C741.7,653.5,741.7,653.5,741.7,653.5z"/>
		<path fill="#BC8B72" d="M742.4,659.5c-3.1,0-6.2,0-9.3,0c-1.3,0-2.8-0.2-2.8-2c0-1.4,1.3-1.8,2.5-1.8c6.2,0,12.3,0,18.5,0
			c1.2,0,2.4,0.3,2.5,1.7c0.1,1.8-1.4,2-2.7,2.1C748.2,659.5,745.3,659.5,742.4,659.5z"/>
		<path fill="#BC8B72" d="M775.9,682.7c0,2.8,0.1,5.5,0,8.3c0,1.2-0.4,2.4-1.9,2.4c-1.5,0-1.8-1.2-1.9-2.4c0-5.4,0-10.7,0-16.1
			c0-1,0.5-2,1.6-2.1c1.5-0.2,2,0.9,2.1,2.2C775.9,677.5,775.9,680.1,775.9,682.7C775.9,682.7,775.9,682.7,775.9,682.7z"/>
		<path fill="#BC8B72" d="M782.8,683.2c0,2.6,0.1,5.2,0,7.8c0,1.2-0.4,2.4-1.9,2.3c-1.5,0-1.8-1.2-1.8-2.4c-0.1-5.2-0.1-10.4,0-15.6
			c0-1.2,0.3-2.5,1.7-2.6c1.8-0.1,2.1,1.3,2.1,2.7C782.8,678,782.8,680.6,782.8,683.2C782.8,683.2,782.8,683.2,782.8,683.2z"/>
		<path fill="#C19277" d="M621.5,718c-1-0.3-1.9-0.9-1.9-1.9c0-1.3,0.9-2.1,2.3-1.8c1,0.2,1.8,0.9,1.6,2.1
			C623.4,717.4,622.6,718,621.5,718z"/>
		<path fill="#C09176" d="M627.5,723.3c-0.3,1-1,1.7-2.1,1.5c-1-0.2-1.6-1.1-1.4-2.2c0.2-1.2,0.9-2.1,2.3-1.6
			C627.3,721.3,627.6,722.3,627.5,723.3z"/>
		<path fill="#C09176" d="M584.3,735.4c0,1.1-0.5,2-1.5,2.1c-1.4,0.2-2-0.8-2-2c0-1,0.6-1.8,1.7-1.9
			C583.6,733.6,584.1,734.4,584.3,735.4z"/>
		<path fill="#C09176" d="M658.7,742.2c1,0.1,1.9,0.6,1.9,1.7c0,1.4-1,1.9-2.2,1.8c-1-0.1-1.8-0.8-1.7-1.9
			C656.8,742.7,657.6,742.3,658.7,742.2z"/>
		<path fill="#BF9076" d="M651.8,746.7c-0.1,1.2-0.7,1.8-1.8,1.9c-1.1,0.1-2-0.4-2.2-1.4c-0.3-1.4,0.7-2.1,1.9-2.1
			C650.8,745.1,651.6,745.7,651.8,746.7z"/>
		<path fill="#BF8F75" d="M632.2,730.3c-0.3,1.1-1,1.7-2.1,1.6c-1.1-0.1-1.7-1-1.7-2c0-1.2,0.9-1.6,2-1.5
			C631.5,728.5,632.1,729.2,632.2,730.3z"/>
		<path fill="#BE8E74" d="M606,703.7c0,0.9-0.5,1.6-1.4,1.6c-1.1,0-1.9-0.5-1.9-1.7c0-1.2,0.9-1.7,2-1.7
			C605.5,702.1,606,702.8,606,703.7z"/>
		<path fill="#BD8E74" d="M611,706.4c-0.9,0.1-1.6-0.3-1.8-1.3c-0.2-1.1,0.1-2,1.4-2.1c0.9-0.1,1.6,0.4,1.9,1.3
			C612.8,705.4,612.1,706,611,706.4z"/>
		<path fill="#BE8E74" d="M595,713.4c0.1,1.2-0.5,1.8-1.4,1.9c-1.1,0.1-2-0.2-2-1.5c0-0.9,0.5-1.6,1.4-1.8
			C594.2,711.8,594.8,712.6,595,713.4z"/>
		<path fill="#BE8E74" d="M616.9,711.3c-0.9,0.1-1.6-0.3-1.8-1.3c-0.2-1.1,0.1-2,1.4-2.1c0.9-0.1,1.6,0.4,1.9,1.3
			C618.6,710.3,618,710.9,616.9,711.3z"/>
		<path fill="#BF8F75" d="M591.1,720.5c0,1.1-0.6,1.6-1.5,1.7c-1.1,0.1-1.9-0.4-1.9-1.6c0-0.9,0.6-1.6,1.5-1.7
			C590.3,718.8,590.9,719.5,591.1,720.5z"/>
		<path fill="#BE8E74" d="M678.5,726c-0.1,1-0.7,1.8-1.9,1.7c-0.9-0.1-1.5-0.7-1.5-1.6c-0.1-1.3,0.7-1.7,1.8-1.7
			C677.8,724.5,678.4,724.9,678.5,726z"/>
		<path fill="#BE8E74" d="M636.4,737c0,0.9-0.4,1.6-1.3,1.7c-1.1,0.1-1.9-0.5-2-1.7c0-1.2,0.8-1.8,1.9-1.7
			C636,735.4,636.4,736.1,636.4,737z"/>
		<path fill="#BE8F74" d="M665.8,740.7c-1.1-0.1-1.6-0.7-1.6-1.6c0-1.1,0.5-1.9,1.7-1.8c0.9,0.1,1.5,0.6,1.6,1.5
			C667.5,740.1,666.8,740.6,665.8,740.7z"/>
		<path fill="#BF8F75" d="M581.3,743.2c0.1,1-0.5,1.5-1.4,1.6c-1.1,0.1-2-0.3-2-1.6c0-0.9,0.6-1.6,1.4-1.7
			C580.5,741.3,581.1,742,581.3,743.2z"/>
		<path fill="#BD8D73" d="M587.2,728.1c-0.2,1.1-0.7,1.8-1.9,1.7c-0.8-0.1-1.5-0.7-1.4-1.6c0.1-1.1,0.8-1.7,1.9-1.7
			C586.8,726.5,587.3,727.1,587.2,728.1z"/>
		<path fill="#BD8D73" d="M598.5,709.4c-1-0.1-1.8-0.5-1.8-1.7c0-0.9,0.6-1.5,1.4-1.6c1.1-0.1,1.7,0.6,1.8,1.7
			C600.1,708.7,599.5,709.2,598.5,709.4z"/>
		<path fill="#BF8F75" d="M642.8,743.5c-0.4,1.2-1,2-2.2,1.7c-0.8-0.2-1.5-0.8-1.5-1.7c0-1.1,0.8-1.8,1.9-1.8
			C642.1,741.7,642.6,742.6,642.8,743.5z"/>
		<path fill="#BC8C73" d="M671.4,734.4c-1.1-0.3-1.5-1.1-1.3-2.2c0.2-0.8,0.6-1.5,1.6-1.3c0.8,0.2,1.5,0.8,1.5,1.6
			C673.2,733.6,672.5,734.3,671.4,734.4z"/>
		<path fill="#C99D7F" d="M474.5,676.1c-0.6,0.8-1.4,1.7-2.4,1.1c-0.9-0.6-0.2-1.4,0.3-2C473.1,675.5,473.8,675.8,474.5,676.1z"/>
		<path fill="#D9B38F" d="M538.1,353.1c33.1,0,66.1,0.1,99.2-0.1c5.1,0,6.3,1.5,6.2,6.4c-0.2,27.5-0.2,55,0,82.5
			c0,4.2-1,5.6-5.5,5.6c-66.8-0.1-133.5-0.1-200.3,0c-4.4,0-5.5-1.4-5.5-5.6c0.2-27.5,0.2-55,0-82.5c0-4.9,1.1-6.4,6.2-6.4
			C471.7,353.2,504.9,353.1,538.1,353.1z"/>
		<path fill="#C09177" d="M438.8,344.5c66,0,132.1,0,198.1,0c0,0.2,0,0.3,0,0.5c-66,0-132.1,0-198.1,0
			C438.8,344.8,438.8,344.6,438.8,344.5z"/>
		<path fill="#C09177" d="M636.9,457c-66,0-132.1,0-198.1,0c0-0.2,0-0.3,0-0.5c66,0,132,0,198.1,0
			C636.9,456.7,636.9,456.9,636.9,457z"/>
		<path fill="#C39579" d="M480.4,604.5c1.3-1.3,3-1,4.6-1c21.5,0,42.9,0,64.4,0c1.6,0,3.3-0.3,4.6,1l0,0
			C529.5,604.5,505,604.5,480.4,604.5L480.4,604.5z"/>
		<path fill="#C39579" d="M554.1,641.8c-0.7,0.3-1.5,0.9-2.2,0.9c-17.7,0.1-35.5,0-53.2-0.9C517.1,641.8,535.6,641.8,554.1,641.8
			L554.1,641.8z"/>
		<path fill="#C5987B" d="M554.1,641.8c0-12.4,0-24.9,0-37.3c0,0,0,0,0,0c1.1,1.2,1,2.7,1,4.1c0,9.7,0,19.4,0,29.1
			C555,639.1,555.2,640.6,554.1,641.8L554.1,641.8z"/>
		<path fill="#C5987B" d="M480.4,604.5c0,11.9,0,23.8,0,35.6c-0.3,0-0.7,0-1,0c0-6.6-0.2-13.2,0.1-19.8
			C479.7,615.1,478.3,609.7,480.4,604.5L480.4,604.5z"/>
		<path fill="#C4987B" d="M490.6,647.5c0.7-1.6,1.8-2.7,2.6-3C492.6,645.1,491.6,646.3,490.6,647.5z"/>
		<path fill="#C89D7E" d="M488,650.9c-1.2,1.5-2.2,2.6-3.2,1.7c-0.9-0.8,0.1-1.3,1.1-1.4C486.3,651.1,486.8,651.1,488,650.9z"/>
		<path fill="#D9B38F" d="M610.5,617.3c-6.4,0-12.7-0.1-19.1,0c-3,0-4-0.7-3.2-4c1.8-7.8,1.7-7.8,9.4-7.8c10,0,19.9,0,29.9,0
			c3.7,0,8.3,7.4,6.7,10.6c-0.8,1.5-2.3,1.1-3.5,1.1C623.9,617.3,617.2,617.3,610.5,617.3z"/>
		<path fill="#D9B38F" d="M611,648.7c5.9,0,11.8,0.1,17.6,0c3.4-0.1,4.2,1.4,3.8,4.5c-0.9,7.3-0.9,7.3-8.2,7.3c-9.5,0-19,0-28.4,0
			c-5.3,0-6.2-1.2-6.4-8.3c-0.2-4.9,3.4-3.4,5.9-3.5C600.5,648.6,605.8,648.7,611,648.7z"/>
		<path fill="#D9B38F" d="M405.8,606.5c-0.5,12.3-4,23.4-12.4,32.7c-2,2.2-3.4,2.6-6.1,0.6c-8.1-6.1-16.4-11.9-24.8-17.6
			c-3-2.1-4.6-3.9-1.6-7.3c3.2-3.7,4.4-8.5,4.5-13.2c0-4.4,1.9-5.1,5.6-5c9.2,0.2,18.3,0.1,27.5,0.1c6.3,0,6.8,0.5,7.2,6.9
			C405.8,604.5,405.8,605.5,405.8,606.5z"/>
		<path fill="#D9B38F" d="M349.3,620c-8.5,6.7-23.9,4.4-30.6-4.4c-12.1-15.8-4.8-35.9,14.7-40.1c9.2-2,20.9,4,25,12.4
			c1.3,2.6,1.1,3.9-2.2,3.8c-4.9-0.1-9.8,0.2-14.7-0.1c-4.5-0.3-5.7,2.2-6.2,5.7C333.8,606.9,338.3,614.3,349.3,620z"/>
		<path fill="#D3AA88" d="M307.1,600.4c-0.2-0.2-0.5-0.5-0.8-0.8c0.3-0.2,0.7-0.5,1-0.7c0.2,0,0.6,0.3,0.7,0.5
			C308.2,600,307.8,600.2,307.1,600.4z"/>
		<path fill="#D9B38F" d="M519.2,730.2c-5.9,0-11.8-0.1-17.6,0c-2.6,0.1-4.2-0.7-5.2-3.3c-2.2-5.5-6.4-8.9-12-10.7
			c-3.4-1.1-5.4-5.9-3.8-8.9c0.9-1.7,2-0.7,2.8-0.2c9.8,5.5,19.1,4.2,27.9-2.3c1.6-1.2,10,1.1,10.6,2.8c0.6,1.9-1.3,2.4-2.1,3.5
			c-0.7,0.9-1.9,1.6-0.8,2.9c1.2,1.5,2.2,0.6,3.3-0.3c1.6-1.3,3.3-2.6,5.1-3.7c1-0.6,2.4-0.5,3.2,0.4c1.1,1.3-0.3,2-1,2.8
			c-0.4,0.5-1,0.9-1.4,1.4c-0.8,1-2.8,1.8-1.1,3.5c1.7,1.7,2.5-0.3,3.6-1c0.4-0.2,0.8-0.6,1.2-0.8c2.2-0.9,3.6-5.4,6.2-2.8
			c1.3,1.3-2.6,2.9-3.8,4.7c-0.7,1-1.5,1.8-0.4,2.9c1.2,1.2,2,0.4,2.9-0.4c1.7-1.5,3.6-2.8,5.2-4.4c1.6-1.6,3.5-1.4,4.8-0.2
			c1.6,1.3-0.6,2.1-1.1,3.1c-0.8,1.6-2.4,3.1-2.5,4.7c-0.7,6.3-4.7,6.7-9.7,6.4C528.7,729.9,523.9,730.2,519.2,730.2z"/>
		<path fill="#D9B38F" d="M440.1,570.5c-2.2-3.9,1.1-5.2,2.5-7.4c0.9-1.4,4.3-2.2,2-4.5c-2-2-2.8,1.1-4.2,1.8
			c-1.1,0.6-1.7,3.1-3.4,1.5c-1.3-1.2-1.1-3.1-0.1-4.5c1.1-1.4,2.4-2.7,3.6-4c0.7-0.8,1.3-1.5,0.5-2.5c-1-1.1-1.8-0.7-2.9,0
			c-1.4,0.8-2.4,4.6-4.3,1.8c-1.6-2.4-4.5-5.6-2.2-8.8c7.4-10.3,7.5-20.5,0.4-30.9c7.5-2.2,8.8-1.6,11.7,5.2
			c1.9,4.4,4.9,7.8,9.3,9.6c2.8,1.1,3.9,2.6,3.9,5.8c-0.2,11.6-0.2,23.2,0,34.8c0,3.3-0.9,5.2-4.4,5.7c-2.6,0.4-4.8,2-7,3.5
			c-0.8,0.5-1.6,2.3-2.8,1c-1.1-1.2-1.6-2.9-0.3-4.4c1.7-2,3.3-4,5-6c0.9-1.1,1.1-2-0.1-2.9c-1-0.8-1.8-0.2-2.5,0.5
			C443.4,567.3,441.9,568.8,440.1,570.5z"/>
		<path fill="#D9B38F" d="M452,694.1c-0.2,1.6-0.4,3-0.5,4.5c-0.3,4.7-2,6.6-7.1,4.8c-6.2-2.2-4.9,4.6-7.2,7c-2,2.1,0.9,3.2,2.4,4.3
			c4.2,2.8,4.4,3.8,0.4,7.1c-2.2,1.9-4.7,3.5-7.1,5.1c-2.6,1.7-4.3,1.1-4.6-2.2c-0.3-4-2.1-5.6-6.2-3.8c-1.2,0.5-2.5,0.8-3.8,0.9
			c-3.6,0.4-5.2,2.2-4.8,5.8c0.5,3.8-1.2,4.8-4.9,4c-4.3-0.9-8.4-2.3-12.5-4.2c-3.5-1.7-4.6-3.3-1.5-6.4c2.1-2.1,1.9-4.1,0.1-6.5
			c-2.2-3-4.4-3.6-7.2-1.1c-3.3,2.8-5.5,1.9-6.9-2c-0.9-2.3-2.1-4.5-2.8-6.8c-2-6.4-1.8-6.6,4.8-6.1c2.3,0.2,3.4-0.6,3.4-2.9
			c0-1.3-0.2-2.7,0.2-3.9c1.3-3.7-0.1-5.5-3.7-6.2c-4.2-0.8-5-3-2.8-6.6c0.9-1.5,1.6-3.2,2.5-4.8c4.1-6.7,4.3-7,11.1-3.2
			c3.8,2.2,6.3-0.3,8.8-1.9c2.6-1.7,0.2-3.9-0.8-5.5c-2.1-3.6-0.6-5,2.8-5.7c2.2-0.4,4.5-1,6.7-1.3c5.8-0.7,6.2-0.3,5.8,5.6
			c-0.2,2.7,0.8,4.5,3.5,5c2.7,0.6,5.5,2.2,7.6-1.6c3.2-5.6,3.5-5.5,8.6-1.6c1.4,1.1,2.9,2.2,4.2,3.3c3.1,2.8,4.5,5.4,0.1,8.5
			c-4.3,3.1-1.3,6.9,0.1,10.1c1.4,3.2,4.1,1.9,6.3,0.9c2.8-1.4,3.9-0.1,4.4,2.4C451.8,690.9,451.9,692.6,452,694.1z"/>
		<path fill="#D9B38F" d="M675.8,509.4c-0.1,7.3-6.7,13.7-14,13.5c-7.4-0.2-13.7-6.9-13.4-14.1c0.3-7.2,6.6-13.3,13.7-13.3
			C669.4,495.6,675.9,502.2,675.8,509.4z"/>
		<path fill="#D9B38F" d="M622.8,505.1c0,8.7-0.1,17.3,0,26c0.1,3.2-0.7,4.8-4.3,4.7c-11.6-0.2-23.2-0.1-34.8,0c-2.9,0-4.1-1-4.1-4
			c0.1-18,0.1-36,0-54c0-3,1.2-4,4.1-4c11.6,0.1,23.2,0.1,34.8,0c3.6-0.1,4.4,1.5,4.3,4.7C622.7,487.4,622.8,496.2,622.8,505.1z"/>
		<path fill="#C09177" d="M620.2,468.8c-12.7,0-25.4,0-38,0c0-0.2,0-0.3,0-0.5c12.7,0,25.4,0,38,0
			C620.2,468.5,620.2,468.7,620.2,468.8z"/>
		<path fill="#C09177" d="M582.2,541.8c12.7,0,25.4,0,38,0c0,0.2,0,0.3,0,0.5c-12.7,0-25.4,0-38,0
			C582.2,542.2,582.2,542,582.2,541.8z"/>
		<path fill="#D9B38F" d="M257.5,664.9c0,8,0,16,0,24c0,5.2-0.7,5.6-5.8,4.1c-1.1-0.3-2.2-0.7-3.3-1.1c-7.3-2.6-7.5-3.1-5.7-10.4
			c2.8-11.5,3-23-0.1-34.4c-1.3-4.9-0.1-7.2,4.4-9c10-3.9,10.5-3.6,10.5,7C257.5,651.8,257.5,658.3,257.5,664.9z"/>
		<path fill="#D9B38F" d="M261.5,664.9c0-8.3,0.1-16.7,0-25c0-3.4,1.1-4.6,4.4-3.3c0.9,0.4,1.9,0.6,2.8,0.9
			c7.7,2.6,7.8,2.7,5.7,10.5c-3.2,11.9-2.8,23.6,1.8,35c1.5,3.8,0.5,5.9-3,7.4c-0.1,0.1-0.3,0.1-0.4,0.2
			c-10.2,5.2-11.3,4.6-11.3-6.7C261.5,677.6,261.5,671.3,261.5,664.9z"/>
		<path fill="#D9B38F" d="M278.9,644.5c10.4,7.2,12.2,26,4.2,36.9c-1.1,1.6-2.8,3.6-4.1,0.2C274.3,669.3,274.3,657,278.9,644.5z"/>
		<path fill="#D9B38F" d="M238.4,684.7c-10.1-9.1-11.2-27.8-2.7-37.2c0.8-0.9,1.5-2.5,3.1-1.9c1.2,0.5,1,1.9,1.2,3
			C242.6,660.6,242.6,672.5,238.4,684.7z"/>
		<path fill="#D9B38F" d="M739.4,724.3c-13.7,5.4-27.5,10.8-41.2,16.2c-2.1,0.8-3.4,0.1-4.3-1.8c-2-4.1-4.1-8.2-6.1-12.2
			c-1.3-2.5-0.2-3.2,2.2-3.2c16.5,0,32.9,0,49.4,0C739.3,723.7,739.4,724,739.4,724.3z"/>
		<path fill="#D9B38F" d="M739.5,718.4c-3.3,0-6.5,0-9.6,0c-13,0-26.1-0.1-39.1,0c-3.7,0-4.1-1-2.6-4.2c6.8-14.4,6.7-14.4,21.5-8.4
			c9.8,3.9,19.7,7.7,29.5,11.6C739.2,717.5,739.3,717.7,739.5,718.4z"/>
		<path fill="#D5AE8B" d="M687.4,706.2c-0.8,1.8-0.6,3.9-2.8,4.2c-0.2,0-0.8-1-0.8-1.5C683.7,706.7,685.1,706.1,687.4,706.2z"/>
		<path fill="#D5AE8B" d="M685.1,730.8c1.2,1.6,2,2.8,2,4.3C683.2,734.7,683.1,734.7,685.1,730.8z"/>
		<path fill="#D9B38F" d="M825.5,741.9c-19.4,0-36-16.7-35.8-36.1c0.2-19.2,16.6-35.6,35.8-35.5c19.4,0,36,16.7,35.8,36.1
			C861.2,725.7,844.7,742,825.5,741.9z"/>
		<path fill="#D1A887" d="M248.7,738.1c-4,4.9-4,4.9-10.3-4.1C242.2,736.9,244.9,739.4,248.7,738.1L248.7,738.1z"/>
		<path fill="#D0A685" d="M269.3,722.3c3-4.2,7.7-6.3,11.9-9.1C277.7,716.8,273.9,720.1,269.3,722.3L269.3,722.3z"/>
		<path fill="#D0A786" d="M233,727.3c-1.9-1.2-3.4-2.8-4.3-4.9C230.7,723.4,232.5,724.7,233,727.3L233,727.3z"/>
		<path fill="#D1A887" d="M253.6,734.2c-1.2,1.8-2.6,3.5-4.9,3.9c0,0-0.1-0.1-0.1-0.1C249.9,736.2,251.2,734.5,253.6,734.2
			L253.6,734.2z"/>
		<path fill="#D1A887" d="M261.5,728.3c-0.9,1.6-2,2.7-3.9,2.9l-0.1-0.1C258.4,729.6,259.6,728.4,261.5,728.3L261.5,728.3z"/>
		<path fill="#D1A887" d="M265.4,725.2c0.9-1.6,2-2.7,3.9-3c0,0,0.1,0.1,0.1,0.1C268.5,723.9,267.3,725.1,265.4,725.2L265.4,725.2z"
			/>
		<path fill="#D1A886" d="M261.4,728.2c0.9-1.6,2-2.7,3.9-2.9c0,0,0.1,0.1,0.1,0.1C264.5,726.9,263.4,728,261.4,728.2
			C261.5,728.3,261.4,728.2,261.4,728.2z"/>
		<path fill="#D1A887" d="M257.6,731.2c-0.9,1.6-2,2.7-3.9,2.9c0,0-0.1-0.1-0.1-0.1C254.5,732.5,255.6,731.4,257.6,731.2
			C257.5,731.1,257.6,731.2,257.6,731.2z"/>
		<path fill="#CEA584" d="M233,727.2c0.9,0.5,1.9,1,2.1,2.5C233.5,729.6,233.2,728.5,233,727.2C233,727.3,233,727.2,233,727.2z"/>
		<path fill="#D9B38F" d="M521.5,567.2c-17.2-0.1-32.2-15.2-32.2-32.4c0.1-17.3,15.1-32.3,32.3-32.3c17.5,0,32.7,15.3,32.4,32.7
			C553.7,552.5,538.8,567.2,521.5,567.2z"/>
		<path fill="#D9B38F" d="M320.4,666.8c0,3.6,0,6.4,0,9.1c0,1.1-0.2,2.6,1.4,2.7c1.6,0.1,1.5-1.4,1.5-2.5c0.1-3.1,0.1-6.2,0-9.3
			c-0.1-2.6,1.2-4.1,3.7-4.1c2.8,0,2.1,2.4,2.1,4.1c0.1,3.3,0,6.5,0.1,9.8c0,1,0.2,2.2,1.5,2.1c1.2,0,1.4-1.2,1.4-2.2
			c0-3.3-0.1-6.5,0.1-9.8c0.1-1.4-0.8-3.7,1.7-3.8c2.5,0,3.2,1.8,3.1,4.1c-0.1,3.1,0,6.2,0,9.3c0,1.1-0.1,2.6,1.6,2.4
			c1.2-0.1,1.2-1.4,1.2-2.3c0-2.9,0-5.7,0-9.3c3.1,2.5,4,5.1,4,8.2c0,3.6-0.2,7.2,0.1,10.8c0.3,3.9-1.2,5.2-5,5.1
			c-2.1-0.1-6-1.6-6,1.6c0,2.4,3.9,0.8,6,1.2c1,0.2,2,0,2.9,0.1c0.9,0.1,1.7,0.4,1.7,1.4c0,1-0.9,1.3-1.7,1.4
			c-2.8,0.1-5.6,0-8.3,0.1c-1.4,0.1-3.6-0.6-3.7,1.3c0,2.4,2.4,1.3,3.9,1.6c0.6,0.1,1.3-0.1,2,0c2.6,0.4,6.5-1.5,7.7,1.2
			c1.5,3.3,1.4,7.5-0.2,11c-2.5,5.4-6.7,8.5-13.1,8.5c-6.2-0.1-10.1-3.2-12.7-8.4c-1.9-3.8-0.9-5.3,3.4-5.4c2.3-0.1,4.6,0,6.9-0.1
			c1,0,2.2-0.2,2.1-1.5c0-1.2-1.2-1.4-2.2-1.4c-2.8-0.1-5.6,0-8.3-0.1c-1,0-2.2-0.1-2.3-1.3c-0.2-1.3,1-1.5,2-1.6
			c1-0.1,2.2-0.3,2.1-1.5c0-1.2-1.2-1.3-2.2-1.4c-2-0.2-2.3-1.5-2.3-3.1c0-7,0-14.1,0.1-21.1C316.6,671.2,317.8,669.2,320.4,666.8z"
			/>
		<path fill="#D9B38F" d="M578.8,577.9c9.7,1.2,19.7-1.9,29.3,1.8c1.8,0.7,3.2-0.3,4.2-1.8c0.9-1.4,0.8-2.8-0.2-4.1
			c-1.1-1.4-2.6-2-4.3-1.4c-9,3.4-18.4,0.8-27.5,1.5c-0.8,0.1-1.8,0-1.9-1c-0.1-0.9,0.6-1.4,1.4-1.7c8.6-3,17.2-6.2,25.9-8.8
			c4.5-1.3,10.3,1.9,12.9,6.1c2.1,3.4,1.9,11.5-0.6,14.5c-3.4,4.1-7.6,6.9-13.3,5c-8.8-2.8-17.5-5.8-26.3-8.7
			C578.6,579,578.7,578.4,578.8,577.9z"/>
		<path fill="#D9B38F" d="M684,598.4c-0.9-0.4-1.5-0.5-1.7-0.8c-5.3-8-13.2-8.4-21.7-7.9c-5.2,0.3-10.5,0-15.7,0.1
			c-3.7,0-5.4-1.6-5.4-5.3c0.1-6.2,0.1-12.4,0-18.6c0-3.6,1.5-5.5,5.2-5.5c12.6,0,25.2,0,37.8,0c3.5,0,5.1,1.7,5.1,5.1
			c0,6.4,0,12.8,0,19.1c0,1.1-0.1,2.6-0.7,3.2C684,590.7,683.2,594.2,684,598.4z"/>
		<path fill="#D9B38F" d="M742.7,643.8c-8.2,0-8.1,0-10.3-7.1c-1.1-3.6-2.5-7.1-4.1-10.5c-2.7-6.1-1.1-12.7,4.6-17.4
			c4.9-4.1,12.6-4.2,17.7-0.4c5.9,4.5,7.9,11.6,5.1,17.7c-1.7,3.7-3.6,7.4-4.7,11.3C749.9,642.5,747.4,645.2,742.7,643.8z"/>
		<path fill="#BC8B72" d="M484.1,420.6c-0.3-0.3-0.9-0.6-1.2-1.1c-0.6-1.1,0.2-1.9,0.9-2.5c2.4-2,4.8-3.9,7.2-5.8
			c13.8-10.7,27.6-21.3,41.4-32c0.6-0.5,1.3-1,2-1.4c1-0.6,2.1-1.2,3.1,0c1,1.2,0.2,2.2-0.7,2.9c-2.4,2-4.8,3.9-7.2,5.8
			c-13.8,10.7-27.6,21.3-41.4,32C487.1,419.3,486,420.3,484.1,420.6z"/>
		<path fill="#BC8B72" d="M540.7,427.7c-0.6-0.4-1.3-0.6-1.6-1.1c-0.7-1-0.1-1.9,0.7-2.6c1.7-1.5,3.5-2.9,5.4-4.3
			c13.2-9.9,26.3-19.9,39.5-29.8c0.4-0.3,0.7-0.7,1.2-0.9c1.2-0.7,2.6-2.1,3.9-0.5c1.4,1.7-0.3,2.7-1.4,3.6c-3.6,2.8-7.3,5.5-11,8.2
			c-11.1,8.4-22.1,16.8-33.2,25.1C543,426.2,541.9,426.9,540.7,427.7z"/>
		<path fill="#BC8B72" d="M591,397.1c-0.3,1.8-1.4,2.5-2.4,3.3c-10.2,7.6-20.4,15.2-30.6,22.7c-1.2,0.9-2.8,2.5-4.2,0.5
			c-1.2-1.7,0.6-2.7,1.7-3.5c10.4-7.8,20.9-15.6,31.4-23.3c0.9-0.7,1.9-1.5,3.1-0.9C590.4,396.2,590.8,396.8,591,397.1z"/>
		<path fill="#BC8B72" d="M331.1,594.9c-0.1,3.4-3.6,6.6-7.2,6.6c-3.1,0-6.4-3.5-6.5-6.8c0-3.4,3.6-7.1,6.9-6.9
			C328,588.1,331.3,591.5,331.1,594.9z"/>
		<path fill="#BC8B72" d="M432.3,696.3c-0.2,9.8-9,18.3-18.8,18.2c-10-0.1-18.7-9.1-18.5-19.1c0.2-10,9.3-18.6,19.3-18.2
			C424.2,677.6,432.5,686.5,432.3,696.3z"/>
		<path fill="#BC8B72" d="M825.6,725.3c-10.6,0-19.3-8.7-19.2-19.4c0.1-10.4,8.7-18.9,19.1-18.9c10.6,0,19.3,8.7,19.2,19.4
			C844.6,716.7,836,725.3,825.6,725.3z"/>
		<path fill="#BC8C73" d="M650.7,578.8c-1.8-0.4-3.1-1.4-3.1-3.2c0-2,1.4-3.4,3.4-3.2c1.8,0.2,3,1.5,2.9,3.3
			C653.8,577.5,652.5,578.5,650.7,578.8z"/>
		<path fill="#BC8C73" d="M676.2,578.8c-1.8-0.4-3.1-1.4-3.1-3.2c0.1-2,1.4-3.4,3.5-3.2c1.8,0.2,3,1.5,2.8,3.4
			C679.3,577.6,678,578.6,676.2,578.8z"/>
		<path fill="#BC8C73" d="M666.8,575.5c-0.3,1.8-1.3,3.2-3.1,3.2c-2,0-3.4-1.3-3.3-3.4c0.1-1.8,1.4-3,3.3-3
			C665.5,572.4,666.5,573.7,666.8,575.5z"/>
		<path fill="#D9B38F" d="M428.4,695.9c0,8.6-6.2,14.7-14.8,14.7c-8.6,0-14.7-6.2-14.7-14.8c0-8.6,6.2-14.7,14.8-14.7
			C422.3,681.1,428.4,687.3,428.4,695.9z"/>
		<path fill="#D9B38F" d="M840.7,706c0.1,8.2-7.2,15.4-15.3,15.3c-8-0.1-15-7.1-15-15.1c-0.1-8.2,7.2-15.4,15.3-15.3
			C833.7,691,840.7,698.1,840.7,706z"/>
	</g>
</g>
</svg>
