<?xml version="1.0" encoding="utf-8"?>
<!-- Generator: Adobe Illustrator 18.1.1, SVG Export Plug-In . SVG Version: 6.00 Build 0)  -->
<svg version="1.1" id="Layer_1" xmlns="http://www.w3.org/2000/svg" xmlns:xlink="http://www.w3.org/1999/xlink" x="0px" y="0px"
	 viewBox="0 0 612 792" enable-background="new 0 0 612 792" xml:space="preserve">
<g>
	<g>
		<path fill="#B43913" d="M253.5,673.2c-0.9,0.1-1.8-0.2-2.7-0.4c-10-2.1-19.9-4.6-29.6-7.6c-10.9-3.5-21.5-7.5-31.8-12.3
			c-12.1-5.5-23.7-11.9-34.8-19.1c-14.5-9.3-28-19.8-40.5-31.6c-4.5-4.2-8.8-8.5-13-13c-10.4-11.1-19.8-23-28.3-35.6
			c-6.3-9.4-12.1-19.2-17.2-29.3c-7.2-14.2-13.2-28.9-17.9-44.1c-2.9-9.3-5.3-18.8-7.2-28.4c-1.5-7.6-2.7-15.2-3.6-22.9
			c-0.6-5.5-1-11-1.4-16.5c-0.4-7.1-0.6-14.1-0.4-21.2c0.1-5.3,0.4-10.5,0.8-15.8c0.3-3.6,0.6-7.2,1-10.7c0.3-2.9,0.7-5.7,1.1-8.6
			c0.6-3.9,1.2-7.8,1.9-11.7c1.2-6.4,2.6-12.7,4.2-19c4.1-16.1,9.7-31.6,16.6-46.7c5.7-12.5,12.4-24.5,19.9-36
			c7.1-10.9,14.9-21.2,23.4-31c4.4-5.1,9-10.1,13.9-14.9c12-11.9,24.9-22.7,38.8-32.3c8.6-6,17.6-11.5,26.8-16.4
			c10.7-5.7,21.7-10.8,33-15.1c8.6-3.3,17.4-6.1,26.3-8.5c6.2-1.7,12.4-3.1,18.7-4.4c3.8-0.8,7.5-1.4,11.3-2c0.3-0.1,0.7,0,1.1,0
			c22.3-3.2,44.6-3.8,67.1-2.1c1.9-0.1,3.8,0.2,5.7,0.4c2.7,0.3,5.5,0.6,8.2,1c2.6,0.4,5.2,0.7,7.8,1.2c4.3,0.7,8.5,1.5,12.7,2.4
			c5.8,1.2,11.6,2.7,17.3,4.3c8.3,2.3,16.5,5.1,24.6,8.2c7.3,2.8,14.5,5.9,21.6,9.4c7.8,3.8,15.5,7.9,22.9,12.5
			c8.8,5.4,17.3,11.2,25.5,17.5c8.4,6.5,16.5,13.4,24.1,20.7c12.4,11.9,23.6,24.9,33.6,38.9c6.2,8.6,11.8,17.5,17,26.7
			c6.5,11.6,12.1,23.6,16.9,35.9c3.5,9.2,6.6,18.5,9.2,28c2.5,9.2,4.5,18.4,6,27.8c0.8,4.8,1.5,9.6,2,14.4c0.6,5.5,1,11.1,1.3,16.7
			c0.4,7.1,0.4,14.1,0.3,21.2c-0.1,5.9-0.5,11.9-1,17.8c-0.4,4.5-0.9,9-1.4,13.4c-0.7,4.9-1.4,9.7-2.3,14.6
			c-1.1,5.9-2.4,11.7-3.8,17.6c-0.1,0.3-0.1,0.7-0.4,1c-2.2-6.7-5.7-12.9-8.6-19.3c-2.7-6-5.5-12-8.3-18
			c-4.9-10.7-10-21.4-14.9-32.1c-3.3-7.2-6.7-14.5-10.1-21.7c-4.3-9.3-8.6-18.6-12.9-27.9c-4.2-9-8.3-18-12.5-26.9
			c-4.7-10.1-9.4-20.2-14.1-30.3c-5.4-11.7-10.8-23.4-16.2-35.1c-5-10.8-10-21.7-15-32.5c-2.1-4.5-4.3-8.8-6.2-13.4
			c-0.4-1-0.9-2-1.6-2.8c-0.6-1.2-0.7-2.6-1.4-3.9c-1.3-2.5-3.9-3.4-6.4-2.1c-2.2,1.1-4.2,2.6-6.1,4.2c-7.1,5.7-14.7,10.7-22.1,16.1
			c-1.5,1.1-1.9,1-3.4-0.5c-5-5.2-10.5-9.8-16.3-14.1c-12.8-9.5-26.8-16.8-41.8-22.1c-10.8-3.8-22-6.5-33.4-8
			c-2.2-0.3-2.5-0.8-1.5-2.8c2.3-4.5,4-9.1,4.9-14.1c0.2-1.2,0.8-2.7-0.3-3.6c-1-0.8-2.3,0.2-3.4,0.6c-6.6,2.5-12.7,5.7-17.6,10.9
			c-0.6,0.6-1.1,1.2-1.7,1.9c-0.4,0.5-0.8,1.1-1.4,0.8c-0.7-0.3-0.4-1-0.3-1.6c0.4-2.1,0.8-4.2,1.2-6.4c1.4-7.9,2.3-15.9,3.9-23.8
			c0.2-0.8,0.5-1.6,0.6-2.4c0.1-0.7,0.3-1.4-0.4-1.8c-0.6-0.4-1.1,0.2-1.6,0.5c-3,2.3-5.6,4.9-8,7.8c-5.7,7-10.3,14.7-13.7,23.1
			c-1,2.3-1.6,4.8-2.1,7.3c-0.1,0.7-0.2,1.4-0.5,2.1c-0.2,0.4-0.4,0.9-1,0.8c-0.5-0.1-0.6-0.6-0.7-1c-0.5-2-0.4-4-0.7-6.1
			c-0.4-4-0.6-8-0.8-12c-0.1-2-0.4-3.9-0.8-5.9c-0.1-0.6-0.3-1.2-1-1.4c-0.7-0.2-1.1,0.3-1.5,0.8c-4.8,6-8,12.8-8.7,20.6
			c-0.2,1.9-0.5,3.8-0.4,5.7c0.1,1.4-0.7,2.1-1.9,2.4c-3.3,0.8-6.6,1.7-9.9,2.6c-17.1,5-32.7,13.1-47.2,23.3
			c-7.2,5.1-14,10.6-20.2,17c-1.5,1.5-1.9,1.5-3.7,0.3c-8.1-5.7-16.3-11.4-24.1-17.7c-0.9-0.8-1.9-1.4-3-2c-3.2-1.8-6.3-0.8-7.6,2.6
			c-1.3,3.2-1.3,6.4-0.7,9.7c0.8,4.4,2,8.7,3.8,12.7c3.1,6.9,9,9.8,15.9,11.3c0.5,0.1,1.1,0.2,1.6,0.3c2.5,0.5,2.6,0.8,1.2,3
			c-9.1,14-15.1,29.1-17.4,45.7c-0.9,6.4-1.2,12.9-0.7,19.4c0.1,1.4-0.7,2.3-1.6,3c-4.1,3.3-7.2,7.5-10.2,11.8
			c-1.6,2.3-3,4.8-4.1,7.4c-0.3,0.7-0.7,1.5-0.2,2.2c0.5,0.7,1.4,0.2,2,0.1c4.6-1,9.3-2.1,13.9-2.8c0.2,0,0.5-0.1,0.7-0.1
			c0.7-0.1,1.4-0.3,1.9,0.3c0.5,0.6-0.1,1.2-0.5,1.8c-2,3-3.8,6.1-5.2,9.5c-1.2,3.1-2.1,6.4-2.8,9.7c-0.4,2,0.1,2.5,2,1.8
			c4.2-1.4,8.5-2.2,12.8-3c2.3-0.4,2.5-0.1,2.1,2.2c-1.8,9.5-0.4,18.6,3.9,27.3c0.6,1.3,1.4,1.2,2.1-0.2c1.4-2.8,3.2-5.4,5.1-7.9
			c0.2-0.3,0.4-0.6,0.7-0.9c0.4-0.4,0.7-1.2,1.4-0.9c0.6,0.2,0.5,1,0.6,1.6c0.4,5,1.2,9.9,3.2,14.5c1.9,4.4,4.9,7.9,8,11.5
			c0.8,1,1.5,0.7,2-0.4c1.1-2.5,2.4-5,3.7-7.4c1-1.9,1.6-2,3.2-0.8c10.6,8.4,22.3,14.9,34.8,20.1c1.9,0.8,2.1,1.3,0.9,2.9
			c-11.5,15.7-18.2,33.4-21.1,52.6c-0.5,3.2-0.8,6.4-1.1,9.6c-0.2,1.8-0.9,3.5-1.3,5.2c-0.7,2.5-1.4,5.1-1.9,7.7
			c-0.1,0.6-0.2,1.2-0.7,1.6c-1.3,0-1.5-1.1-1.9-1.8c-3.3-6.3-6.3-12.7-9-19.2c-5.4-13.4-11.6-26.3-18.5-39
			c-3.7-6.9-7.2-13.9-11.3-20.7c-2.8-4.7-6.3-8.8-11-11.7c-2.8-1.7-5.8-2.6-9-2.8c-3.5-0.2-7-0.3-10.4,0.6
			c-7.9,1.1-15.5,3.3-22.5,7.3c-4.5,2.6-8,6.5-11.4,10.3c-3.8,4.3-7.1,9-10,14.1c-3.9,6.9-5.8,14.3-6.8,22c-0.4,2.9-0.7,5.9-0.6,8.8
			c0.1,8,0.9,15.9,4.3,23.3c3.5,7.6,8,14.7,13.7,20.8c11.9,12.8,25.4,23.5,40.5,32.3c6.8,4,14.2,6.7,21.4,9.8c7,3,14.2,5.2,21.4,7.4
			c0.7,0.2,1.4,0.3,1.9,0.9c0.2,0.8-0.2,1.5-0.5,2.2c-2.8,7.3-4.3,14.8-3.8,22.5c1,13.7,7.2,24.4,18.9,31.7c2.2,1.4,4.6,2.6,7.1,3.5
			c0.6,0.2,1.5,0.2,1.6,1.2c-2,1.3-4.3,1.7-6.5,2.6c-2,0.8-4.1,1.3-6.1,2.2c-0.5,0.2-1,0.4-1.5,0.7c-0.6,0.4-1.2,0.9-1.1,1.7
			c0.2,0.8,0.8,1.2,1.6,1.3c1.2,0.2,2.5,0.3,3.7,0.5c0.5,0.1,1.2,0,1.4,0.6c0.1,0.6-0.5,0.9-0.9,1.2c-0.5,0.4-1.1,0.8-1.5,1.3
			c-1,1.2-0.7,2.2,0.7,2.8c1.7,0.6,3.5,0.9,5.3,0.9c1.9,0,3.8,0,5.7,0c1.2,0,1.8,0.5,1.3,1.8c-0.5,1.3-0.1,2.2,0.9,3
			c3.6,3.8,6.6,8.2,9.9,12.3c7.3,9,14.4,18,21.6,27.1c0.6,0.8,1.4,1.2,2.4,1.5C252.5,672.4,253.4,672.2,253.5,673.2z"/>
		<path fill="#932A07" d="M458.7,207c1,1.2,1.5,2.7,2.2,4.1c0.1,0.3,0.2,0.6,0.3,0.8c1.1,2.3,2.2,4.5,3.2,6.8
			c0.9,1.9,1.7,3.8,2.6,5.7c0.4,0.8,0.7,1.6,1.1,2.4c1.3,2.6,2.6,5.3,3.8,7.9c1.6,3.4,3.1,6.9,4.6,10.3c0.1,0.3,0.3,0.6,0.5,1
			c1.2,2.7,2.4,5.3,3.7,8c0.4,0.9,0.9,1.8,1.3,2.7c0.9,2.1,1.9,4.1,2.9,6.2c1.2,2.6,2.3,5.1,3.5,7.7c0.7,1.4,1.3,2.8,2,4.2
			c1.2,2.7,2.6,5.4,3.8,8.1c1.1,2.3,2.1,4.7,3.2,7c0,0.1,0.1,0.2,0.2,0.3c1.2,2.5,2.4,5.1,3.6,7.6c1.1,2.3,2.1,4.6,3.1,6.9
			c0.3,0.8,0.8,1.5,1.1,2.3c0.9,2.1,1.8,4.2,2.8,6.2c0.4,1,0.9,2,1.4,2.9c1,2,1.9,4,2.8,6c0.4,0.8,0.7,1.6,1.1,2.4
			c1.3,2.7,2.6,5.3,3.8,7.9c1.7,3.7,3.4,7.4,5,11.1c0.7,1.6,1.4,3.2,2.2,4.7c0.3,0.6,0.5,1.2,0.8,1.8c0.7,1.5,1.4,3,2.1,4.5
			c1.1,2.4,2.3,4.8,3.4,7.1c1.7,3.8,3.4,7.5,5.1,11.3c0,0.1,0.1,0.2,0.2,0.3c1.2,2.6,2.5,5.2,3.7,7.8c1,2.2,2,4.4,2.9,6.5
			c0,0.1,0.1,0.2,0.2,0.3c1.2,2.4,2.3,4.9,3.5,7.3c1.1,2.4,2.2,4.8,3.3,7.2c0.2,0.4,0.4,0.8,0.6,1.1c1.2,2.5,2.3,5,3.4,7.5
			c0.2,0.5,0.5,1,0.7,1.5c1.6,3.1,3,6.3,4.4,9.5c0.1,0.2,0.2,0.4,0.3,0.6c1.3,2.6,2.5,5.3,3.8,7.9c1.3,2.9,2.7,5.7,3.9,8.7
			c0.9,2.2,2,4.2,3,6.3c1.6,3.5,3.1,7,4.7,10.5c0.2,0.5,0.5,1,0.7,1.5c1.1,2.2,2.1,4.4,3.1,6.7c0.2,0.4,0.3,0.9,0.3,1.4
			c0,0.5,0,1,0,1.4c0.1,0.9-0.3,1.8-0.6,2.6c-2.8,10.2-6,20.2-9.9,30c-2.4,6-5,12-7.7,17.8c-3.7,7.7-7.7,15.3-12.1,22.7
			c-4.5,7.5-9.3,14.8-14.5,21.9c-6.1,8.3-12.6,16.3-19.5,24c-3.4,3.8-7,7.4-10.6,11c-5.3,5.2-10.7,10.1-16.3,14.9
			c-7.1,6-14.6,11.7-22.3,17c-7.3,5-14.9,9.7-22.6,14c-8.2,4.5-16.7,8.7-25.3,12.4c-7.2,3.1-14.6,5.9-22,8.4
			c-8.6,2.9-17.3,5.3-26.1,7.3c-6.7,1.5-13.5,2.9-20.3,3.8c-4,0.6-8.1,1.2-12.1,1.6c-4.8,0.5-9.7,0.8-14.5,1.2
			c-8,0.6-16.1,0.3-24.1,0.3c-4.4,0-8.7-0.4-13.1-0.7c-3.9-0.3-7.8-0.7-11.6-1.1c-2.7-0.3-5.4-0.7-8-1.1c-3.3-0.5-6.5-1.1-9.8-1.6
			c-0.6-0.1-1.3-0.3-1.9-0.5c-0.6-0.5-1.4-0.6-2.2-0.7c-0.9-0.1-1.4-0.5-1.9-1.2c-1.9-2.3-3.7-4.6-5.6-7c-1.5-1.9-2.9-4-4.5-5.8
			c-1.4-1.6-2.5-3.4-4-4.8c-0.4-0.4-0.7-1-1.1-1.4c-2.1-2.6-4.2-5.2-6.3-7.8c-1.5-1.9-2.9-3.9-4.5-5.8c-1.3-1.5-2.3-3.2-3.7-4.6
			c-0.7-0.7-1.3-1.6-1.9-2.4c0.3-0.3,0.6-0.3,1-0.3c3.7,0.5,7.3-0.1,10.9-0.9c0.5-0.1,0.9-0.3,1.4-0.2c0.8,0.1,1.1,0.5,0.8,1.2
			c-0.1,0.2-0.2,0.4-0.3,0.7c-1.5,3.4-0.5,5.3,3.2,6.1c3.6,0.7,6.9-0.4,10-2.1c10.3-5.8,19.6-13.1,28.7-20.6c3-2.5,5.6-5.5,7.4-8.9
			c1.3-2.5,1.9-5.2,0.2-7.9c-0.1-0.2,0-0.3,0-0.5c1.1-0.8,2.5-0.7,3.8-1c5-0.8,10.1-1.7,15.2-1.6c5.5,0.1,11-0.4,16.5-0.5
			c6.1,0,12,1.3,17.8,3.1c0.9,0.3,1.8,0.4,2.5,1c0,2.3,0.8,4.3,2,6.2c2.2,3.5,5.1,6.4,8.2,8.9c7.8,6.3,15.9,12.4,24.4,17.7
			c2.1,1.3,4.3,2.3,6.7,3.1c2.3,0.8,4.6,0.9,6.9,0.2c2.6-0.8,3.5-2.6,2.6-5.1c-0.3-0.8-1.2-1.7-0.5-2.5c0.6-0.7,1.7-0.1,2.6,0.2
			c2.8,0.7,5.7,0.8,8.6,0.9c0.7,0,1.3-0.1,2-0.2c1.8-0.4,2.3-1.2,1.8-3c-0.5-1.8-0.3-2.1,1.7-1.8c3.3,0.4,6.6,0.2,9.8-0.6
			c0.9-0.2,2-0.4,2.3-1.5c0.3-1.1-0.7-1.7-1.4-2.3c-0.6-0.5-1.7-1-1.4-1.9c0.3-1,1.6-0.6,2.4-0.6c0.8-0.1,1.7,0,2.5-0.2
			c0.8-0.2,1.5-0.5,1.6-1.5c0.1-0.8-0.5-1.3-1.2-1.7c-1.2-0.7-2.5-1.2-3.8-1.6c-4.5-1.4-8.7-3.4-13.3-4.3c-0.2-0.1-0.4-0.2-0.6-0.4
			c0.1-1,1-1.1,1.6-1.5c11.9-6.7,18.6-16.9,20.2-30.4c1.2-10-0.9-19.6-5.2-28.6c-5.2-10.6-9.3-21.7-13-32.9
			c-2.3-7.2-3.2-14.8-4.3-22.2c-0.9-6-2.2-11.9-4-17.7c-0.8-2.4-1-4.9-1.4-7.4c0-0.4,0-0.8,0.2-1.1c1.4-1.1,3.2-1.5,4.8-2.2
			c3.2-1.4,6.2-3.1,9-5.1c4.4-3,7.1-7.3,9.4-12c0.3-0.7,0.4-1.7,1.5-1.8c0.8,0.3,1.2,1,1.7,1.5c5.6,6.2,16.2,5.6,20.8-1.2
			c1.5-2.2,2-4.8,2.1-7.5c0.2-1.7-0.5-3.3-0.9-4.9c-0.7-2.3-1.7-4.4-2.4-6.7c-0.2-0.6-0.5-1.1-0.4-1.7c0.3-1.4,1-2.7,0.9-4.2
			c-0.1-2.5-1.1-4.3-3.4-5.5c-1.6-0.8-1.7-1-0.8-2.6c1.1-2.1,1.9-4.1,0.8-6.5c-0.7-1.6-1.8-2.6-3.5-3.1c-1-0.2-2-0.5-2.8-1.2
			c-1.8-4-3.3-8.2-4.8-12.3c-0.5-1.4-1.4-2.8-1.3-4.4c1.9-4.9,3.4-10,3.3-15.4c0-0.6,0-1.3,0.6-1.6c0.8-0.3,1.2,0.5,1.6,1
			c2.1,2.7,4.1,5.5,5.7,8.5c0.3,0.5,0.5,1.2,1.2,1.2c0.7,0,0.9-0.7,1.1-1.3c4-8.6,5.7-17.5,3.7-26.9c-0.4-2.1-0.1-2.6,2-2.2
			c4.2,0.8,8.5,1.5,12.6,3c2,0.7,2.6,0.2,2.2-1.9c-1.2-6.8-3.7-13-7.7-18.7c-0.5-0.7-1.4-1.4-0.9-2.2c0.5-0.9,1.5-0.3,2.3-0.2
			c4.7,0.7,9.3,1.8,13.9,2.8c0.4,0.1,0.7,0.2,1.1,0.2c1.5,0.2,2-0.2,1.5-1.6c-0.4-1.3-0.9-2.6-1.6-3.8c-3.5-6-7.5-11.6-12.9-16.1
			c-1.1-1-1.6-2.1-1.6-3.6c0-3.1,0.1-6.1,0-9.2c-0.3-10.5-2.4-20.6-5.8-30.5c-3.1-8.9-7.3-17.2-12.4-25.1c-1.4-2.2-1.1-2.5,1.5-2.9
			c6.8-1,13-3.6,16.5-9.9c2.9-5.4,4.6-11.3,4.9-17.5C458.4,209.5,457.9,208.2,458.7,207z"/>
		<path fill="#C33711" d="M331,116c-0.2,0.3-0.5,0.4-0.8,0.3c-0.8-0.4-1.6-0.3-2.5-0.3c-1.4,0-2.7-0.1-4.1-0.3c-1-0.2-2,0-3-0.1
			c-1.5,0-3.1,0.2-4.6-0.3c-0.4-0.1-0.8,0-1.3,0c-5.5,0-11,0-16.5,0c-0.7,0-1.3,0-2,0.2c-0.4,0.1-0.9,0.1-1.4,0.1
			c-1.3,0-2.5,0-3.8,0c-0.8,0-1.6,0.1-2.5,0.2c-1,0.2-2,0.1-3,0.1c-1.2,0-2.4-0.1-3.5,0.4c-0.2,0.1-0.4,0.2-0.5,0.1
			c-1.9-0.4-3.8,0.3-5.6,0.5c-0.2,0-0.4,0-0.5,0c-1,0-1.9,0-2.8,0.3c-1.5-0.2-3,0.3-4.4,0.4c-1.4,0.1-2.7,0.4-4.1,0.3
			c0.8-0.4,1.7-0.4,2.6-0.5c4.5-0.5,8.9-1,13.4-1.5c4.2-0.5,8.4-0.6,12.5-0.9c6.5-0.4,12.9-0.3,19.4-0.3c4.9,0,9.8,0.3,14.7,0.6
			c1,0.1,2,0.1,3,0.2C330.1,115.7,330.6,115.6,331,116z"/>
		<path fill="#AB7149" d="M419.5,444.6c-0.2,0.4-0.5,0.7-0.6,1.1c-0.8,2.3-2.1,4.3-3.4,6.3c-1.1,1.8-2.5,3.4-4.2,4.9
			c-3.6,3-7.6,5.3-11.8,7.1c-1,0.4-2.1,0.9-3.1,1.4c-0.4,0.2-0.8,0.3-1.2,0.2c-1.1-0.3-2.1-0.2-3.2,0c-9.3,1.7-18.5,2.3-27.9,0.7
			c-0.4-0.1-0.8-0.2-1.2-0.2c-0.5,0-1.2-0.2-1.3,0.5c-0.1,0.7,0.6,0.8,1.1,0.9c2.9,0.7,5.9,1.1,8.9,1.1c7.6,0.2,15.1-0.1,22.5-2
			c0.4-0.1,0.7-0.2,1.1,0c0.5,1.4,0.3,3,0.6,4.4c0.2,0.8,0.3,1.5,0.5,2.3c0.7,2.5,1.5,5,2.2,7.6c0.9,3.6,1.6,7.2,2.1,10.9
			c0.5,3.2,0.9,6.5,1.6,9.7c0.5,2.2,0.7,4.5,1.2,6.7c0.8,3.6,1.7,7.2,3,10.7c0.9,2.4,1.8,4.8,2.7,7.2c1.1,2.7,2.2,5.4,3.2,8.2
			c0.6,1.6,1.2,3.3,1.7,4.9c0.2,0.7,0.5,1.4,0.9,2c2.6,4.3,4.6,8.8,6,13.6c0.9,2.9,1.6,5.7,2,8.7c0.2,1.4,0.2,2.9,0.3,4.3
			c0.1,1.2,0.5,2.5,0.2,3.7c-0.4,1.8-0.3,3.7-0.6,5.5c-0.4,2.7-1,5.3-1.9,7.8c-1.5,4.3-3.7,8.3-6.6,11.8c-3.6,4.3-7.8,7.7-12.8,10.2
			c-0.3,0.1-0.5,0.3-0.7,0.5c-0.2,0.7-0.8,0.9-1.3,1.1c-5.3,2.3-10.7,3.7-16.5,4.1c-11,0.8-21.2-1.6-30.8-6.8
			c-4-2.2-8.5-3.1-12.8-4.7c-0.8-0.3-1.8-0.4-2.3-1.3c-1.3-0.6-2.7-1-4-1.3c-2.6-0.7-5.2-1.3-7.8-1.8c-2.6-0.5-5.2-0.7-7.8-1
			c-1.1,0.3-2.2,0.1-3.2,0.3c-1.3,0.3-2.6,0.3-3.9,0.3c-1.1,0-2.1,0.1-3.2,0.2c-1.2,0.2-2.4,0.1-3.6,0c-2.1-0.3-4.3-0.4-6.4,0
			c-1.1,0.2-2.3,0.2-3.4,0.3c-1.5,0.2-3.1,0.5-4.6,0.5c-0.9,0-1.6,0.3-2.5,0.4c-1.7,0.2-3.4,0.5-5.1,0.8c-0.1,0-0.2,0.1-0.3,0.2
			c-0.5,0.6-1.2,0.7-1.9,0.9c-6.5,1.6-12.6,4.1-19,6.1c-1.2,0.4-2.1,1.1-3.2,1.7c-9.4,5.1-19.5,7.2-30.1,6.6
			c-3.6-0.2-7.1-0.9-10.6-1.9c-0.7-0.2-1.4-0.4-1.8-1.1c-1-0.4-2-0.9-3-1.2c-3.5-1.3-6.6-3.2-9.5-5.4c-2.3-1.7-4.4-3.7-6.2-5.9
			c-1.8-2.2-3.4-4.6-4.8-7.1c-1.6-2.9-2.8-6.1-3.5-9.4c-0.4-1.6-0.5-3.3-0.8-4.9c-0.4-2.8-0.3-5.5-0.3-8.2c0-1.4,0.2-2.7,0.4-4.1
			c0.4-2,0.7-4.1,1.3-6.1c0.7-2.4,1.4-4.8,2.4-7.1c0.2-0.5,0.4-1,0.6-1.5c-0.3-0.9,0.3-1.6,0.7-2.3c0.9-1.8,1.7-3.6,2.7-5.3
			c1-1.6,1.3-3.5,1.9-5.2c2.5-6.9,5.6-13.6,7.8-20.7c2.2-7.4,3.2-15.1,4.5-22.7c0.3-1.5,0.5-3.1,0.8-4.6c0.1-0.6,0.2-1.2,0.8-1.6
			c0.6-3.4,1.5-6.8,2.5-10.1c0.3-1.1,0.6-2.2,1-3.3c0.1-0.2,0.1-0.4,0.1-0.5c-0.1-1.6,0.4-3.1,0.4-4.6c0-1.4,0.2-2.7,0.4-4.1
			c0.3-2.1,0.6-4.1,1-6.2c0.8-3.7,1.5-7.5,2.6-11.2c0.6-1.9,1-3.8,1.7-5.7c1.4-3.9,2.7-7.8,4.6-11.5c0.5-1,0.9-2.1,1.4-3.1
			c3.1-6.2,6.6-12.1,10.8-17.6c0.4-0.5,0.4-0.8-0.3-1.1c-1.8-0.8-3.5-1.6-5.3-2.3c-1.5-0.6-2.8-1.3-4.2-2c-3.2-1.6-6.4-3.2-9.6-5
			c-2.2-1.3-4.3-2.6-6.4-3.9c-3.1-2-6.1-4-9-6.2c-0.9-0.7-1.6-1.6-2.7-2c-0.5,0.2-0.7,0.6-0.9,1.1c-1.3,2.7-2.9,5.4-4,8.2
			c-0.1,0.3-0.3,0.7-0.6,0.9c-0.4,0.4-0.9,0.4-1.3,0c-0.4-0.4-0.8-0.7-1.1-1.1c-1.8-2.2-3.6-4.5-5.3-6.8c-1.3-1.9-2.3-3.9-3.1-6.1
			c-1-2.8-1.7-5.6-2.1-8.5c-0.2-1.9-0.7-3.9-0.4-5.8c-0.4-0.2-0.5,0-0.7,0.2c-1.2,1.7-2.5,3.3-3.7,5.1c-0.8,1.2-1.4,2.5-2.2,3.7
			c-0.3,0.6-0.6,1.2-1,1.7c-0.5,0.7-1.6,0.6-1.9-0.1c-1.8-4-3.6-7.9-4.3-12.3c-0.3-2.2-0.6-4.5-0.8-6.8c-0.1-1.9,0-3.7,0.1-5.5
			c0.1-1.6,0.4-3.2,0.9-4.7c0.2-0.8,0-1.1-0.7-0.9c-3.6,0.8-7.3,1.3-10.8,2.4c-1.3,0.4-2.5,0.8-3.8,1.2c-0.3,0.1-0.7,0.3-1,0.1
			c-0.8-0.3-1.2-0.8-1-1.7c0.2-0.9,0.4-1.9,0.6-2.8c0.6-3.3,1.7-6.5,3-9.6c1-2.4,2.4-4.7,3.8-6.9c0.5-0.8,1-1.6,1.5-2.3
			c-0.1-0.4-0.4-0.3-0.6-0.4c-0.2,0-0.5,0-0.7,0c-2.1,0.4-4.1,0.7-6.2,1.2c-3.4,0.7-6.9,1.5-10.3,2.2c-1,0.2-1.4-0.2-1.4-1.2
			c0-0.8,0.3-1.5,0.6-2.2c1.3-2.7,2.7-5.4,4.5-7.8c1.2-1.6,2.3-3.2,3.6-4.7c1.4-1.6,2.7-3.4,4.3-4.8c0.9-0.8,1.9-1.6,2.8-2.5
			c0.6-0.6,1-1.1,0.6-2.1c-0.2-0.4-0.1-0.9-0.1-1.4c0-2.8,0-5.5,0-8.3c0-0.7,0-1.4,0.2-2.1c0.1-0.3,0.1-0.6,0.1-0.9
			c-0.2-2,0.4-3.9,0.4-5.9c0-0.9,0.2-1.8,0.4-2.7c0.7-3.8,1.3-7.6,2.4-11.4c0.8-2.9,1.7-5.7,2.7-8.5c1-2.7,2-5.4,3.2-8
			c1.3-2.9,2.7-5.7,4.3-8.5c1.6-2.9,3.3-5.7,5.1-8.4c0.1-0.2,0.2-0.4,0.3-0.6c0.1-0.3,0-0.6-0.4-0.6c-0.8-0.1-1.5-0.3-2.3-0.4
			c-2.2-0.2-4.3-1-6.4-1.8c-1.7-0.7-3.3-1.6-4.9-2.7c-1.9-1.3-3.4-3-4.6-5c-0.8-1.4-1.5-2.8-2-4.4c-0.9-2.7-1.8-5.3-2.4-8.1
			c-0.3-1.2-0.6-2.4-0.6-3.7c0-0.8-0.4-1.6-0.3-2.5c0.1-2.2,0.4-4.3,1.1-6.3c0.9-2.5,2.6-3.8,5.2-3.9c0.8-0.1,1.6,0.2,2.4,0.6
			c1.2,0.6,2.4,1.4,3.5,2.3c3.7,2.8,7.4,5.7,11.1,8.5c0.9,0.7,1.7,1.3,2.6,1.9c2.3,1.6,4.5,3.1,6.8,4.7c1.4,1,2.8,2,4.2,3
			c0.2,0.2,0.5,0.3,0.7,0.5c0.4,0.3,0.8,0.2,1.1-0.1c1.4-1.4,2.9-2.9,4.3-4.3c1.7-1.5,3.4-3,5.1-4.5c0.8-0.7,1.6-1.4,2.5-2.1
			c2.4-2.1,5.1-4,7.7-5.9c3.3-2.4,6.7-4.6,10.1-6.8c2.3-1.5,4.7-2.9,7.1-4.2c1.9-1.1,3.8-2.2,5.8-3.2c3.7-1.8,7.4-3.7,11.3-5.2
			c3.7-1.4,7.4-2.9,11.1-4.1c4.3-1.4,8.7-2.5,13.1-3.6c0.3-0.1,0.7-0.2,1-0.3c0.8-0.3,0.8-0.3,0.9-1.1c0-0.3,0-0.6,0-0.9
			c-0.1-4.5,0.7-8.8,1.9-13.1c0.8-2.6,1.8-5.2,3.4-7.5c1.3-2,2.6-4,4.1-5.9c0.5-0.6,1-1.1,1.8-1c0.8,0.1,1.1,0.8,1.3,1.5
			c0.2,0.5,0.2,1,0.3,1.6c0.2,1.5,0.6,3.1,0.6,4.6c0,1.2,0,2.4,0.3,3.6c0.2,1,0.1,2.2,0.1,3.2c0,0.7,0,1.4,0.2,2.1
			c0.1,0.2,0.1,0.4,0.1,0.5c-0.2,2,0.4,3.9,0.4,5.9c0,1.1,0.3,2.2,0.4,3.4c0,0.1,0.2,0.2,0.2,0.2c0.1,0,0.2,0,0.3-0.1
			c0.3-0.4,0.4-0.9,0.4-1.3c0.5-2.5,0.9-4.9,1.8-7.3c1.5-3.8,3.2-7.5,5.2-11c1.2-2,2.2-4.1,3.6-6c2.1-3.1,4.3-6.2,6.8-9
			c0.8-0.9,1.5-1.9,2.4-2.7c1.6-1.4,3.3-2.8,4.9-4.2c0.1-0.1,0.2-0.1,0.3-0.2c0.9-0.6,1.8-0.1,1.9,1c0,0.6,0,1.2-0.2,1.8
			c-0.8,2.6-1.3,5.3-1.7,8.1c-0.4,2.8-0.9,5.5-1.3,8.3c-0.4,2.6-0.7,5.2-1.2,7.8c-0.5,3-0.9,6-1.7,9c0,0.2,0,0.3,0,0.5
			c0.6,0,0.9-0.5,1.1-0.8c1.8-2.3,3.9-4.2,6.2-6c3.3-2.5,6.9-4.3,10.6-6c1.6-0.7,3.3-1.2,4.9-1.8c0.2-0.1,0.3-0.2,0.5-0.2
			c1.2-0.2,1.8,0.1,1.9,1.5c0,1.5-0.2,3-0.5,4.4c-1,4.3-2.4,8.4-4.5,12.3c-0.3,0.6-0.6,1.2-0.9,1.8c0,0.1,0,0.2,0,0.4
			c0.5,0.2,1.1,0.5,1.7,0.5c2.2,0.1,4.4,0.7,6.5,1c3.4,0.5,6.7,1.3,10,2c2.6,0.6,5.1,1.3,7.6,2c3.2,0.8,6.3,1.9,9.4,3
			c3.7,1.3,7.3,2.7,10.9,4.3c2.4,1,4.8,2,7,3.2c2.7,1.5,5.4,2.8,8.1,4.3c4.7,2.6,9.1,5.6,13.5,8.6c2.6,1.8,5,3.7,7.4,5.6
			c2.3,1.8,4.4,3.8,6.7,5.7c1.7,1.5,3.3,3.2,4.9,4.8c1.3,1.3,1.3,1.3,2.7,0.2c2.6-1.9,5.1-3.7,7.7-5.5c3.5-2.5,7-5,10.4-7.6
			c2.7-2.1,5.3-4.3,8.2-6.1c0.7-0.4,1.4-0.8,2-1.2c2.1-1.2,5.8,0.1,6.6,2.2c0.5,1.2,1.1,2.4,1.2,3.7c0,0.2,0.2,0.3,0.3,0.4
			c0,0.8,0,1.7,0,2.5c0.1,2.7-0.3,5.2-1,7.8c-0.8,3.1-1.8,6.2-3,9.2c-1.4,3.5-3.8,6.2-7,8.2c-2.4,1.5-5,2.5-7.7,3.3
			c-1.2,0.3-2.4,0.6-3.7,0.6c-0.4,0-0.7,0-1.1,0.1c-0.4,0.1-0.6,0.4-0.4,0.8c0.7,1.1,1.3,2.1,2,3.2c1.5,2.3,2.8,4.6,4.1,7
			c0.6,1.2,1.3,2.3,1.9,3.5c1.8,3.9,3.5,7.7,5,11.7c1.5,4.2,2.8,8.5,3.8,12.9c0.5,2.4,1.1,4.8,1.3,7.2c0.1,1.2,0.4,2.4,0.6,3.5
			c0,0.1,0.1,0.2,0.1,0.4c-0.1,2,0.5,4,0.4,6.1c0,2,0.2,3.9,0.1,5.9c-0.1,1.9,0,3.8-0.1,5.7c0,0.6,0.2,1.2,0.7,1.6
			c0.5,0.4,1,0.9,1.5,1.3c1.3,1.1,2.6,2.3,3.7,3.7c0.9,1.1,1.8,2.1,2.7,3.1c2.3,2.9,4.3,5.9,6.1,9.1c0.7,1.2,1.2,2.6,1.7,4
			c0.1,0.3,0.2,0.6,0.3,0.9c0.1,0.7-0.3,1.2-1,1.2c-0.4,0-0.8,0-1.2-0.1c-4.1-0.9-8.2-1.8-12.3-2.6c-1.6-0.3-3.3-0.5-5-0.8
			c0,0.6,0.4,1,0.7,1.4c2.5,3.3,4.3,7,5.8,10.9c1.1,2.9,1.8,5.8,2.4,8.8c0.1,0.5,0.1,1,0.1,1.4c0,0.8-0.4,1.1-1.1,1.2
			c-0.5,0-1.1-0.1-1.6-0.3c-2.6-1.1-5.4-1.7-8.1-2.2c-1.6-0.3-3.3-0.7-4.9-1c-0.5-0.1-1.1-0.2-1.6,0c-0.2,0.8,0.2,1.4,0.4,2.1
			c0.6,3.1,0.9,6.2,0.7,9.3c-0.1,2-0.4,4-0.7,6c-0.5,2.6-1.1,5.1-2.1,7.6c-0.7,1.7-1.5,3.4-2.3,5.1c-0.5,1.1-1.4,1.1-2,0
			c-0.9-1.7-1.8-3.4-2.9-5c-1.3-1.8-2.6-3.6-3.9-5.3c-0.1-0.2-0.2-0.2-0.4-0.2c-0.2,0.1-0.2,0.3-0.2,0.4c0,0.4,0,0.7,0,1.1
			c0.1,3.9-0.8,7.7-2,11.4c-0.3,1-0.7,1.9-1.1,2.9c-0.1,0.3-0.3,0.7-0.6,0.9c-1-0.5-1.1-1.6-1.5-2.5c-1.6-4.3-3.3-8.6-4.9-12.9
			c-0.1-0.2-0.1-0.3-0.2-0.5c-0.1-0.2-0.2-0.5-0.3-0.7c-0.6-1.7-1.4-3.4-1.9-5.2c0.2-0.4,0.5-0.7,0.9-0.9c4.2-2.4,8-5.5,11.5-8.9
			c5.3-5.2,9.6-11.1,12.9-17.8c3.2-6.6,5.3-13.5,5.9-20.8c1.4-14.8-1.9-28.6-10.2-41c-6.6-9.8-15.1-17.3-25.7-22.4
			c-7.7-3.7-15.8-5.8-24.4-6.3c-17.3-1.1-32.7,3.7-46.2,14.6c-13.2,10.7-20.8,24.7-23,41.6c-1.1,8.8-0.1,17.3,2.4,25.8
			c0.3,1,0.8,2,1.2,3c-0.1,0.9,0.7,1.7,0,2.6c-0.6,0.3-1.2,0-1.8-0.1c-7-2-14.2-3.1-21.5-2.8c-13.1,0.6-25.3,3.9-35.9,12
			c-5.2,4-9.4,8.9-11.9,15c-4.2,10.3-2.6,20,3.7,28.9c5.1,7.2,12.2,11.9,20.2,15.4c9.3,4,19.1,5.5,29.2,5
			c10.9-0.5,21.2-3.3,30.5-9.1c7.4-4.6,13.3-10.6,16.4-19c1.4-3.6,1.9-7.3,1.8-11.1c0-0.5-0.1-1.1,0.4-1.5c0.8-0.2,1.4,0.2,2,0.5
			c6.1,2.7,12.4,4.6,19.1,5.5c4.9,0.6,9.8,0.9,14.6,0.3c0.6-0.1,1.2-0.1,1.8,0.2c1.4,1.3,1.5,3.2,2.4,4.8c1.8,5.1,4,10.1,5.9,15.2
			c0.3,0.8,0.7,1.5,0.5,2.4c-0.4,0.9-1.3,1.4-2.1,1.9c-7.5,4.7-15.4,8.7-23.7,12c-2,0.8-2,0.8-0.7,2.6c4.7,6.2,8.7,12.9,12,20
			c0.4,0.8,1,1.6,0,2.4c-7,0.6-14,0.4-20.8-1.9c-1-0.3-2-0.8-3.1-0.9c-0.4-0.1-0.9-0.1-1.1,0.4c-0.2,0.5,0.3,0.7,0.6,0.9
			c0.4,0.2,0.9,0.4,1.3,0.5c5.5,2.1,11.2,2.6,16.9,3c2,0.1,3.9-0.4,5.9-0.4c0.8,0,1.2-0.5,1.5-1.1c0.4-0.6,1-0.9,1.6-1
			c2.3-0.5,4.4-1.6,6.3-2.9c2.7-1.8,5.6-2.9,8.6-4c2.6-0.8,5.2-1.4,7.9-1c0.5,0.1,0.9,0.3,1.4,0.3c0.2,0,0.4,0.1,0.6,0.1
			c5.6,1.4,7.7,6.7,8.1,11.8C421.3,439.4,421.1,442.2,419.5,444.6z"/>
		<path fill="#655944" d="M210.3,487.5c-0.4,2.2-0.8,4.5-1.1,6.7c-0.2,1.7-0.6,3.4-0.8,5.1c-0.3,1.8-0.6,3.5-0.9,5.3
			c-0.6,3.5-1.3,6.9-2.2,10.3c-1.5,5.3-3.5,10.3-5.6,15.3c-1.2,3.1-2.4,6.1-3.5,9.2c-0.3,0.8-0.4,1.8-0.9,2.5
			c-0.1,0.2-0.3,0.4-0.4,0.6c-1.9-0.3-3.6-1.3-5.3-2.1c-6.9-3.1-14-5.8-20.8-9c-6.9-3.3-13.1-7.8-19.6-11.7
			c-5.2-3.2-10.5-6.3-15.3-10.2c-2.7-2.2-5.2-4.8-7.6-7.4c-4.1-4.6-8.5-9-12.4-13.8c-6.5-8.1-10.6-17.2-11.7-27.6
			c-1.6-13.9,1.2-27.1,7.1-39.5c4.1-8.7,10.4-16,18.4-21.6c3.1-2.2,6.4-4.2,9.6-6.3c0.7-0.4,1.4-0.6,2.1-1c1.3-0.4,2.7-0.6,4-0.7
			c1.9-0.1,3.8-0.1,5.8,0c4.6,0.2,8.8,1.7,12.3,4.7c0.9,0.8,1.9,1.5,2.7,2.3c2.3,2.2,4.1,4.8,5.8,7.5c2.8,4.7,5.4,9.6,8,14.4
			c2.7,5.1,5.3,10.2,8,15.3c1.8,3.4,3.5,6.8,5.2,10.2c1.5,2.9,2.7,5.9,3.9,8.9c1.1,2.7,2.3,5.4,3.5,8.1c1.2,2.7,2.3,5.4,3.5,8.1
			c1.2,2.9,2.5,5.7,3.9,8.5c0.9,1.9,1.9,3.7,2.8,5.6C209.3,486.1,209.7,486.9,210.3,487.5z"/>
		<path fill="#3D3020" d="M139.5,392.4c-1.6,1.3-3.3,2.3-5,3.4c-3.3,2.1-6.5,4.2-9.6,6.6c-2,1.6-3.9,3.4-5.6,5.3
			c-3.4,3.9-6.6,8.1-9.1,12.6c-1.1,2-2,4.2-2.8,6.4c-1.4,3.9-2.6,7.8-3.5,11.9c-0.5,2.5-1,5-1.3,7.6c-0.5,4-0.2,7.9-0.3,11.8
			c0.4,1.5,0.4,3.1,0.6,4.6c0.4,2.3,0.9,4.6,1.5,6.8c0.4,1.8,1.1,3.5,1.8,5.2c1.7,3.8,3.7,7.5,6.2,10.9c1.2,1.7,2.6,3.3,4,4.9
			c1.8,2.2,4,4.2,5.7,6.4c0,0,0.1,0.1,0.1,0.1c3.6,3.7,7,7.7,10.9,11.2c1.5,1.4,3.2,2.6,5,3.8c4.2,2.9,8.5,5.5,12.9,8.1
			c3.1,1.8,6.1,3.8,9.1,5.7c3,1.8,6,3.8,9.2,5.2c2.4,1.1,4.8,2.1,7.2,3.1c2.9,1.3,5.8,2.5,8.7,3.8c2.6,1.1,5.3,2.3,7.9,3.4
			c0.6,0.3,1.2,0.4,1.7,1c-1.2,2.4-2.4,4.8-3.6,7.2c-5-1.4-10-2.9-14.9-4.6c-3.2-1.1-6.3-2.4-9.4-3.7c-3.3-1.4-6.6-2.8-9.9-4.2
			c-7.3-3.2-14.4-6.9-20.9-11.6c-3.6-2.5-7.1-5.1-10.5-7.9c-2.2-1.8-4.5-3.6-6.7-5.4c-1-0.8-1.9-1.6-2.9-2.5c-2.9-2.8-6-5.4-8.7-8.3
			c-3.4-3.7-6.6-7.6-9.3-11.9c-1.8-2.8-3.5-5.6-4.9-8.6c-2.2-4.5-3.9-9.3-4.5-14.3c-0.3-2.5-0.7-5-0.7-7.5c0-1.2-0.4-2.5-0.2-3.8
			c0.3-2.7,0.2-5.4,0.6-8.1c0.2-1.8,0.5-3.7,0.8-5.5c0.6-3.5,1.5-7,2.7-10.4c1.6-4.4,3.8-8.5,6.4-12.4c1.9-2.8,4-5.6,6.1-8.2
			c2.3-2.7,4.8-5.2,7.4-7.6c1.9-1.8,4.1-3.3,6.4-4.6c5.3-2.8,10.9-4.5,16.7-5.8C136.4,392.8,137.9,392.4,139.5,392.4z"/>
		<path fill="#4C2404" d="M214.7,610.9c2.8,1,5.8,1.6,8.7,2.1c2.7,0.4,5.5,0.5,8.2,0.5c5.1,0,10.1-0.8,15-2.3
			c4.1-1.2,8.1-2.9,11.8-5.2c0.6-0.3,1.2-0.6,1.8-0.8c4.9-1.6,9.7-3.3,14.6-4.9c2.1-0.7,4.2-1.2,6.4-1.6c1.1,0.3,1.3,1.3,1.4,2.1
			c0.2,1.7,0.1,3.3-0.6,4.9c-0.9,2.1-2.1,3.9-3.5,5.6c-0.8,1-1.6,2-2.5,2.8c-1.9,1.7-3.8,3.4-5.8,5c-3.7,2.9-7.4,5.6-11.2,8.4
			c-3.5,2.6-7,5.2-10.8,7.4c-2,1.1-3.9,2.3-6.1,3.1c-2.6,1-5.3,1.4-8.1,0.6c-0.6-0.2-1.1-0.4-1.7-0.7c-2-1.1-2.2-2.6-1.8-4.2
			c0.2-0.9,0.6-1.7,1.1-2.4c0.2-0.3,0-0.6-0.4-0.6c-0.3,0-0.6,0.1-0.9,0.2c-3.1,0.8-6.3,1.3-9.6,1.3c-1,0-2-0.3-3-0.4
			c-0.7-0.3-1.3-0.7-1.6-1.6c-0.2-0.6-0.2-1.2,0.1-1.7c0.2-0.4,0.3-0.7,0.5-1.1c-0.3-0.4-0.6-0.3-0.9-0.3c-2.2,0-4.3,0-6.5,0
			c-1.7,0-3.4-0.3-5.1-0.9c-0.2-0.1-0.5-0.1-0.7-0.2c-1-0.5-1.4-1.4-1-2.4c0.3-0.7,0.9-1.3,1.5-1.8c0.6-0.4,1.1-0.9,1.7-1.3
			c-0.3-0.4-0.7-0.2-1-0.3c-0.4-0.1-0.8,0-1.3-0.1c-0.4,0-0.7-0.2-1.1-0.2c-0.4,0-0.7,0-1.1,0c-1.1,0-1.9-0.5-2.6-1.4
			c-0.2-0.3-0.3-0.6-0.1-1c0.3-0.8,0.8-1.3,1.5-1.7c1-0.4,2-0.9,3-1.3c3.3-1.2,6.5-2.3,9.8-3.4C213.7,611.1,214.2,611,214.7,610.9z"
			/>
		<path fill="#684D1A" d="M399.4,393.9c0-0.7-0.3-1.3-0.5-1.9c-1.8-4.7-3.7-9.3-5.5-14c-0.2-0.6-0.4-1.1-0.6-1.7
			c4.8-0.7,9.6-1.2,14.3-2.3c3.7-0.9,7.2-2.4,10.5-4.5c0.6-0.4,1.1-0.9,1.9-0.7c0.8,1.5,1.2,3.1,1.8,4.7c1.5,3.7,2.9,7.5,4.3,11.2
			c1,2.6,1.9,5.1,2.9,7.7c0.7,1.9,1.5,3.8,2.2,5.7c0.4,1.1,0.7,2.1,1.1,3.2c-0.4,0.3-0.8,0.2-1.2,0.1c-4.5-0.7-9.2,4.7-8.3,9.7
			c0.4,2.1,1.6,3.7,3.6,4.6c1.8,0.8,1.8,1,0.6,2.6c-2.6,3.3-2.3,7.1,0.8,8.8c2.2,1.2,4.5,1.5,7,0.8c1.8-0.5,3.4-1.4,4.8-2.7
			c0.5-0.4,0.9-1,1.7-0.8c0.8,2.3,1.7,4.5,2.5,6.8c0.2,0.5,0.4,1,0.4,1.5c-0.5,0.2-0.8-0.1-1.1-0.3c-1.7-1.6-4-1.9-6.1-2.4
			c-3-0.6-5.4,0.4-7.2,2.9c-1.2,1.7-1.3,3.4,0.1,4.9c2.3,2.6,5.1,4.2,8.6,4.4c2.5,0.1,4.5-1,5.7-3.3c0.3-0.5,0.3-1.2,1.1-1.2
			c-0.1,2.2-0.5,4.4-1.4,6.4c-0.9,2-2.5,3.5-4.2,4.7c-2.1,1.5-4.5,2.2-7,2.2c-1.2,0-2.5,0.1-3.7-0.1c-2.1-0.5-4-1.6-5.7-2.8
			c-1.2-0.9-2.1-2-3-3.2c0.2-1.4,0.6-2.6,0.9-4c0.4-2.5,0.3-4.8-0.4-7.2c-0.3-1.2-0.8-2.4-1.4-3.5c-1-2-2.6-3.3-4.7-4.2
			c-0.4-0.2-0.9-0.3-1.3-0.5c-1.1-2.7-1.8-5.4-1.4-8.3c0.2-1.5,0.3-3,0.5-4.4c0.2-1.5,0-3-0.6-4.4c-0.9-2.1-2.9-3.1-5.1-2.5
			c-0.5,0.1-1,0.4-1.5,0.5c-0.5,0-0.8-0.3-1-0.7C402.2,401.5,400.4,397.8,399.4,393.9z"/>
		<path fill="#4C2404" d="M337.1,599.8c2.8,0.9,5.6,1.9,8.3,2.8c0.6,0.2,1.1,0.4,1.7,0.6c1.8,0.6,3.5,1.1,5.1,2.1
			c2.9,1.6,5.8,3.1,9,4.1c2.5,0.8,5,1.5,7.6,2c2.4,0.4,4.7,0.8,7.1,0.8c1.1,0,2.2,0.3,3.4,0.2c6.6-0.3,12.9-1.3,19-3.9
			c0.8-0.4,1.6-0.7,2.5-1.1c1.2-0.1,2.3,0.2,3.3,0.6c4.4,1.5,8.7,3,13,4.6c0.8,0.3,1.5,0.7,2.2,1.1c1.2,0.8,1.1,2.6-0.3,3.2
			c-0.8,0.4-1.6,0.6-2.4,0.6c-1.1,0-2.2,0-3.5,0c0.3,0.8,0.8,1.1,1.3,1.4c0.7,0.4,1.2,1,1.7,1.6c0.8,1.1,0.5,2.2-0.8,2.8
			c-0.7,0.3-1.5,0.5-2.2,0.7c-2.9,0.7-5.8,0.7-8.7,0.6c-0.3,0-0.7-0.2-1-0.2c-0.3,0-0.6-0.1-0.9-0.1c-0.1,0-0.2,0.1-0.3,0.1
			c-0.1,0.6,0.4,1,0.6,1.5c0.6,1.4,0.2,2.5-1.2,3c-1.2,0.5-2.4,0.6-3.7,0.5c-0.4,0-0.7-0.1-1.1-0.1c-3,0.2-5.9-0.6-8.8-1.3
			c-0.2,0-0.3-0.2-0.6,0.1c0.3,0.6,0.6,1.2,0.9,1.9c0.4,0.8,0.6,1.6,0.5,2.4c-0.1,1.5-0.9,2.6-2.3,3.1c-2,0.7-3.9,1.2-6.1,0.7
			c-1.7-0.4-3.3-1-4.9-1.7c-4.1-1.9-7.8-4.4-11.5-7c-2.3-1.7-4.7-3.3-7-5.1c-2.3-1.7-4.6-3.6-7-5.3c-2.2-1.6-4.1-3.5-6.2-5.2
			c-0.8-0.6-1.5-1.4-2.1-2.2c-0.9-1.2-2-2.3-2.7-3.6c-0.5-0.8-1-1.6-1.5-2.4c-0.6-1.1-0.8-2.4-0.9-3.6
			C336.6,599.9,336.9,599.8,337.1,599.8z"/>
		<path fill="#602A05" d="M440.7,424.1c-0.6,0.3-0.9,0.8-1.3,1.2c-1.7,1.7-3.7,2.6-6,3.1c-2.1,0.4-4.3,0.1-6.3-1
			c-1.9-1-2.9-2.6-3-4.8c-0.1-1.9,0.7-3.5,1.9-4.9c0.2-0.3,0.5-0.5,0.7-0.8c0.2-0.3,0.2-0.6-0.2-0.7c-0.3-0.1-0.6-0.2-0.8-0.3
			c-2.4-0.9-4-3.2-4.2-5.7c-0.1-2.1,0.4-3.9,1.5-5.6c1.3-1.9,2.9-3.3,5.2-3.8c1.1-0.2,2.3-0.3,3.3,0.2c1.1,0.4,2.3,0.7,3.4,1.1
			c1.3,0.4,2.2,1.2,2.8,2.4c1.2,2.1,1.4,4.3,0.2,6.5c-0.4,0.7-0.8,1.4-1.2,2c-0.1,0.3-0.1,0.5,0.2,0.6c0.3,0.2,0.7,0.3,1,0.4
			c2.1,0.8,3.6,3,3.7,5.2C442,421,441.6,422.6,440.7,424.1z"/>
		<path fill="#602A05" d="M444.7,437.5c-0.5,0.4-0.5,1-0.7,1.4c-1.1,2.3-3,3.3-5.4,3.6c-0.9,0.1-1.9-0.1-2.8-0.3
			c-2.5-0.7-4.7-2-6.6-3.8c-0.3-0.3-0.5-0.5-0.7-0.8c-1.2-2.1-0.9-3.6,0.4-5.3c0.5-0.7,1.2-1.3,1.9-1.9c0.8-0.7,1.8-1,2.8-1.1
			c1.5-0.1,3-0.2,4.4,0.4c0.2,0.1,0.4,0.2,0.7,0.2c1.8,0.1,3.2,0.9,4.4,2.2c0.2,0.2,0.4,0.3,0.6,0.4
			C444.3,434,444.9,435.7,444.7,437.5z"/>
		<path fill="#602A05" d="M395,466.6c-1,0.7-2.2,0.9-3.4,1.1c-3.2,0.6-6.4,0.9-9.6,1.2c-3.4,0.3-6.8,0.2-10.2,0.3
			c-2,0-3.9-0.3-5.9-0.6c-1.1-0.2-2.1-0.3-3.2-0.5c-0.5-0.1-0.9-0.2-1.4-0.3c-0.7-0.2-1-0.7-0.9-1.3c0.1-0.7,0.8-1.2,1.6-1.1
			c0.5,0.1,0.9,0.1,1.4,0.3c2.5,0.6,5.1,0.8,7.6,1c2.8,0.2,5.6,0.3,8.4-0.1c0.3,0,0.6-0.1,0.9-0.1c4.3,0,8.6-0.6,12.8-1.6
			c1-0.2,1.2-0.1,1.8,0.9C395.1,465.9,395.1,466.2,395,466.6z"/>
		<path fill="#DAA57B" d="M353.3,365.1c0.2,1.5,0.1,3.1,0,4.6c-0.1,2.7-0.7,5.3-1.7,7.9c-1.4,3.7-3.4,7-5.9,10
			c-2.3,2.8-5,5.2-7.9,7.3c-4.3,3.2-9,5.4-14,7.3c-3.2,1.2-6.5,2.1-9.8,2.7c-2.4,0.5-4.8,0.7-7.3,0.9c-3.1,0.3-6.2,0.3-9.3,0.2
			c-1.9,0-3.8-0.4-5.7-0.6c-2.3-0.2-4.5-0.7-6.7-1.2c-0.8-0.2-1.5-0.3-2.3-0.5c-3.6-1-7.2-2.3-10.6-3.9c-3.4-1.7-6.8-3.6-9.8-6
			c-1.9-1.5-3.8-3.1-5.4-5c-3.4-3.9-6.1-8.1-7.6-13.1c-0.5-1.8-1-3.7-1-5.6c0-0.4,0-0.7-0.1-1.1c-0.2-0.5-0.2-1.1-0.2-1.6
			c0.2-3.6,0.7-7.1,2-10.5c1.2-3.2,2.8-6.1,4.9-8.7c1.7-2.1,3.5-4.3,5.7-5.9c1.1-0.8,2.1-1.7,3.2-2.6c1.3-1,2.7-1.9,4.1-2.7
			c2.8-1.6,5.7-3,8.8-4.2c3.6-1.3,7.3-2.4,11-3c2.3-0.4,4.7-0.7,7.1-0.9c2.8-0.3,5.6-0.3,8.4-0.3c0.7,0,1.4,0,2.1,0.2
			c0.3,0.1,0.7,0.1,1.1,0.1c3.6,0.1,7.1,0.8,10.6,1.6c1.7,0.4,3.4,0.9,5,1.3c0.8,0.2,0.9,1,1.2,1.6c4.5,9.7,11,17.7,19.4,24.4
			c0.2,0.1,0.4,0.3,0.6,0.5c2.6,1.9,5.4,3.7,8.2,5.3C352.3,364,353.3,364.1,353.3,365.1z"/>
		<path fill="#B39C72" d="M342.8,358.3c-0.3,0-0.6-0.1-0.8-0.3c-1.6-1.6-3.5-2.9-5-4.6c-0.8-0.8-1.6-1.6-2.4-2.4
			c-1.2-1.2-2.2-2.7-3.4-3.9c-1-1.1-1.8-2.4-2.7-3.6c-0.8-1-1.4-2.1-2-3.2c-1.2-2.1-2.3-4.3-3.4-6.5c0.3-1.5-1-2.5-1.1-3.9
			c-0.9-1.2-1.3-2.7-1.7-4.1c-0.5-1.7-0.8-3.4-1.2-5c-0.3-1.3-0.4-2.6-0.7-3.9c-0.4-1.7-0.1-3.5-0.6-5.2c-0.2-0.6-0.1-1.2-0.1-1.8
			c0-1.4,0-2.9,0-4.3c0-0.8-0.1-1.6,0.3-2.3c0.1-0.2,0.1-0.5,0.1-0.7c0.3-6.1,1.9-12,4.1-17.7c0.7-1.9,1.5-3.8,2.5-5.6
			c1.8-3.4,3.8-6.8,6.2-9.8c1-1.2,1.9-2.4,3-3.5c1.2-1.1,2-2.5,3.3-3.6c3.8-3.4,7.7-6.6,12.2-9.2c4.2-2.5,8.6-4.5,13.2-6
			c3.1-1,6.3-1.8,9.6-2.3c2.3-0.4,4.6-0.5,6.9-0.8c1.9-0.2,3.7-0.4,5.5-0.2c2.3,0.2,4.6,0.2,6.9,0.6c0.9,0.2,1.9,0.2,2.8,0.4
			c1.4,0.2,2.7,0.5,4,0.8c5.4,1.2,10.5,3.1,15.5,5.6c3.5,1.8,6.7,3.9,9.8,6.2c3.6,2.7,6.7,5.8,9.7,9.1c1.7,1.9,3.3,3.9,4.6,6.2
			c0.6,1.1,1.5,2,2.1,3.1c2.1,3.5,3.8,7.1,5.2,10.9c1,2.8,1.8,5.6,2.4,8.4c0.3,1.6,0.5,3.2,0.8,4.8c0.3,1.7,0.3,3.3,0.3,5
			c0,0.4,0.1,0.8,0.2,1.2c0.3,1.2,0.3,2.4,0,3.6c-0.1,0.5-0.2,1.1-0.2,1.6c0,4.8-1,9.5-2.3,14.1c-0.6,2.1-1.4,4.2-2.1,6.3
			c-0.6,1.7-1.5,3.2-2.3,4.8c-0.8,1.6-1.5,3.1-2.5,4.6c-1.5,2.2-2.8,4.4-4.6,6.4c-1,1.1-1.9,2.4-3,3.6c-0.9,1-1.8,2.1-2.9,2.9
			c-1.4,1-2.5,2.3-3.9,3.4c-2.5,1.9-5,3.9-7.8,5.4c-0.1,0-0.2,0.2-0.3,0.2c-0.4,1-1.3,1.3-2.1,1.8c-7,3.7-14.4,6.1-22.2,7.1
			c-0.5,0.1-1.1,0.2-1.5-0.2c-1,0-1.9-0.1-2.8,0.2c-0.4,0.1-0.9,0.1-1.4,0.1c-2.2,0-4.4,0-6.6,0c-0.8,0-1.6,0.1-2.3-0.2
			c-0.2-0.1-0.5-0.1-0.7-0.1c-4.3-0.2-8.5-1.2-12.6-2.3c-3.6-1-7-2.5-10.4-3.9c-0.3-0.1-0.6-0.2-0.9-0.2c-2.1-1.2-4.2-2.4-6.2-3.7
			c-1.3-0.9-2.7-1.6-3.9-2.7C343.2,358.4,343.1,358.3,342.8,358.3z"/>
		<path fill="#6C3209" d="M280.8,517.2c0.1,0.6,0.7,0.9,0.9,1.5c0.5,1.1,0.3,1.7-0.8,2.2c-1.8,0.8-3.7,0.7-5.7,0.4
			c-1.6-0.3-3-1.1-4.4-1.9c-0.3,0.3-0.1,0.6,0,0.9c0.3,1.6-0.7,2.5-2.3,2c-1.3-0.4-2.3-1.3-3.4-2c-1.1-0.8-2.2-1.7-3.1-2.7
			c-2.3-2.4-4.3-5-5.8-7.9c-0.8-1.5-1.3-3.1-1.8-4.7c-0.3-1-0.2-2-0.2-3c0-0.9-0.2-1.6-0.8-2.3c-1.8-2.2-3.7-4.4-5.4-6.7
			c-1.7-2.3-3.3-4.7-4.7-7.2c-3.5-6.4-6.1-13.1-7.8-20.2c-0.4-1.8-0.8-3.6-1.2-5.4c-0.1-0.3-0.2-0.6-0.2-0.9
			c-0.1-0.8,0.4-1.5,1.1-1.6c0.6-0.1,1.2,0.4,1.4,1.2c0.3,0.9,0.5,1.8,0.7,2.8c0.4,2.4,1.1,4.6,1.8,7c1.4,5.3,3.6,10.3,6.1,15.1
			c1.8,3.4,3.9,6.6,6.4,9.6c1.3,1.6,2.6,3.2,3.9,4.9c1,1.2,2.2,2.2,3.5,3.1c2.4,1.9,5.1,3.4,8.1,4.2c1.5,0.4,3.1,0.6,4.6,0.6
			c3.2-0.1,6.4-0.7,9.4-2.2c1.9-1,3.5-2.3,4.5-4.3c0.6-1.2,0.8-2.4,0.6-3.8c-0.3-1.8-0.9-3.5-2-5c-1-1.4-1.9-2.9-2.9-4.3
			c-0.6-0.9-1.1-1.9-1.6-2.8c-0.8-1.5-1.5-3-2.3-4.5c-1.6-3.1-2.5-6.4-3.2-9.7c-0.4-2-0.9-4-0.8-6c0-0.8-0.4-1.6-0.3-2.5
			c0-0.4,0-0.8,0.1-1.2c0.2-0.6,0.7-1,1.2-0.9c0.5,0.1,1,0.4,1.1,1c0.1,0.8,0.3,1.5,0.4,2.3c0.1,5.8,1.5,11.4,4.1,16.6
			c1.2,2.5,2.4,5.1,4,7.4c0.9,1.3,1.8,2.7,2.7,4c0.5,0.8,0.9,1.6,1.2,2.4c0.2,0.6,0.4,1.1,1,1.4c0.8,0.4,1.1,1.2,1.6,1.9
			c1.9,2.5,3,5.4,3.4,8.6c0,0.4,0.1,0.8,0.2,1.2c0.2,1.3,0,2.5-0.3,3.7c-0.1,0.5-0.5,0.8-0.9,1.1c-0.5,0.4-1.1,0.4-1.7,0
			c-0.4-0.3-0.7-0.6-1.1-1c-1-1-1.9-2-2.9-3c-0.2-0.2-0.4-0.6-0.8-0.5c-0.1,0.3,0.1,0.4,0.2,0.6c1.1,1.4,2.3,2.8,3.4,4.2
			c0.9,1.1,1.7,2.3,2.4,3.6c1,1.7,0.6,2.6-1.2,3.3c-1.2,0.5-2.4,0.7-3.7,0.7c-2.1,0.1-4.1-0.2-6-0.9
			C281.4,517.1,281.1,516.9,280.8,517.2z"/>
		<path fill="#932A07" d="M399.4,393.9c0.5,0.6,0.8,1.3,1.1,2c1.2,3.2,2.5,6.4,3.7,9.6c0,0.1,0.2,0.2,0.2,0.3c0.2,0.7-0.4,1-0.7,1.4
			c-4,4.8-4.5,11.4-1.5,16.8c0.3,0.6,0.9,1.1,0.7,1.9c-1,0.4-2.1,0.9-3.2,1.2c-1.9,0.7-3.6,1.7-5.4,2.8c-1.3,0.8-2.5,1.6-3.9,2.1
			c-0.9,0.2-1.7,0.5-2.6,0.7c-0.4,0.1-0.8,0.2-1.2,0.4c-0.7,0.2-1.1-0.1-1.4-0.7c0.1-0.6-0.2-1.1-0.4-1.5
			c-2.7-5.6-5.6-11.1-9.2-16.2c-1.3-1.9-2.5-3.8-4.1-5.5c-0.5-0.5-0.4-0.9,0.3-1.2c1.7-0.7,3.4-1.4,5.1-2.2
			c3.9-1.7,7.8-3.5,11.6-5.6c2.7-1.5,5.4-3,8.1-4.7C397.7,395,398.5,394.4,399.4,393.9z"/>
		<path d="M216.1,326.9c-0.1,4-1.1,7.7-3.6,10.9c-0.9,1.2-2.1,2.1-3.5,2.8c-2.7,1.2-5.1,0.9-7.4-0.9c-1.2-0.9-2.1-2.1-2.8-3.5
			c-1.3-2.7-1.7-5.5-1.6-8.4c0.1-2.6,0.8-5.1,2-7.4c0.7-1.5,1.7-2.7,2.9-3.8c0.8-0.7,1.7-1.3,2.7-1.7c2.7-1,5.1-0.4,7.2,1.5
			c2,1.8,3,4.1,3.6,6.7C216,324.2,216.2,325.5,216.1,326.9z"/>
		<path fill="#DAA57B" d="M432.5,234.8c-1.2,0.1-2.4-0.3-3.5-0.8c-1.3-0.6-2-1.6-2-3.1c0-0.3,0-0.6-0.1-0.9
			c-0.1-0.9,0.2-1.6,0.8-2.2c0.3-0.2,0.5-0.5,0.8-0.7c1.8-1,3.2-2.5,4.6-4c2.3-2.4,4.9-4.4,7.6-6.3c1.5-1.1,3.2-1.8,5-2.3
			c3-0.8,6.2,1.2,5.6,5.1c-0.5,3-1.9,5.6-3.9,7.9c-1.5,1.8-3.4,3-5.4,4.1c-1.6,0.8-3.2,1.7-4.9,2.3
			C435.7,234.5,434.2,234.7,432.5,234.8z"/>
		<path fill="#DAA57B" d="M179.1,231c-0.1,2.2-1.2,3.6-3.2,4.2c-1.2,0.3-2.3,0.4-3.5,0c-1.7-0.5-3.3-1-4.8-2
			c-2.2-1.4-4.4-2.9-6.2-4.8c-1.8-1.8-3-3.8-3.9-6.2c-0.6-1.5-0.8-3.1-0.9-4.7c-0.1-1.4,0.4-2.8,1.5-3.9c0.9-0.9,2-0.9,3.2-0.9
			c0.9,0,1.8,0.3,2.6,0.7c1.3,0.7,2.5,1.4,3.5,2.5c1,1,1.9,2,2.9,2.9c1.2,1.2,2.2,2.5,3.2,3.9c1.4,2,2.8,4,4.6,5.7
			C178.7,229.2,179.3,230,179.1,231z"/>
		<path fill="#602A05" d="M402.9,425.9c-1.3-1.7-2.3-3.6-2.7-5.8c-0.2-1.2-0.5-2.4-0.5-3.5c0.1-2.8,0.6-5.4,2.1-7.9
			c0.7-1.1,1.6-2,2.5-3c0.7-0.7,1.7-0.8,2.6-1c0.5-0.1,1.1,0,1.6,0.2c1.5,0.5,2.6,1.4,3.2,2.9c0.6,1.7,0.8,3.5,0.4,5.3
			c-0.1,0.6-0.2,1.2-0.2,1.8c0,0.6,0,1.2-0.2,1.8c-0.3,1-0.2,2-0.1,3c0.2,1.2,0.4,2.3,0.8,3.5c0.2,0.7,0.2,1.3,0.2,1.9
			c0,0-0.2,0-0.2,0l-0.2,0c-0.3-0.3-0.8,0-1.1-0.3c-0.1,0-0.2,0-0.4,0c-2.5-0.2-5,0.2-7.4,1C403.3,425.9,403.1,425.9,402.9,425.9z"
			/>
		<path fill="#442700" d="M391.1,371.6c4.2-0.6,8.4-1.4,12.4-2.7c4.7-1.5,9.2-3.4,13.4-6c0.4,0.1,0.6,0.4,0.7,0.7
			c0.5,1.4,1,2.9,1.5,4.3c0.1,0.1,0.2,0.3,0.3,0.4c0,0.1,0,0.2,0,0.3c-1.4,0.9-2.7,1.8-4.1,2.6c-3.1,1.7-6.5,2.7-9.9,3.5
			c-2.1,0.5-4.2,0.7-6.3,1.1c-1.4,0.3-2.9,0.2-4.2,0.6c-0.7,0.2-1.4,0.1-2.1-0.3C392.2,374.7,391.4,373.2,391.1,371.6z"/>
		<path fill="#6C3209" d="M313.6,461.1c0-2.4-0.5-4.7-1.4-7c0-0.1-0.1-0.2-0.2-0.3c-0.3-0.7-0.2-1,0.1-1.3c0.4-0.4,0.9-0.3,1.3-0.1
			c0.9,0.4,1.7,0.9,2.6,1.3c0.4,0.2,0.9,0.4,1.3,0.6c0.3,0.1,0.5-0.1,0.5-0.3c0-0.4,0.1-0.7,0-1.1c-0.7-4.1-2.2-7.9-4.9-11.2
			c-0.8-1-1.5-2-2.3-3c-0.1-0.2-0.3-0.4-0.1-0.6c0.2-0.2,0.5,0,0.7,0.1c0.6,0.3,1.2,0.6,1.7,1.1c1.7,1.5,3.2,3.1,4.3,5
			c1.5,2.7,2.3,5.5,2.8,8.5c0.1,0.8,0.1,1.6,0.1,2.3c-0.1,1-0.7,1.5-1.6,1.6c-0.7,0-1.3,0-1.9-0.3c-0.4-0.2-0.9-0.4-1.3-0.6
			c-0.2-0.1-0.5,0.1-0.5,0.4c0.2,0.9,0.4,1.9,0.5,2.8c0.2,1.7,0.3,3.5-0.2,5.2c-0.4,1.6-1.4,2-2.8,1.2c-1-0.6-2-1.3-3-2
			c-0.2-0.1-0.4-0.3-0.6-0.4c-0.2-0.1-0.4,0-0.4,0.2c0,0.1,0,0.2,0,0.4c0.6,2.2,1.3,4.3,2.2,6.4c0.3,0.6,0.5,1.2,0.8,1.8
			c0.2,0.4,0.2,0.8,0.2,1.2c0,0.4-0.2,0.7-0.6,0.8c-0.4,0.1-0.7-0.1-1-0.4c-0.1-0.1-0.2-0.3-0.3-0.5c-1.7-3.8-3.1-7.7-3.7-11.8
			c0-0.1-0.1-0.2-0.1-0.3c-0.1-0.5,0.2-0.8,0.5-1.1c0.3-0.3,0.7-0.2,1,0c1,0.7,2,1.3,3,2c0.8,0.5,1.6,1.1,2.4,1.6
			c0.4,0.3,0.8,0.1,0.9-0.4C313.7,462.3,313.6,461.7,313.6,461.1z"/>
		<path fill="#602A05" d="M385.3,432.4c0.5,0.2,0.9,0.5,1.4,0.7c0,0.3,0,0.6,0,0.9c-0.1,0.5-0.4,0.8-1,0.9c-0.1,0-0.2,0-0.4,0
			c-2.2-0.1-4.3,0.4-6.5,0.3c-2.2-0.1-4.4-0.3-6.6-0.5c-2.2-0.3-4.4-0.7-6.5-1.2c-1.7-0.5-3.4-1.1-5.1-1.7c-0.3-0.1-0.7-0.3-1-0.5
			c-0.4-0.3-0.7-0.9-0.6-1.2c0.1-0.5,0.7-0.9,1.2-0.9c0.5,0,0.9,0.1,1.4,0.3c1.8,0.6,3.6,1.3,5.5,1.7c1.6,0.4,3.3,0.6,4.9,0.9
			c3.6,0.6,7.3,0.3,10.9,0.4C383.9,432.4,384.6,432.4,385.3,432.4z"/>
		<path fill="#7F6030" d="M321.9,329.8c0.8,0.8,1.2,1.9,1.4,3c0.1,0.3,0.1,0.7-0.3,0.9c-0.1-0.6-0.4-1.2-0.8-1.7
			c-0.2-0.5-0.4-1.1-0.6-1.6C321.6,330.2,321.7,330,321.9,329.8z"/>
		<path fill="#684D1A" d="M411.2,424.9c0.4,0,0.8-0.1,1.1,0.3C411.9,425.2,411.5,425.2,411.2,424.9z"/>
		<path fill="#684D1A" d="M419.5,368.3c-0.2-0.1-0.3-0.2-0.3-0.4C419.3,368.1,419.4,368.2,419.5,368.3z"/>
		<path fill="#B6A381" d="M140.4,433c0.2-0.6,0.4-1,0.5-1.5c1.5-5.8,2.9-11.6,4.4-17.4c0.2-0.6,0.3-1.3,0.6-1.9
			c0.2-0.6,0.8-0.9,1.5-0.7c0.6,0.1,0.8,0.5,0.9,1.2c0,0.5-0.1,0.9-0.2,1.4c-1.5,6-3.1,12.1-4.6,18.1c0,0.1,0,0.1-0.1,0.2
			c-0.4,1.5-0.4,1.5,1.1,2c2.6,0.9,5.2,1.8,7.8,2.6c0.5,0.2,1,0.3,1.5,0.7c0.5,0.4,0.7,1,0.4,1.4c-0.2,0.5-0.7,0.7-1.2,0.7
			c-0.3,0-0.7-0.1-1-0.2c-2.3-0.8-4.6-1.6-7-2.4c-0.5-0.2-1-0.4-1.5-0.5c-1.1-0.3-1.2-0.3-1.4,0.8c-0.3,1.2-0.6,2.3-0.9,3.5
			c-0.4,1.5-0.3,1.6,1.1,2.1c1.2,0.4,2.5,0.8,3.7,1.3c2.8,1,5.5,1.9,8.3,2.9c0.5,0.2,1,0.4,1.6,0.4c0.3-0.5,0.4-1,0.6-1.5
			c0.4-1.7,0.8-3.4,1.2-5.1c0.1-0.5,0.3-0.9,0.6-1.3c0.3-0.4,0.9-0.6,1.3-0.5c0.6,0.2,1,0.8,0.9,1.4c-0.1,0.7-0.3,1.4-0.5,2.1
			c-0.3,1.4-0.7,2.8-1,4.2c-0.1,0.3-0.2,0.6-0.2,0.9c-0.1,0.6,0,0.9,0.6,1.1c1.4,0.5,2.8,1,4.2,1.5c1.4,0.5,2.8,1,4.3,1.4
			c0.2,0.1,0.4,0.2,0.7,0c0.3-0.5,0.4-1,0.6-1.6c0.1-0.5,0.2-0.9,0.4-1.4c0.2-0.6,0.9-0.9,1.5-0.7c0.6,0.2,1,0.8,0.9,1.4
			c-0.1,0.5-0.2,1-0.4,1.6c-0.1,0.3-0.2,0.6-0.2,0.9c-0.1,0.6-0.1,1,0.7,1.2c1.4,0.4,2.7,1,4.1,1.4c1,0.4,2,0.7,3.1,1
			c0.5,0.2,0.9,0.3,1.2,0.8c0.5,0.7,0.1,1.7-0.8,1.8c-0.5,0.1-1.1-0.1-1.6-0.2c-1.8-0.6-3.6-1.2-5.4-1.8c-0.3-0.1-0.7-0.2-1-0.3
			c-0.8-0.2-1.1-0.1-1.3,0.7c-0.4,1.6-0.8,3.2-1.2,4.9c-0.8,3.2-1.7,6.5-2.5,9.7c-0.1,0.3-0.2,0.7-0.2,1.1c-0.1,0.5,0.1,0.8,0.6,1
			c1.6,0.6,3.3,1.2,4.9,1.8c0.4,0.1,0.5-0.1,0.6-0.4c0.5-2.1,1-4.2,1.5-6.3c0.1-0.5,0.3-1,0.6-1.5c0.3-0.4,0.9-0.7,1.2-0.5
			c0.6,0.2,1,0.8,1,1.4c0,0.3-0.1,0.6-0.2,0.9c-0.5,2.3-1.1,4.5-1.6,6.8c-0.2,0.7-0.1,0.9,0.5,1.1c1.5,0.6,2.9,1.1,4.4,1.6
			c2.6,1,5.3,2,7.9,2.9c0.2,0.1,0.4,0.1,0.7,0.2c0.6-1,0.6-2.1,1-3.1c0.1-0.4,0.2-0.8,0.4-1.2c0.3-0.6,0.8-0.8,1.4-0.6
			c0.5,0.1,0.8,0.5,0.8,1.1c0,0.5,0,1.1-0.1,1.6c-0.1,0.6-0.3,1.3-0.5,1.9c-0.3,1.1-0.1,1.4,0.9,1.8c1,0.4,2,0.8,3,1.1
			c0.4,0.1,0.8,0.3,1.1,0.6c0.5,0.4,0.6,0.8,0.4,1.3c-0.3,0.7-0.9,1-1.6,0.8c-0.5-0.1-0.9-0.3-1.4-0.5c-0.8-0.3-1.6-0.5-2.4-0.9
			c-0.8-0.4-1.1,0-1.3,0.7c-0.4,1.9-0.9,3.7-1.3,5.6c-0.2,0.7-0.3,1.4-0.5,2.1c-0.1,0.5,0.1,0.8,0.5,1c1.7,0.7,3.4,1.4,5.2,2.1
			c0.3,0.1,0.6,0.1,0.7-0.3c0.1-0.4,0.3-0.8,0.4-1.2c1.5-6.2,3.1-12.4,4.6-18.6c0.1-0.4,0.2-0.8,0.4-1.2c0.3-0.7,0.9-0.9,1.5-0.7
			c0.5,0.2,1,0.8,0.9,1.4c-0.1,0.5-0.2,1.1-0.3,1.6c-1.6,6.3-3.1,12.5-4.7,18.8c-0.1,0.3-0.2,0.6-0.2,0.9c-0.1,0.4,0.1,0.7,0.5,0.9
			c0.4,0.2,0.8,0.3,1.1,0.5c1.7,0.7,3.3,1.4,5,2.1c0.4,0.2,0.8,0.3,1.1,0.6c0.5,0.3,0.7,0.9,0.5,1.4c-0.2,0.5-0.8,0.9-1.3,0.8
			c-0.5-0.1-0.9-0.3-1.4-0.4c-1.6-0.7-3.2-1.3-4.8-2c-0.3-0.1-0.7-0.2-1-0.3c-0.4-0.1-0.6,0.1-0.7,0.4c-0.1,0.2-0.1,0.4-0.1,0.5
			c-1.1,4.2-2.1,8.4-3.2,12.5c-0.1,0.2-0.1,0.5-0.1,0.7c-0.2,0.7-0.8,1.1-1.3,1c-0.7-0.1-1.2-0.8-1.1-1.6c0-0.4,0.1-0.7,0.2-1
			c1-4.2,2.1-8.5,3.1-12.7c0.2-0.9,0.2-1-0.6-1.4c-1.6-0.7-3.3-1.4-5-2.1c-0.4-0.1-0.6,0-0.7,0.3c-0.5,1.7-0.9,3.5-1.3,5.2
			c-0.9,3.9-1.8,7.8-2.7,11.7c-0.8,3.3-1.6,6.6-2.4,9.9c-0.1,0.3-0.1,0.6-0.2,0.9c-0.2,0.4-0.9,0.8-1.3,0.7c-0.4-0.1-1-0.6-1-1.2
			c0-0.5,0-1,0.1-1.4c0.1-0.7,0.4-1.4,0.5-2.1c1.2-4.9,2.3-9.9,3.5-14.8c0.7-3.1,1.4-6.2,2.1-9.3c0-0.1,0.1-0.2,0.1-0.3
			c0.1-0.7,0-1-0.7-1.3c-0.9-0.4-1.9-0.8-2.8-1.2c-0.3-0.1-0.7-0.3-1-0.5c-0.5-0.3-0.7-1-0.5-1.6c0.2-0.5,0.9-0.9,1.5-0.7
			c0.8,0.3,1.6,0.6,2.3,0.9c0.5,0.2,1.1,0.5,1.7,0.5c0.4-0.3,0.5-0.7,0.5-1.2c0.5-2.3,1.1-4.7,1.6-7c0.2-0.8,0.1-1-0.7-1.3
			c-3.3-1.2-6.5-2.4-9.8-3.6c-0.7-0.3-1.5-0.6-2.2-0.8c-0.9-0.3-1-0.3-1.2,0.6c-0.6,2.4-1.2,4.8-1.8,7.1c-1.1,4.5-2.2,9-3.3,13.4
			c-0.1,0.5-0.3,1-0.5,1.5c-0.2,0.5-0.9,0.8-1.3,0.7c-0.6-0.2-1-0.7-1-1.3c0-0.2,0.1-0.5,0.1-0.7c1-4,1.9-7.9,2.9-11.9
			c0.8-3.2,1.6-6.4,2.3-9.6c0.1-0.2,0.1-0.5,0.1-0.7c0.1-0.4-0.1-0.6-0.4-0.7c-1.7-0.7-3.3-1.3-5-1.9c-0.3-0.1-0.6,0-0.7,0.3
			c-0.5,2-1,3.9-1.5,5.9c-0.1,0.6,0,0.9,0.6,1.2c0.6,0.3,1.2,0.5,1.8,0.7c0.3,0.1,0.7,0.2,1,0.5c0.4,0.4,0.6,0.8,0.4,1.3
			c-0.2,0.5-0.5,0.8-1.1,0.8c-0.4,0-0.8,0-1.2-0.2c-0.3-0.1-0.7-0.3-1-0.4c-1.3-0.5-1.3-0.4-1.7,0.9c-0.7,2.7-1.4,5.4-2.1,8.2
			c-0.1,0.5-0.2,0.9-0.5,1.4c-0.3,0.5-0.9,0.7-1.4,0.6c-0.6-0.2-1.1-0.8-1-1.3c0.2-1.1,0.5-2.1,0.8-3.1c0.6-2.4,1.2-4.8,1.8-7.1
			c0.2-0.7,0.2-0.7-0.6-1c-2.6-1-5.3-2-7.9-3c-0.7-0.3-1-0.1-1.2,0.6c-0.3,1-0.5,2.1-0.8,3.1c-1.2,4.9-2.4,9.8-3.5,14.6
			c-0.1,0.4-0.1,0.8-0.2,1.2c-0.1,0.4-0.3,0.8-0.5,1.1c-0.3,0.5-0.8,0.7-1.2,0.6c-0.6-0.1-1-0.7-1-1.3c0-0.3,0.1-0.6,0.2-0.9
			c1.2-4.8,2.3-9.7,3.5-14.5c0.4-1.6,0.7-3.2,1.1-4.7c0.3-0.9,0.1-1.3-0.8-1.6c-1.8-0.6-3.6-1.4-5.4-2c-5.6-2.1-11.1-4.1-16.7-6.2
			c-0.6-0.2-1.2-0.4-1.9-0.6c-0.6-0.2-0.8-0.1-1,0.6c-0.4,1.2-0.7,2.4-1,3.6c-0.1,0.4-0.3,0.8-0.6,1.1c-0.4,0.4-0.9,0.4-1.3,0.2
			c-0.4-0.2-0.6-0.5-0.6-1c0-0.5,0.1-0.9,0.2-1.4c0.3-1.2,0.7-2.4,1-3.6c0.2-0.7,0.1-0.8-0.6-1c-0.8-0.3-1.7-0.6-2.5-1
			c-0.7-0.3-0.9-0.8-0.8-1.2c0.2-0.6,0.8-1.1,1.5-1c0.4,0,0.8,0.2,1.2,0.3c0.6,0.2,1.2,0.4,1.8,0.6c0.6-0.2,0.6-0.7,0.7-1.1
			c1.2-4.3,2.4-8.6,3.6-13c0.2-0.7,0.1-1-0.6-1.3c-1.9-0.7-3.7-1.3-5.6-2c-0.8-0.3-1-0.1-1.2,0.6c-0.9,3.2-1.7,6.4-2.6,9.5
			c-0.2,0.9-0.5,1.8-0.8,2.8c-0.1,0.5-0.4,0.9-0.9,1.1c-0.7,0.4-1.5-0.1-1.6-0.9c-0.1-0.5,0-1.1,0.2-1.6c1-3.6,1.9-7.2,2.9-10.7
			c0.1-0.4,0.2-0.8,0.3-1.2c0.2-0.7,0.2-0.7-0.6-1c-1.9-0.7-3.8-1.4-5.7-2.1c-0.6-0.2-1.2-0.5-1.8-0.8c-0.5-0.3-0.7-0.8-0.6-1.4
			c0.1-0.5,0.5-0.7,1.1-0.8c0.5,0,1.1,0.1,1.6,0.3c1.7,0.6,3.5,1.2,5.2,1.9c0.3,0.1,0.6,0.2,0.9,0.3c0.5,0.2,0.8,0.1,1-0.4
			c0.2-0.5,0.4-1,0.5-1.5c0.5-1.7,0.9-3.5,1.4-5.2c0.2-0.7,0.1-0.8-0.6-1c-1.5-0.6-3-1.1-4.6-1.7c-0.4-0.2-0.9-0.3-1.3-0.5
			c-0.5-0.3-0.7-0.9-0.5-1.4c0.2-0.5,0.8-0.9,1.3-0.8c0.4,0.1,0.8,0.2,1.2,0.3c1.5,0.5,2.9,1,4.4,1.5c0.7,0.2,1,0,1.2-0.6
			c0.4-1.4,0.8-2.9,1.1-4.3c0.1-0.6,0-0.9-0.6-1.1c-1-0.4-2-0.8-3-1.1c-1-0.3-1.9-0.6-2.9-1c-0.4-0.1-0.8-0.3-1-0.7
			c-0.5-0.7-0.1-1.7,0.8-1.8c0.5-0.1,1.1,0.1,1.6,0.2c1.8,0.6,3.5,1.2,5.3,1.8c0.7,0.2,0.8,0.1,1-0.6c0.4-1.3,0.7-2.5,1-3.8
			c0.3-1,0.5-2.1,0.8-3.1c0.1-0.3,0.3-0.7,0.5-1c0.3-0.5,0.8-0.7,1.2-0.6c0.6,0.2,1.1,0.8,1,1.3c-0.1,0.5-0.2,1.1-0.4,1.6
			c-0.5,1.8-1,3.6-1.4,5.4c-0.1,0.2-0.2,0.5-0.2,0.7c-0.2,0.9,0,1.2,0.8,1.5c1.7,0.6,3.4,1.2,5.1,1.8c1,0.3,1.3,0.1,1.6-0.8
			c1.5-5.4,2.9-10.7,4.4-16.1c0.6-2.1,1.2-4.3,1.8-6.4c0.1-0.5,0.3-0.9,0.7-1.2c0.7-0.5,1.7-0.1,1.8,0.8c0.1,0.5,0,1-0.1,1.4
			c-0.7,2.4-1.3,4.7-1.9,7.1c-1.2,4.5-2.5,9-3.7,13.5c-0.2,0.8-0.4,1.5-0.6,2.2c-0.1,0.4,0.1,0.7,0.4,0.9c0.7,0.3,1.4,0.5,2,0.7
			C137.3,432,138.8,432.5,140.4,433z"/>
		<path d="M290.1,378.8c-0.6,0-1.2,0-1.8,0.1c-4.9,0.5-9.2-0.9-13.1-3.8c-0.8-0.6-0.8-0.6-1.7,0c-2.2,1.5-4.5,2.7-7,3.6
			c-2.1,0.8-4.2,1.3-6.5,1.5c-0.5,0.1-1,0.1-1.4,0c-0.6,0-1-0.5-1.1-1c-0.1-0.6,0.3-1.2,0.9-1.4c0.3-0.1,0.7-0.1,1.1-0.1
			c4.1-0.4,7.8-1.8,11.3-3.9c1.6-1,3-2.2,4.4-3.4c0.4-0.4,0.8-0.7,1.2-1.1c0.5-0.4,1.2-0.3,1.6,0.1c0.4,0.4,0.5,1.1,0,1.6
			c-0.5,0.5-1,1-1.5,1.6c0.5,0.8,1.2,1.2,1.9,1.6c3.5,1.9,7.2,2.6,11.1,1.9c2-0.3,3.9-0.9,5.7-1.6c1.2-0.5,2.2-1.3,3-2.3
			c0.2-0.2,0.1-0.6-0.2-0.7c-0.2-0.1-0.4-0.2-0.7-0.2c-2.9-0.6-5.3-2-7.4-3.9c-5.3-4.7-8.8-10.4-10-17.4c-0.6-3.5-0.4-7.1,1.3-10.3
			c1.2-2.3,2.7-4.2,4.9-5.6c0.2,0,0.3-0.2,0.4-0.3l0,0c0.2-0.2,0.5-0.1,0.6-0.4l0,0c0.1-0.1,0.3-0.2,0.4-0.3l0.1,0
			c0.2-0.2,0.5-0.1,0.6-0.4l0,0c0.2-0.2,0.5-0.1,0.7-0.3l0,0c0.2-0.2,0.5-0.1,0.7-0.3l0.1,0c0.3-0.3,0.8,0,1-0.4l0,0
			c0.2-0.2,0.5-0.1,0.7-0.3c1-0.6,2.2-0.7,3.3-0.9c5.3-1,10.4-0.5,15.3,1.6c2.9,1.2,5.3,3.1,7.1,5.6c2.3,3.3,3.1,7,2.6,10.9
			c-1,7.7-4.7,14-10.5,19.1c-1.9,1.7-4.1,2.9-6.6,3.6c-0.2,0-0.3,0.1-0.5,0.2c-0.3,0.1-0.4,0.5-0.2,0.8c0.7,0.9,1.5,1.5,2.5,2
			c3,1.3,6.1,2,9.4,2c2.9,0,5.5-1,8-2.4c0.4-0.2,0.8-0.6,1.1-0.9c0.3-0.2,0.3-0.5,0.1-0.8c-0.3-0.3-0.6-0.6-0.9-0.9
			c-0.2-0.2-0.4-0.5-0.5-0.7c-0.2-0.5-0.1-1.2,0.3-1.5c0.4-0.3,0.9-0.4,1.3-0.1c0.5,0.3,0.9,0.7,1.2,1c1.4,1.3,2.9,2.5,4.5,3.5
			c3.4,2.1,7.1,3.4,11.1,3.9c0.4,0,0.7,0,1.1,0.1c0.7,0.2,1.2,0.8,1.1,1.4c-0.1,0.6-0.6,1.1-1.2,1.1c-0.6,0-1.2,0-1.8-0.1
			c-4.5-0.6-8.7-2.3-12.5-4.7c-0.4-0.3-0.9-0.6-1.4-0.9c-0.3,0.2-0.5,0.4-0.7,0.6c-0.4,0.3-0.8,0.7-1.3,1c-3.6,2.1-7.4,3.4-11.6,2.9
			c-0.4,0-0.8,0-1.2,0c-1,0.5-1.9,0.1-2.8-0.1c-2.4-0.7-4.8-1.3-6.8-2.9c-0.8-0.6-1.4-0.3-2.1,0.2
			C296.5,377.5,293.5,378.8,290.1,378.8z"/>
		<path fill="#FFFFFF" d="M290.1,378.8c0.3-0.1,0.7-0.3,1-0.3c1.9-0.3,3.7-1,5.4-1.7c1.2-0.5,2.3-1.3,3.2-2.3c0.5-0.5,0.6-0.5,1-0.1
			c2.2,2.2,5.1,2.9,8,3.7c0.7,0.2,1.4,0.3,2.1,0.5c-0.1,1.5-0.3,3-0.4,4.5c-0.1,1.1-0.3,2.1-0.5,3.2c-0.7,2.6-2.2,4.8-4.6,6.2
			c-3.6,2-9.1,1.7-12.1-3c-1.8-2.8-2.9-5.7-3-9.1C290.2,379.7,290.2,379.3,290.1,378.8z"/>
		<path fill="#9B7A4D" d="M342.8,358.3c0.1-0.2,0.3-0.4,0.5-0.2c0.3,0.3,0.1,0.5-0.2,0.6C343,358.5,342.9,358.4,342.8,358.3z"/>
		<path fill="#1A1212" d="M291,331.6c-0.2,0.5-0.6,0.4-1,0.4C290.2,331.6,290.6,331.5,291,331.6z"/>
		<path fill="#1A1212" d="M288.5,332.7c-0.1,0.3-0.4,0.4-0.6,0.4C287.9,332.8,288.2,332.7,288.5,332.7z"/>
		<path fill="#1A1212" d="M289.2,332.3c-0.1,0.3-0.4,0.4-0.7,0.3C288.6,332.4,288.9,332.3,289.2,332.3z"/>
		<path fill="#1A1212" d="M291.7,331.3c-0.2,0.3-0.4,0.3-0.7,0.3C291.2,331.3,291.4,331.2,291.7,331.3z"/>
		<path fill="#1A1212" d="M287.3,333.3c-0.1,0.3-0.3,0.4-0.6,0.4C286.8,333.5,287,333.3,287.3,333.3z"/>
		<path fill="#1A1212" d="M289.9,332c-0.1,0.3-0.4,0.4-0.7,0.3C289.4,332,289.6,331.9,289.9,332z"/>
		<path fill="#1A1212" d="M287.7,333.1c-0.1,0.2-0.2,0.3-0.4,0.3C287.4,333.1,287.5,333,287.7,333.1z"/>
		<path fill="#1A1212" d="M286.7,333.8c-0.1,0.2-0.2,0.3-0.4,0.3C286.3,333.9,286.4,333.8,286.7,333.8z"/>
		<path fill="#AC7149" d="M327.4,321.5c-0.9-0.9-0.8-2.2-1.1-3.3c-0.3-1.4-0.5-2.8-0.7-4.2c-0.1-0.5-0.1-1-0.1-1.4
			c0-1.9,0-3.7,0-5.6c-0.1-2.5,0.3-5,0.6-7.5c0.5-3.4,1.4-6.7,2.5-9.9c0.5-1.3,1-2.6,1.6-3.8c0.6-1.2,1.1-2.5,1.8-3.7
			c1.8-3.2,3.8-6.2,6.1-9.1c2.1-2.6,4.5-5,7-7.2c2.9-2.5,6.1-4.6,9.4-6.5c2.9-1.7,6-3,9.1-4.1c3.4-1.2,7-2.1,10.6-2.6
			c1.8-0.3,3.5-0.6,5.3-0.5c1.9,0.1,3.8,0.1,5.8,0c2.3-0.1,4.5,0.3,6.8,0.6c3.5,0.5,6.9,1.4,10.2,2.5c3.8,1.2,7.3,3,10.7,5.1
			c1.7,1.1,3.4,2.2,5.1,3.4c1.1,0.8,2.1,1.7,3.2,2.6c1.2,1.1,2.4,2.2,3.5,3.3c4.5,4.7,8.2,10,10.9,15.9c1.8,3.9,3.1,8,3.9,12.3
			c0.5,2.8,1,5.6,0.8,8.5c-0.1,1.6-0.1,3.2,0,4.9c0.1,2.7-0.3,5.2-0.8,7.8c-0.5,2.9-1.3,5.7-2.3,8.5c-1.2,3.3-2.8,6.5-4.6,9.5
			c-1.3,2.3-2.9,4.3-4.3,6.4c-0.1,0.1-0.1,0.2-0.2,0.3c-1.9,1.9-3.5,4.1-5.5,5.9c-1.8,1.5-3.5,3-5.4,4.4c-3.2,2.4-6.8,4.3-10.4,6
			c-2.1,0.9-4.2,1.8-6.4,2.4c-1.8,0.5-3.7,1.1-5.5,1.4c-1.2,0.2-2.5,0.3-3.7,0.6c-2,0.5-4,0.3-6,0.6c-1.7,0.3-3.6,0.3-5.4-0.1
			c-0.2-0.1-0.5-0.1-0.7-0.1c-5.4-0.2-10.5-1.4-15.5-3.2c-0.2-0.1-0.4-0.1-0.5-0.1c-0.1-0.1-0.2-0.2-0.3-0.4
			c-0.2-0.3-0.3-0.6-0.4-0.9c-2.7-10.8-8.6-19.6-17-26.9c-4.8-4.2-10.1-7.6-15.8-10.5C328.7,322.5,327.9,322.3,327.4,321.5z"/>
		<path fill="#DAA57B" d="M327.4,321.5c2,0.7,3.9,1.8,5.8,2.8c1.5,0.8,2.9,1.7,4.3,2.6c2.7,1.7,5.3,3.6,7.8,5.7
			c1.4,1.2,2.8,2.5,4.1,3.8c2.8,2.8,5.2,5.9,7.4,9.2c1.9,3,3.5,6.3,4.7,9.7c0.5,1.6,1.3,3.2,1.3,5c0.2,0.2,0.1,0.5,0.3,0.7
			c0,0.1,0,0.2,0,0.4c-0.8-0.3-1.6-0.5-2.4-0.8c-4.7-1.9-9-4.4-13-7.5c-2.6-2-5-4.1-7.2-6.5c-0.6-0.6-1.1-1.3-1.6-1.9
			c-2.1-2.5-4-5.1-5.7-8c-2.7-4.5-4.4-9.4-6-14.3C327,322.1,327,321.8,327.4,321.5z"/>
		<path fill="#655944" d="M150.5,470.2c-0.3,1.5-0.7,3-1,4.5c-0.1,0.6-0.3,1.3-0.4,1.9c-0.2,0.7-0.4,0.8-1,0.6
			c-1.9-0.7-3.8-1.4-5.7-2.1c-4-1.5-8-3-12-4.4c-2-0.7-4-1.5-6.1-2.2c-1-0.4-1.1-0.6-0.9-1.6c0.6-2.3,1.2-4.6,1.9-6.9
			c0.5-1.9,1.1-3.8,1.6-5.7c0-0.2,0.1-0.4,0.1-0.5c0.2-0.5,0.5-0.7,1-0.6c0.1,0,0.2,0.1,0.3,0.1c1.9,0.7,3.8,1.3,5.8,2
			c0.6,0.2,0.7,0.4,0.6,1.1c-0.7,2.8-1.4,5.6-2.1,8.4c-0.1,0.3-0.2,0.7-0.2,1c-0.1,0.8,0.4,1.5,1.1,1.6c0.5,0.1,1.1-0.3,1.4-1
			c0.2-0.4,0.3-0.9,0.4-1.4c0.6-2.4,1.2-4.9,1.8-7.3c0.1-0.2,0.1-0.5,0.2-0.7c0.2-0.5,0.4-0.6,0.8-0.4c0.8,0.3,1.7,0.6,2.5,0.9
			c1.7,0.6,3.4,1.2,5.1,1.8c0.2,0.1,0.5,0.2,0.7,0.2c0.6,0.1,1.2-0.4,1.4-0.9c0.1-0.4-0.1-0.9-0.5-1.2c-0.4-0.3-0.9-0.5-1.5-0.7
			c-2.3-0.8-4.5-1.6-6.8-2.4c-0.9-0.3-1-0.5-0.8-1.3c0.6-2.2,1.1-4.4,1.7-6.6c0.2-0.8,0.5-1,1.3-0.7c3.3,1.1,6.7,2.3,10,3.5
			c1,0.4,2,0.7,3,1.1c1.3,0.5,1,0.7,0.8,1.6c-1,4.2-2,8.5-3.1,12.7c-0.2,0.7-0.3,1.4-0.5,2.1c-0.3,0.9-0.4,1-1.2,0.7
			c-0.7-0.2-1.3-0.5-2-0.8c-0.5-0.2-0.9-0.1-1.3,0.3c-0.5,0.6-0.5,1.4,0.2,1.9c0.3,0.2,0.7,0.4,1.1,0.5c0.7,0.3,1.3,0.5,2,0.8
			C150.2,469.9,150.3,470,150.5,470.2z"/>
		<path fill="#655944" d="M163.4,472c-2.1-0.8-3.9-1.4-5.7-2.1c-1.1-0.4-2.2-0.8-3.4-1.3c-0.5-0.2-0.6-0.5-0.5-1
			c0.5-2,1-4.1,1.5-6.1c0.7-3,1.4-5.9,2.1-8.9c0-0.2,0.1-0.4,0.1-0.5c0.2-0.5,0.5-0.7,1-0.6c0.2,0,0.3,0.1,0.5,0.2
			c2.6,0.9,5.2,1.8,7.8,2.7c0.9,0.3,1,0.4,0.7,1.5c-0.5,1.9-1,3.8-1.4,5.7c-0.7,3-1.5,5.9-2.2,8.9
			C163.7,470.9,163.6,471.4,163.4,472z"/>
		<path fill="#655944" d="M162.7,475.1c-0.5,1.9-0.9,3.8-1.4,5.6c-0.2,0.9-0.5,1.1-1.4,0.8c-2.6-0.9-5.2-1.9-7.7-2.8
			c-0.8-0.3-0.9-0.5-0.8-1.2c0.5-2,1-3.9,1.4-5.9c0.1-0.4,0.4-0.6,0.8-0.4c0.8,0.3,1.6,0.6,2.4,0.8c2,0.7,4,1.5,6,2.3
			C162.6,474.5,162.7,474.7,162.7,475.1z"/>
		<path fill="#655944" d="M135.2,452.8c-1.5-0.5-2.9-1-4.4-1.5c-0.8-0.3-1.6-0.6-2.3-0.9c-0.4-0.1-0.6-0.4-0.5-0.8
			c0.7-2.5,1.4-5,2.1-7.5c0.4-0.2,0.7-0.1,0.9,0c1.8,0.6,3.6,1.2,5.4,1.8c0.2,0.1,0.4,0.2,0.7,0.3c0.2,0.1,0.4,0.3,0.3,0.6
			C136.8,447.4,136.3,450.1,135.2,452.8z"/>
		<path fill="#655944" d="M127.6,441.5c0,0.1-0.1,0.3-0.1,0.5c-0.6,2.2-1.2,4.4-1.8,6.6c-0.2,0.6-0.5,0.8-1,0.6
			c-1.9-0.6-3.7-1.3-5.6-2c-0.8-0.3-1-0.5-0.7-1.3c0.6-2.2,1.1-4.4,1.7-6.6c0.2-0.6,0.5-0.7,1.1-0.5c1.9,0.6,3.8,1.3,5.8,1.9
			C127.3,440.8,127.5,441,127.6,441.5z"/>
		<path fill="#655944" d="M128,438.3c-0.2,0-0.3-0.1-0.5-0.1c-1.9-0.6-3.7-1.3-5.6-1.9c-0.7-0.3-0.8-0.5-0.6-1.2
			c0.4-1.5,0.8-3,1.3-4.5c0.2-0.6,0.4-0.7,0.9-0.5c2,0.7,4,1.3,5.9,2c0.6,0.2,0.7,0.4,0.6,1.1c-0.4,1.6-0.8,3.1-1.3,4.7
			C128.5,438.1,128.3,438.3,128,438.3z"/>
		<path fill="#655944" d="M139.7,436.2c-0.4,1.6-0.8,3.2-1.3,4.9c-0.2,0.6-0.3,0.6-0.9,0.4c-2-0.6-4-1.3-6-2
			c-0.4-0.1-0.6-0.4-0.5-0.8c0.4-1.7,0.9-3.3,1.3-5c0.1-0.3,0.4-0.5,0.7-0.4c2,0.7,4.1,1.3,6.1,2
			C139.6,435.5,139.8,435.8,139.7,436.2z"/>
		<path fill="#AFAFAF" d="M290.3,332.7c0.1,0,0.2,0,0.3-0.1c0.2-0.2,0.5-0.1,0.7-0.3c0.1,0,0.2,0,0.3-0.1c0.3-0.3,0.8,0,1.1-0.3
			c2.7-0.4,5.4-0.5,8.1-0.4c1.7,0.1,3.5,0.3,5.2,0.7c0.6,0.2,1.3,0.3,1.8,0.7c0.7,0.4,0.7,0.9,0.2,1.5c-0.6,0.6-1.3,0.9-1.9,1.3
			c-2.5,1.3-5,2.3-7.5,3.4c-1.7,0.7-3.5,1.3-5.3,1.7c-1.2,0.3-2.5,0.3-3.8,0.2c-0.9-0.1-1.6-0.4-2.3-0.8c-1.5-1-1.9-2.7-1-4.2
			c0.3-0.5,0.6-0.9,0.9-1.3c0.1-0.3,0.5-0.2,0.6-0.5l0.1,0c0.1-0.1,0.2-0.2,0.4-0.3l0,0c0.2-0.2,0.5-0.1,0.7-0.4l0.1,0
			c0.2-0.2,0.5-0.1,0.7-0.3l0.1,0C289.8,332.8,290.1,332.9,290.3,332.7z"/>
		<path fill="#1A1212" d="M292.8,332c-0.3,0.3-0.7,0.3-1.1,0.3C292,331.9,292.4,331.9,292.8,332z"/>
		<path fill="#1A1212" d="M287.7,334.1c-0.1,0.3-0.3,0.4-0.6,0.5C287.1,334.2,287.4,334.1,287.7,334.1z"/>
		<path fill="#1A1212" d="M290.3,332.7c-0.2,0.3-0.4,0.3-0.7,0.3C289.7,332.7,290,332.7,290.3,332.7z"/>
		<path fill="#1A1212" d="M289.5,333.1c-0.2,0.2-0.4,0.4-0.7,0.3C289,333.1,289.2,333,289.5,333.1z"/>
		<path fill="#1A1212" d="M291.4,332.4c-0.2,0.2-0.4,0.3-0.7,0.3C290.8,332.4,291.1,332.3,291.4,332.4z"/>
		<path fill="#1A1212" d="M288.8,333.4c-0.1,0.2-0.4,0.4-0.7,0.4C288.3,333.5,288.5,333.4,288.8,333.4z"/>
		<path fill="#1A1212" d="M288.1,333.8c0,0.2-0.2,0.3-0.4,0.3C287.8,333.9,287.9,333.8,288.1,333.8z"/>
		<path d="M400.4,277.5c0.5,0.2,0.9,0.5,1.3,0.9c4.7,4.1,8.1,9.1,10.5,14.8c1.7,4,2.7,8.1,3.2,12.3c0.9,8.4-0.3,16.5-4.3,24
			c-2.5,4.7-5.9,8.6-10.5,11.3c-3.6,2.2-7.5,3.3-11.8,3.4c-6.7,0.1-12.5-2.3-17.7-6.4c-5.6-4.5-9.3-10.3-11.7-16.9
			c-2.5-6.6-3.1-13.4-2.6-20.3c0.1-1.1,0.3-2.1,0.5-3.2c0.1-0.6,0.2-1.2,0.2-1.8c-0.1-0.4,0-0.7,0.2-1.1c0.7-0.8,1.5-1.5,2.1-2.3
			c0.3-0.3,0.6-0.7,1-0.6c0.5,0.2,0.5,0.7,0.6,1.2c0.1,0.9-0.1,1.9,0.2,2.8c0.8,3.8,2.1,7.4,5,10.2c5,4.7,10.7,6.1,17.2,3.6
			c1-0.3,1.9-0.9,2.8-1.4c0.5-0.4,1.1-0.8,1.8-0.7c0.3,0.1,0.4,0.3,0.5,0.6c-0.2,1.7-0.6,3.4-0.5,5.2c0.1,5.1,3.6,9.6,8.5,10.7
			c5.1,1.2,10-1.2,12.4-6c2.6-5.4,1-11.7-3.9-15c-3.2-2.2-6.7-2.3-10.3-0.9c-0.7,0.3-1.3,0.7-2,0.7c-0.3,0-0.5-0.2-0.6-0.5
			c-0.1-1.3,0.8-2.3,1-3.4c1.8-6.7,0.4-12.5-4.5-17.5c-0.5-0.5-1.1-0.9-1.2-1.8c0.1-0.6,0.7-0.8,1.2-0.9c3.1-0.7,6.2-1.2,9.4-1.4
			C399.2,277,399.9,277.1,400.4,277.5z"/>
		<path fill="#CEAA93" d="M358,294.9c-0.1,0.2-0.2,0.5-0.4,0.7c-1.5,1.5-2.7,3.2-3.8,5c-1.6,2.6-3.2,5.2-4.6,7.9
			c-1.3,2.5-2.3,5.1-3,7.9c-0.3,1.3-0.7,2.5-1.1,3.8c-0.2,0.5-0.4,1-0.9,1.3c-0.5,0.3-1.1,0.4-1.7,0.1c-1.3-0.5-2.2-1.4-3-2.5
			c-1.6-2.2-2.6-4.6-3.3-7.1c-0.6-2.1-1.1-4.2-1.3-6.3c-0.2-1.7-0.6-3.3-0.4-5c0.4-5.6,1.1-11.1,3.4-16.2c1.4-3.1,3-6,5-8.7
			c2.2-3.1,4.8-6,7.6-8.5c3.8-3.4,8-6.2,12.8-7.7c2.3-0.7,4.6-1.3,6.9-1.7c4.1-0.8,8.2-0.8,12.3-0.6c3.4,0.2,6.8,0.5,10.1,1.5
			c1.3,0.4,2.6,0.7,3.9,1.2c2.7,0.9,5.3,2.3,7.7,3.8c3.3,2.1,6.2,4.7,8.8,7.6c0.7,0.8,1.3,1.7,1.7,2.7c0.7,1.7,0,3.1-1.7,3.7
			c-1,0.3-2,0.4-3,0.2c-0.3-0.1-0.7-0.2-1.1-0.2c-2.6,0.1-5.1-0.5-7.7-0.4c-0.4,0-0.7,0-1.1,0c-1.1,0.1-1.9-0.7-2.7-1.2
			c-8.7-5.5-19.2-5.4-27.4,0.4c-5.2,3.7-8.6,8.8-10.7,14.7C359.2,292.4,358.8,293.7,358,294.9z"/>
		<path fill="#656565" d="M358,294.9c0.2-1.7,0.9-3.3,1.5-4.9c1.5-3.9,3.7-7.4,6.5-10.4c2.4-2.7,5.4-4.7,8.7-6.2
			c3.6-1.5,7.3-2.1,11.2-1.9c3,0.2,5.9,1,8.6,2.3c2.1,0.9,4,2.2,5.9,3.5c0,0.1,0,0.2,0,0.3c-3.9,0.1-7.8,0.8-11.7,1.6
			c-0.4,0.1-0.5,0.3-0.5,0.6c-0.7,0.3-1.1-0.2-1.6-0.5c-10-6.3-22.4-0.1-24.5,11.4c-0.2,1-0.1,2-0.1,3c0,0.7,0.1,1.5-0.5,2
			c-0.4-0.6-0.3-1.3-0.3-1.9c0-0.6,0-1.2,0-2C360,292.9,359,293.9,358,294.9z"/>
		<path fill="#B39C72" d="M363,361.1c-0.3-0.2-0.3-0.4-0.3-0.7C362.9,360.6,363,360.8,363,361.1z"/>
		<path fill="#FFFFFF" d="M361.5,295.6c0-1,0-2,0.1-3c0.1-5,2.2-9,5.8-12.3c5.3-4.7,12.8-5.4,18.9-1.9c0.7,0.4,1.3,0.8,1.9,1.3
			c3.3,2.7,5.4,6,6.3,10.2c0.6,2.9,0.5,5.8-0.3,8.7c0,0.1-0.1,0.2-0.2,0.3c-0.4,0.8-0.9,1.7-1.1,2.6c-1.1,4.1-4.6,5.9-7.9,7.8
			c-0.3,0.1-0.6,0.2-0.7,0.5c-2.6,1.3-5.4,1.6-8.2,1.2c-8.1-1.1-13-7.4-14.2-13.4C361.7,296.9,361.6,296.3,361.5,295.6z"/>
		<path fill="#FEFEFE" d="M384.3,309.7c0-0.3,0-0.6,0.4-0.7c1.4-0.5,2.6-1.3,3.7-2.4c0.3-0.3,0.6-0.5,1-0.7c1.1-0.6,2-1.3,2.1-2.7
			c1-1.4,1.4-3.1,2.5-4.4c0,1.2-0.8,2.1-1.1,3.2c-0.1,0.1-0.1,0.3-0.2,0.5c0,0-0.1,0.1-0.1,0.1s0.2,0,0.2,0c0.1-0.1,0.3-0.1,0.4-0.2
			c0.2-0.1,0.4-0.2,0.6-0.3c6.3-3.8,14.5-0.7,16.8,6.6c1.9,5.8-0.8,12.2-6.2,14.8c-6,2.8-13.1-0.1-15.6-6.4
			c-1.1-2.8-1.1-5.6-0.3-8.5c0.1-0.3,0.2-0.6,0.3-0.9c0.1-0.2,0.1-0.4,0.2-0.7c0.1-0.1,0.2-0.2,0-0.3c-0.2-0.1,0-0.1,0,0.1
			c-0.2,0.2-0.4,0.3-0.6,0.4c-1.1,0.7-2.1,1.5-3.3,2.1C384.9,309.6,384.6,309.6,384.3,309.7z"/>
		<path fill="#5F4F4F" d="M388.5,307.4c0.1-0.4,0.4-0.6,0.8-0.7c0.2,0.1,0.2,0.3,0.1,0.5c-0.1,0.3-0.1,0.5-0.4,0.7
			C388.8,307.7,388.6,307.6,388.5,307.4z"/>
		<path fill="#362525" d="M392.4,302.8c0.1-0.3,0.2-0.6,0.4-0.7c0.1,0.1,0.2,0.3,0.3,0.4c-0.1,0.1-0.2,0.2-0.3,0.3
			C392.8,303,392.6,303,392.4,302.8z"/>
		<path fill="#999696" d="M389.3,307.2c0-0.2,0-0.3-0.1-0.5c0-0.1,0.1-0.2,0.2-0.2c0.1,0,0.1,0.2,0.1,0.3
			C389.5,306.9,389.4,307,389.3,307.2z"/>
		<path fill="#7F9797" d="M392.4,302.8c0.2,0,0.3,0,0.5,0c-0.1,0.1-0.2,0.3-0.4,0.3c-0.1,0-0.2,0-0.3-0.1
			C392.2,302.9,392.3,302.8,392.4,302.8z"/>
	</g>
</g>
</svg>
